<svg width="375" height="102" viewBox="0 0 375 102" fill="none" xmlns="http://www.w3.org/2000/svg">
<rect width="375" height="102" fill="white"/>
<rect opacity="0.1" y="101" width="375" height="1" fill="black"/>
<path d="M123.761 69.42C123.761 69.7933 123.761 70.2133 123.761 70.68C123.775 71.1467 123.781 71.6333 123.781 72.14C123.781 72.6333 123.781 73.1267 123.781 73.62C123.781 74.1 123.775 74.5467 123.761 74.96C123.748 75.16 123.728 75.38 123.701 75.62C123.675 75.8467 123.621 76.06 123.541 76.26C123.461 76.46 123.335 76.6267 123.161 76.76C123.001 76.88 122.781 76.9333 122.501 76.92C122.088 76.8933 121.788 76.7133 121.601 76.38C121.428 76.0467 121.328 75.58 121.301 74.98C121.301 74.6733 121.295 74.32 121.281 73.92C121.281 73.52 121.275 73.1133 121.261 72.7C121.261 72.2867 121.261 71.8867 121.261 71.5C121.261 71.1 121.261 70.74 121.261 70.42C121.261 70.2333 121.255 70.0067 121.241 69.74C121.241 69.4733 121.248 69.2 121.261 68.92C121.275 68.64 121.308 68.3733 121.361 68.12C121.415 67.8533 121.501 67.6333 121.621 67.46C121.715 67.3533 121.848 67.2733 122.021 67.22C122.195 67.1533 122.375 67.12 122.561 67.12C122.761 67.12 122.948 67.1533 123.121 67.22C123.308 67.2867 123.441 67.38 123.521 67.5C123.575 67.58 123.615 67.6933 123.641 67.84C123.668 67.9867 123.688 68.1533 123.701 68.34C123.728 68.5133 123.741 68.7 123.741 68.9C123.755 69.0867 123.761 69.26 123.761 69.42ZM123.001 65.38C122.588 65.4867 122.241 65.4467 121.961 65.26C121.695 65.06 121.528 64.7667 121.461 64.38C121.408 64.1 121.428 63.8533 121.521 63.64C121.615 63.4267 121.755 63.2667 121.941 63.16C122.128 63.04 122.341 62.9867 122.581 63C122.821 63.0133 123.061 63.1067 123.301 63.28C123.528 63.44 123.688 63.6267 123.781 63.84C123.888 64.0533 123.921 64.26 123.881 64.46C123.855 64.66 123.768 64.8467 123.621 65.02C123.475 65.18 123.268 65.3 123.001 65.38ZM125.754 69.86C125.754 69.5533 125.747 69.2267 125.734 68.88C125.734 68.5333 125.794 68.22 125.914 67.94C126.02 67.6867 126.194 67.5067 126.434 67.4C126.687 67.28 126.934 67.2533 127.174 67.32C127.414 67.36 127.6 67.4333 127.734 67.54C127.867 67.6467 127.96 67.7733 128.014 67.92C128.08 68.0533 128.12 68.2133 128.134 68.4C128.147 68.5733 128.16 68.7467 128.174 68.92C128.307 68.68 128.474 68.4867 128.674 68.34C128.874 68.1933 129.08 68.0733 129.294 67.98C129.507 67.8867 129.707 67.82 129.894 67.78C130.094 67.74 130.247 67.72 130.354 67.72C130.86 67.72 131.36 67.8333 131.854 68.06C132.36 68.2733 132.78 68.58 133.114 68.98C133.3 69.22 133.44 69.4733 133.534 69.74C133.64 69.9933 133.714 70.26 133.754 70.54C133.807 70.82 133.84 71.1067 133.854 71.4C133.867 71.68 133.88 71.9667 133.894 72.26C133.96 73.1133 133.96 73.96 133.894 74.8C133.88 74.9733 133.874 75.1733 133.874 75.4C133.874 75.6267 133.854 75.8533 133.814 76.08C133.787 76.2933 133.727 76.4867 133.634 76.66C133.554 76.82 133.414 76.92 133.214 76.96C132.934 77.0267 132.7 77.04 132.514 77C132.34 76.9733 132.2 76.9133 132.094 76.82C131.987 76.7267 131.907 76.6067 131.854 76.46C131.8 76.3133 131.754 76.1467 131.714 75.96C131.687 75.8133 131.66 75.6467 131.634 75.46C131.62 75.26 131.607 75.06 131.594 74.86C131.594 74.66 131.587 74.4667 131.574 74.28C131.574 74.08 131.574 73.9 131.574 73.74C131.574 73.4867 131.567 73.2067 131.554 72.9C131.54 72.5933 131.54 72.3067 131.554 72.04C131.554 71.4133 131.387 70.94 131.054 70.62C130.734 70.2867 130.294 70.1467 129.734 70.2C129.307 70.2533 128.934 70.4267 128.614 70.72C128.294 71 128.14 71.3667 128.154 71.82C128.154 71.9933 128.154 72.1533 128.154 72.3C128.154 72.4467 128.147 72.5933 128.134 72.74C128.134 72.8867 128.134 73.0467 128.134 73.22C128.134 73.3933 128.134 73.5867 128.134 73.8C128.134 74.24 128.134 74.7067 128.134 75.2C128.134 75.68 128.074 76.0733 127.954 76.38C127.847 76.7 127.667 76.92 127.414 77.04C127.16 77.16 126.86 77.1267 126.514 76.94C126.367 76.86 126.247 76.7533 126.154 76.62C126.074 76.4733 126.007 76.32 125.954 76.16C125.914 76 125.887 75.84 125.874 75.68C125.86 75.5067 125.847 75.3467 125.834 75.2C125.794 74.76 125.767 74.3533 125.754 73.98C125.754 73.5933 125.754 73.18 125.754 72.74V69.86ZM143.858 73.22C143.858 73.6467 143.844 74.1067 143.818 74.6C143.804 75.0933 143.784 75.5533 143.758 75.98C143.758 76.38 143.738 76.78 143.698 77.18C143.671 77.5267 143.618 77.9 143.538 78.3C143.458 78.7133 143.344 79.0933 143.198 79.44C143.011 79.8933 142.758 80.28 142.438 80.6C142.118 80.9333 141.704 81.1733 141.198 81.32C140.771 81.4267 140.371 81.4933 139.998 81.52C139.624 81.56 139.224 81.5533 138.798 81.5C138.518 81.46 138.218 81.38 137.898 81.26C137.578 81.1533 137.278 81.0133 136.998 80.84C136.718 80.6667 136.471 80.46 136.258 80.22C136.044 79.9933 135.898 79.7333 135.818 79.44C135.724 79.08 135.718 78.7667 135.798 78.5C135.891 78.2333 136.031 78.04 136.218 77.92C136.404 77.8 136.624 77.78 136.878 77.86C137.131 77.94 137.371 78.1467 137.598 78.48C137.758 78.72 137.991 78.9133 138.298 79.06C138.604 79.2067 138.931 79.2933 139.278 79.32C139.624 79.3467 139.958 79.3 140.278 79.18C140.611 79.0733 140.871 78.88 141.058 78.6C141.191 78.4 141.284 78.1133 141.338 77.74C141.404 77.3667 141.444 77 141.458 76.64C140.778 76.92 140.078 77.0267 139.358 76.96C138.651 76.88 138.004 76.66 137.418 76.3C136.844 75.9267 136.378 75.4333 136.018 74.82C135.671 74.1933 135.524 73.4867 135.578 72.7C135.618 72.02 135.758 71.38 135.998 70.78C136.251 70.18 136.664 69.68 137.238 69.28C137.704 68.96 138.231 68.7533 138.818 68.66C139.404 68.5533 139.971 68.5 140.518 68.5C140.838 68.5 141.151 68.5 141.458 68.5C141.778 68.5 142.071 68.54 142.338 68.62C142.604 68.7 142.844 68.8333 143.058 69.02C143.271 69.2067 143.431 69.48 143.538 69.84C143.711 70.4 143.804 70.9533 143.818 71.5C143.844 72.0467 143.858 72.62 143.858 73.22ZM139.998 74.88C140.131 74.88 140.258 74.8667 140.378 74.84C140.511 74.8133 140.638 74.78 140.758 74.74C140.984 74.66 141.151 74.5533 141.258 74.42C141.378 74.2867 141.458 74.14 141.498 73.98C141.538 73.8067 141.551 73.62 141.538 73.42C141.538 73.22 141.538 73.0133 141.538 72.8C141.538 72.6267 141.531 72.4333 141.518 72.22C141.518 72.0067 141.504 71.8067 141.478 71.62C141.451 71.42 141.411 71.2467 141.358 71.1C141.304 70.9533 141.224 70.86 141.118 70.82C140.931 70.7667 140.718 70.7333 140.478 70.72C140.238 70.6933 139.998 70.6933 139.758 70.72C139.518 70.7333 139.284 70.78 139.058 70.86C138.844 70.9267 138.664 71.02 138.518 71.14C138.318 71.3133 138.164 71.5267 138.058 71.78C137.951 72.0333 137.884 72.3 137.858 72.58C137.844 72.86 137.864 73.1333 137.918 73.4C137.984 73.6667 138.098 73.9067 138.258 74.12C138.444 74.3867 138.698 74.58 139.018 74.7C139.338 74.82 139.664 74.88 139.998 74.88ZM145.5 69.92C145.5 69.76 145.5 69.58 145.5 69.38C145.5 69.1667 145.506 68.9533 145.52 68.74C145.533 68.5133 145.553 68.3 145.58 68.1C145.62 67.8867 145.673 67.7 145.74 67.54C145.846 67.3 146.013 67.14 146.24 67.06C146.466 66.9667 146.713 66.9267 146.98 66.94C147.26 66.94 147.48 66.9867 147.64 67.08C147.8 67.1733 147.92 67.3 148 67.46C148.08 67.6067 148.126 67.78 148.14 67.98C148.166 68.1667 148.18 68.3667 148.18 68.58C148.3 68.3667 148.46 68.1933 148.66 68.06C148.873 67.9267 149.086 67.82 149.3 67.74C149.513 67.66 149.706 67.6067 149.88 67.58C150.053 67.54 150.153 67.52 150.18 67.52C150.513 67.4933 150.813 67.4867 151.08 67.5C151.36 67.5133 151.666 67.5733 152 67.68C152.213 67.76 152.433 67.8733 152.66 68.02C152.886 68.1533 153.086 68.3133 153.26 68.5C153.433 68.6867 153.546 68.8933 153.6 69.12C153.666 69.3333 153.64 69.56 153.52 69.8C153.333 70.1333 153.126 70.3 152.9 70.3C152.673 70.2867 152.426 70.2467 152.16 70.18C152.013 70.1533 151.84 70.0933 151.64 70C151.44 69.9067 151.266 69.8467 151.12 69.82C150.666 69.7533 150.266 69.7867 149.92 69.92C149.573 70.0533 149.273 70.2133 149.02 70.4C148.726 70.6267 148.473 70.8867 148.26 71.18V74.06C148.26 74.42 148.253 74.7933 148.24 75.18C148.24 75.5667 148.186 75.92 148.08 76.24C147.986 76.5467 147.82 76.8 147.58 77C147.353 77.1867 147.02 77.2667 146.58 77.24C146.34 77.2267 146.126 77.1133 145.94 76.9C145.753 76.6733 145.64 76.4533 145.6 76.24C145.573 76.04 145.553 75.8 145.54 75.52C145.526 75.24 145.513 74.9467 145.5 74.64C145.5 74.3333 145.5 74.0267 145.5 73.72C145.5 73.4 145.5 73.1067 145.5 72.84V69.92ZM160.974 74.26C161.134 74.22 161.294 74.1933 161.454 74.18C161.627 74.1667 161.781 74.1867 161.914 74.24C162.061 74.2933 162.181 74.3867 162.274 74.52C162.367 74.64 162.414 74.8133 162.414 75.04C162.414 75.2 162.374 75.3533 162.294 75.5C162.214 75.6467 162.114 75.78 161.994 75.9C161.874 76.02 161.741 76.1267 161.594 76.22C161.447 76.3 161.307 76.3667 161.174 76.42C160.787 76.5933 160.341 76.7267 159.834 76.82C159.341 76.9133 158.827 76.9467 158.294 76.92C157.574 76.8933 156.881 76.7533 156.214 76.5C155.561 76.2333 155.047 75.8 154.674 75.2C154.327 74.6133 154.121 73.96 154.054 73.24C153.987 72.52 154.021 71.84 154.154 71.2C154.301 70.4267 154.547 69.8 154.894 69.32C155.254 68.8267 155.681 68.4333 156.174 68.14C156.774 67.7933 157.447 67.6133 158.194 67.6C158.941 67.5867 159.654 67.7333 160.334 68.04C160.787 68.24 161.194 68.5133 161.554 68.86C161.914 69.1933 162.187 69.6 162.374 70.08C162.427 70.2 162.467 70.3467 162.494 70.52C162.534 70.6933 162.561 70.88 162.574 71.08C162.587 71.2667 162.587 71.4533 162.574 71.64C162.561 71.8267 162.527 71.9933 162.474 72.14C162.394 72.38 162.294 72.5667 162.174 72.7C162.054 72.8333 161.901 72.9333 161.714 73C161.527 73.0667 161.301 73.1133 161.034 73.14C160.781 73.1533 160.474 73.1667 160.114 73.18C159.794 73.1933 159.494 73.2 159.214 73.2C158.934 73.2 158.647 73.2 158.354 73.2C158.061 73.1867 157.754 73.18 157.434 73.18C157.127 73.1667 156.781 73.1533 156.394 73.14C156.354 73.4067 156.387 73.64 156.494 73.84C156.614 74.0267 156.774 74.1867 156.974 74.32C157.174 74.44 157.401 74.5333 157.654 74.6C157.907 74.6667 158.154 74.7067 158.394 74.72C158.847 74.7467 159.281 74.7133 159.694 74.62C160.107 74.5133 160.534 74.3933 160.974 74.26ZM160.114 70.38C159.861 70.0867 159.594 69.8733 159.314 69.74C159.101 69.6467 158.874 69.6067 158.634 69.62C158.407 69.62 158.187 69.6533 157.974 69.72C157.587 69.8133 157.261 70.0133 156.994 70.32C156.967 70.3467 156.921 70.4133 156.854 70.52C156.787 70.6133 156.721 70.7133 156.654 70.82C156.601 70.9267 156.561 71.0267 156.534 71.12C156.507 71.2133 156.521 71.26 156.574 71.26H160.494C160.481 71.0733 160.447 70.92 160.394 70.8C160.341 70.6667 160.247 70.5267 160.114 70.38ZM168.971 73.48C168.717 73.32 168.431 73.1933 168.111 73.1C167.804 73.0067 167.484 72.92 167.151 72.84C166.831 72.76 166.517 72.6733 166.211 72.58C165.904 72.4733 165.624 72.3267 165.371 72.14C164.824 71.7267 164.504 71.22 164.411 70.62C164.331 70.0067 164.464 69.3933 164.811 68.78C164.997 68.46 165.244 68.2 165.551 68C165.857 67.7867 166.191 67.6267 166.551 67.52C166.924 67.4 167.304 67.3333 167.691 67.32C168.077 67.3067 168.444 67.3267 168.791 67.38C169.017 67.42 169.257 67.48 169.511 67.56C169.764 67.6267 169.997 67.72 170.211 67.84C170.437 67.96 170.637 68.1133 170.811 68.3C170.997 68.4733 171.131 68.6933 171.211 68.96C171.264 69.1333 171.271 69.3 171.231 69.46C171.204 69.62 171.137 69.7533 171.031 69.86C170.937 69.9667 170.811 70.0467 170.651 70.1C170.504 70.1533 170.344 70.1667 170.171 70.14C169.971 70.1 169.784 70.04 169.611 69.96C169.437 69.88 169.264 69.7933 169.091 69.7C168.917 69.6067 168.737 69.5267 168.551 69.46C168.377 69.3933 168.191 69.36 167.991 69.36C167.684 69.3467 167.431 69.4 167.231 69.52C167.031 69.64 166.891 69.7867 166.811 69.96C166.744 70.1333 166.751 70.32 166.831 70.52C166.924 70.72 167.111 70.8933 167.391 71.04C167.644 71.1733 167.924 71.28 168.231 71.36C168.537 71.44 168.837 71.52 169.131 71.6C169.437 71.68 169.731 71.7733 170.011 71.88C170.304 71.9867 170.564 72.1333 170.791 72.32C171.231 72.68 171.497 73.1 171.591 73.58C171.697 74.06 171.671 74.5333 171.511 75C171.351 75.4667 171.071 75.88 170.671 76.24C170.284 76.6 169.824 76.84 169.291 76.96C168.904 77.04 168.484 77.08 168.031 77.08C167.591 77.08 167.151 77.0333 166.711 76.94C166.284 76.8467 165.871 76.7 165.471 76.5C165.084 76.3 164.757 76.0467 164.491 75.74C164.304 75.5267 164.204 75.2867 164.191 75.02C164.191 74.74 164.244 74.5 164.351 74.3C164.471 74.0867 164.637 73.94 164.851 73.86C165.064 73.78 165.304 73.8267 165.571 74C165.784 74.1467 166.037 74.2933 166.331 74.44C166.624 74.5733 166.917 74.68 167.211 74.76C167.504 74.84 167.784 74.88 168.051 74.88C168.331 74.88 168.571 74.82 168.771 74.7C169.064 74.5133 169.217 74.3 169.231 74.06C169.244 73.8067 169.157 73.6133 168.971 73.48ZM175.613 68.58C176.013 68.38 176.433 68.24 176.873 68.16C177.313 68.0667 177.746 68.0467 178.173 68.1C178.613 68.14 179.033 68.2533 179.433 68.44C179.833 68.6133 180.206 68.8667 180.553 69.2C180.899 69.5467 181.166 69.9267 181.353 70.34C181.539 70.7533 181.673 71.2133 181.753 71.72C181.806 72.0667 181.893 72.3867 182.013 72.68C182.133 72.9733 182.259 73.2667 182.393 73.56C182.539 73.8533 182.673 74.1467 182.793 74.44C182.926 74.7333 183.033 75.04 183.113 75.36C183.179 75.6667 183.153 75.9667 183.033 76.26C182.926 76.54 182.699 76.7133 182.353 76.78C182.153 76.82 181.959 76.8067 181.773 76.74C181.599 76.66 181.439 76.5533 181.293 76.42C181.146 76.2733 181.013 76.12 180.893 75.96C180.786 75.7867 180.686 75.6267 180.593 75.48C180.286 75.88 179.953 76.1933 179.593 76.42C179.233 76.6333 178.799 76.7733 178.293 76.84C177.866 76.8933 177.459 76.9067 177.073 76.88C176.686 76.8533 176.273 76.78 175.833 76.66C175.259 76.5133 174.786 76.26 174.413 75.9C174.053 75.5267 173.773 75.1 173.573 74.62C173.386 74.1267 173.286 73.6 173.273 73.04C173.259 72.48 173.326 71.9267 173.473 71.38C173.659 70.66 173.939 70.0733 174.313 69.62C174.686 69.1667 175.119 68.82 175.613 68.58ZM176.113 70.92C175.926 71.1067 175.779 71.3267 175.673 71.58C175.566 71.8333 175.499 72.1 175.473 72.38C175.459 72.66 175.486 72.94 175.553 73.22C175.619 73.5 175.726 73.7467 175.873 73.96C176.006 74.1467 176.233 74.3067 176.553 74.44C176.873 74.56 177.206 74.6333 177.553 74.66C177.953 74.6867 178.299 74.58 178.593 74.34C178.899 74.1 179.126 73.8 179.273 73.44C179.433 73.0667 179.506 72.6733 179.493 72.26C179.479 71.8333 179.366 71.4467 179.153 71.1C178.993 70.8467 178.779 70.66 178.513 70.54C178.259 70.42 177.986 70.36 177.693 70.36C177.399 70.3467 177.106 70.3933 176.813 70.5C176.533 70.5933 176.299 70.7333 176.113 70.92ZM184.797 69.92C184.797 69.76 184.797 69.58 184.797 69.38C184.797 69.1667 184.803 68.9533 184.817 68.74C184.83 68.5133 184.85 68.3 184.877 68.1C184.917 67.8867 184.97 67.7 185.037 67.54C185.143 67.3 185.31 67.14 185.537 67.06C185.763 66.9667 186.01 66.9267 186.277 66.94C186.557 66.94 186.777 66.9867 186.937 67.08C187.097 67.1733 187.217 67.3 187.297 67.46C187.377 67.6067 187.423 67.78 187.437 67.98C187.463 68.1667 187.477 68.3667 187.477 68.58C187.597 68.3667 187.757 68.1933 187.957 68.06C188.17 67.9267 188.383 67.82 188.597 67.74C188.81 67.66 189.003 67.6067 189.177 67.58C189.35 67.54 189.45 67.52 189.477 67.52C189.81 67.4933 190.11 67.4867 190.377 67.5C190.657 67.5133 190.963 67.5733 191.297 67.68C191.51 67.76 191.73 67.8733 191.957 68.02C192.183 68.1533 192.383 68.3133 192.557 68.5C192.73 68.6867 192.843 68.8933 192.897 69.12C192.963 69.3333 192.937 69.56 192.817 69.8C192.63 70.1333 192.423 70.3 192.197 70.3C191.97 70.2867 191.723 70.2467 191.457 70.18C191.31 70.1533 191.137 70.0933 190.937 70C190.737 69.9067 190.563 69.8467 190.417 69.82C189.963 69.7533 189.563 69.7867 189.217 69.92C188.87 70.0533 188.57 70.2133 188.317 70.4C188.023 70.6267 187.77 70.8867 187.557 71.18V74.06C187.557 74.42 187.55 74.7933 187.537 75.18C187.537 75.5667 187.483 75.92 187.377 76.24C187.283 76.5467 187.117 76.8 186.877 77C186.65 77.1867 186.317 77.2667 185.877 77.24C185.637 77.2267 185.423 77.1133 185.237 76.9C185.05 76.6733 184.937 76.4533 184.897 76.24C184.87 76.04 184.85 75.8 184.837 75.52C184.823 75.24 184.81 74.9467 184.797 74.64C184.797 74.3333 184.797 74.0267 184.797 73.72C184.797 73.4 184.797 73.1067 184.797 72.84V69.92ZM210.258 68.96C210.284 69.4 210.278 69.8533 210.237 70.32C210.211 70.7867 210.164 71.24 210.098 71.68C209.964 72.44 209.718 73.18 209.358 73.9C208.998 74.62 208.471 75.2333 207.778 75.74C207.058 76.2733 206.238 76.64 205.318 76.84C204.398 77.0267 203.484 77.14 202.578 77.18C202.271 77.2067 201.958 77.2133 201.638 77.2C201.331 77.2 201.031 77.1667 200.738 77.1C200.498 77.06 200.318 76.9867 200.198 76.88C200.131 76.84 200.078 76.7867 200.038 76.72C199.998 76.6533 199.964 76.5867 199.938 76.52C199.898 76.4533 199.864 76.3867 199.838 76.32C199.824 76.24 199.804 76.16 199.778 76.08C199.764 76.0133 199.751 75.9533 199.738 75.9C199.738 75.8333 199.738 75.7733 199.738 75.72V64.3C199.738 64.2067 199.738 64.12 199.738 64.04C199.738 63.96 199.751 63.88 199.778 63.8C199.804 63.6133 199.844 63.46 199.898 63.34C199.951 63.18 200.024 63.0667 200.118 63C200.198 62.9333 200.278 62.8867 200.358 62.86C200.438 62.82 200.511 62.7867 200.578 62.76C200.658 62.7333 200.738 62.7333 200.818 62.76C200.911 62.7733 201.011 62.7533 201.118 62.7L204.458 62.78C205.338 62.8067 206.124 63.0133 206.818 63.4C207.511 63.7733 208.104 64.2533 208.598 64.84C209.091 65.4267 209.478 66.0867 209.758 66.82C210.038 67.54 210.204 68.2533 210.258 68.96ZM206.538 72.76C206.791 72.36 206.978 71.9 207.098 71.38C207.218 70.86 207.271 70.3333 207.258 69.8C207.244 69.2533 207.171 68.7267 207.038 68.22C206.904 67.7 206.718 67.24 206.478 66.84C206.291 66.5467 206.051 66.3067 205.758 66.12C205.464 65.9333 205.138 65.7933 204.778 65.7C204.418 65.5933 204.031 65.52 203.618 65.48C203.218 65.44 202.824 65.42 202.438 65.42C202.451 65.8067 202.458 66.18 202.458 66.54C202.458 66.9 202.458 67.28 202.458 67.68C202.444 68.16 202.438 68.6267 202.438 69.08C202.438 69.5333 202.438 69.9733 202.438 70.4V74.48C202.851 74.4667 203.244 74.4467 203.618 74.42C204.004 74.38 204.371 74.3 204.718 74.18C205.078 74.06 205.404 73.8933 205.698 73.68C206.004 73.4533 206.284 73.1467 206.538 72.76ZM214.425 69.42C214.425 69.7933 214.425 70.2133 214.425 70.68C214.439 71.1467 214.445 71.6333 214.445 72.14C214.445 72.6333 214.445 73.1267 214.445 73.62C214.445 74.1 214.439 74.5467 214.425 74.96C214.412 75.16 214.392 75.38 214.365 75.62C214.339 75.8467 214.285 76.06 214.205 76.26C214.125 76.46 213.999 76.6267 213.825 76.76C213.665 76.88 213.445 76.9333 213.165 76.92C212.752 76.8933 212.452 76.7133 212.265 76.38C212.092 76.0467 211.992 75.58 211.965 74.98C211.965 74.6733 211.959 74.32 211.945 73.92C211.945 73.52 211.939 73.1133 211.925 72.7C211.925 72.2867 211.925 71.8867 211.925 71.5C211.925 71.1 211.925 70.74 211.925 70.42C211.925 70.2333 211.919 70.0067 211.905 69.74C211.905 69.4733 211.912 69.2 211.925 68.92C211.939 68.64 211.972 68.3733 212.025 68.12C212.079 67.8533 212.165 67.6333 212.285 67.46C212.379 67.3533 212.512 67.2733 212.685 67.22C212.859 67.1533 213.039 67.12 213.225 67.12C213.425 67.12 213.612 67.1533 213.785 67.22C213.972 67.2867 214.105 67.38 214.185 67.5C214.239 67.58 214.279 67.6933 214.305 67.84C214.332 67.9867 214.352 68.1533 214.365 68.34C214.392 68.5133 214.405 68.7 214.405 68.9C214.419 69.0867 214.425 69.26 214.425 69.42ZM213.665 65.38C213.252 65.4867 212.905 65.4467 212.625 65.26C212.359 65.06 212.192 64.7667 212.125 64.38C212.072 64.1 212.092 63.8533 212.185 63.64C212.279 63.4267 212.419 63.2667 212.605 63.16C212.792 63.04 213.005 62.9867 213.245 63C213.485 63.0133 213.725 63.1067 213.965 63.28C214.192 63.44 214.352 63.6267 214.445 63.84C214.552 64.0533 214.585 64.26 214.545 64.46C214.519 64.66 214.432 64.8467 214.285 65.02C214.139 65.18 213.932 65.3 213.665 65.38ZM216.418 69.86C216.418 69.5533 216.411 69.2267 216.398 68.88C216.398 68.5333 216.458 68.22 216.578 67.94C216.684 67.6867 216.858 67.5067 217.098 67.4C217.351 67.28 217.598 67.2533 217.838 67.32C218.078 67.36 218.264 67.4333 218.398 67.54C218.531 67.6467 218.624 67.7733 218.678 67.92C218.744 68.0533 218.784 68.2133 218.798 68.4C218.811 68.5733 218.824 68.7467 218.838 68.92C218.971 68.68 219.138 68.4867 219.338 68.34C219.538 68.1933 219.744 68.0733 219.958 67.98C220.171 67.8867 220.371 67.82 220.558 67.78C220.758 67.74 220.911 67.72 221.018 67.72C221.524 67.72 222.024 67.8333 222.518 68.06C223.024 68.2733 223.444 68.58 223.778 68.98C223.964 69.22 224.104 69.4733 224.198 69.74C224.304 69.9933 224.378 70.26 224.418 70.54C224.471 70.82 224.504 71.1067 224.518 71.4C224.531 71.68 224.544 71.9667 224.558 72.26C224.624 73.1133 224.624 73.96 224.558 74.8C224.544 74.9733 224.538 75.1733 224.538 75.4C224.538 75.6267 224.518 75.8533 224.478 76.08C224.451 76.2933 224.391 76.4867 224.298 76.66C224.218 76.82 224.078 76.92 223.878 76.96C223.598 77.0267 223.364 77.04 223.178 77C223.004 76.9733 222.864 76.9133 222.758 76.82C222.651 76.7267 222.571 76.6067 222.518 76.46C222.464 76.3133 222.418 76.1467 222.378 75.96C222.351 75.8133 222.324 75.6467 222.298 75.46C222.284 75.26 222.271 75.06 222.258 74.86C222.258 74.66 222.251 74.4667 222.238 74.28C222.238 74.08 222.238 73.9 222.238 73.74C222.238 73.4867 222.231 73.2067 222.218 72.9C222.204 72.5933 222.204 72.3067 222.218 72.04C222.218 71.4133 222.051 70.94 221.718 70.62C221.398 70.2867 220.958 70.1467 220.398 70.2C219.971 70.2533 219.598 70.4267 219.278 70.72C218.958 71 218.804 71.3667 218.818 71.82C218.818 71.9933 218.818 72.1533 218.818 72.3C218.818 72.4467 218.811 72.5933 218.798 72.74C218.798 72.8867 218.798 73.0467 218.798 73.22C218.798 73.3933 218.798 73.5867 218.798 73.8C218.798 74.24 218.798 74.7067 218.798 75.2C218.798 75.68 218.738 76.0733 218.618 76.38C218.511 76.7 218.331 76.92 218.078 77.04C217.824 77.16 217.524 77.1267 217.178 76.94C217.031 76.86 216.911 76.7533 216.818 76.62C216.738 76.4733 216.671 76.32 216.618 76.16C216.578 76 216.551 75.84 216.538 75.68C216.524 75.5067 216.511 75.3467 216.498 75.2C216.458 74.76 216.431 74.3533 216.418 73.98C216.418 73.5933 216.418 73.18 216.418 72.74V69.86ZM233.142 74.26C233.302 74.22 233.462 74.1933 233.622 74.18C233.795 74.1667 233.949 74.1867 234.082 74.24C234.229 74.2933 234.349 74.3867 234.442 74.52C234.535 74.64 234.582 74.8133 234.582 75.04C234.582 75.2 234.542 75.3533 234.462 75.5C234.382 75.6467 234.282 75.78 234.162 75.9C234.042 76.02 233.909 76.1267 233.762 76.22C233.615 76.3 233.475 76.3667 233.342 76.42C232.955 76.5933 232.509 76.7267 232.002 76.82C231.509 76.9133 230.995 76.9467 230.462 76.92C229.742 76.8933 229.049 76.7533 228.382 76.5C227.729 76.2333 227.215 75.8 226.842 75.2C226.495 74.6133 226.289 73.96 226.222 73.24C226.155 72.52 226.189 71.84 226.322 71.2C226.469 70.4267 226.715 69.8 227.062 69.32C227.422 68.8267 227.849 68.4333 228.342 68.14C228.942 67.7933 229.615 67.6133 230.362 67.6C231.109 67.5867 231.822 67.7333 232.502 68.04C232.955 68.24 233.362 68.5133 233.722 68.86C234.082 69.1933 234.355 69.6 234.542 70.08C234.595 70.2 234.635 70.3467 234.662 70.52C234.702 70.6933 234.729 70.88 234.742 71.08C234.755 71.2667 234.755 71.4533 234.742 71.64C234.729 71.8267 234.695 71.9933 234.642 72.14C234.562 72.38 234.462 72.5667 234.342 72.7C234.222 72.8333 234.069 72.9333 233.882 73C233.695 73.0667 233.469 73.1133 233.202 73.14C232.949 73.1533 232.642 73.1667 232.282 73.18C231.962 73.1933 231.662 73.2 231.382 73.2C231.102 73.2 230.815 73.2 230.522 73.2C230.229 73.1867 229.922 73.18 229.602 73.18C229.295 73.1667 228.949 73.1533 228.562 73.14C228.522 73.4067 228.555 73.64 228.662 73.84C228.782 74.0267 228.942 74.1867 229.142 74.32C229.342 74.44 229.569 74.5333 229.822 74.6C230.075 74.6667 230.322 74.7067 230.562 74.72C231.015 74.7467 231.449 74.7133 231.862 74.62C232.275 74.5133 232.702 74.3933 233.142 74.26ZM232.282 70.38C232.029 70.0867 231.762 69.8733 231.482 69.74C231.269 69.6467 231.042 69.6067 230.802 69.62C230.575 69.62 230.355 69.6533 230.142 69.72C229.755 69.8133 229.429 70.0133 229.162 70.32C229.135 70.3467 229.089 70.4133 229.022 70.52C228.955 70.6133 228.889 70.7133 228.822 70.82C228.769 70.9267 228.729 71.0267 228.702 71.12C228.675 71.2133 228.689 71.26 228.742 71.26H232.662C232.649 71.0733 232.615 70.92 232.562 70.8C232.509 70.6667 232.415 70.5267 232.282 70.38ZM236.379 69.92C236.379 69.76 236.379 69.58 236.379 69.38C236.379 69.1667 236.385 68.9533 236.399 68.74C236.412 68.5133 236.432 68.3 236.459 68.1C236.499 67.8867 236.552 67.7 236.619 67.54C236.725 67.3 236.892 67.14 237.119 67.06C237.345 66.9667 237.592 66.9267 237.859 66.94C238.139 66.94 238.359 66.9867 238.519 67.08C238.679 67.1733 238.799 67.3 238.879 67.46C238.959 67.6067 239.005 67.78 239.019 67.98C239.045 68.1667 239.059 68.3667 239.059 68.58C239.179 68.3667 239.339 68.1933 239.539 68.06C239.752 67.9267 239.965 67.82 240.179 67.74C240.392 67.66 240.585 67.6067 240.759 67.58C240.932 67.54 241.032 67.52 241.059 67.52C241.392 67.4933 241.692 67.4867 241.959 67.5C242.239 67.5133 242.545 67.5733 242.879 67.68C243.092 67.76 243.312 67.8733 243.539 68.02C243.765 68.1533 243.965 68.3133 244.139 68.5C244.312 68.6867 244.425 68.8933 244.479 69.12C244.545 69.3333 244.519 69.56 244.399 69.8C244.212 70.1333 244.005 70.3 243.779 70.3C243.552 70.2867 243.305 70.2467 243.039 70.18C242.892 70.1533 242.719 70.0933 242.519 70C242.319 69.9067 242.145 69.8467 241.999 69.82C241.545 69.7533 241.145 69.7867 240.799 69.92C240.452 70.0533 240.152 70.2133 239.899 70.4C239.605 70.6267 239.352 70.8867 239.139 71.18V74.06C239.139 74.42 239.132 74.7933 239.119 75.18C239.119 75.5667 239.065 75.92 238.959 76.24C238.865 76.5467 238.699 76.8 238.459 77C238.232 77.1867 237.899 77.2667 237.459 77.24C237.219 77.2267 237.005 77.1133 236.819 76.9C236.632 76.6733 236.519 76.4533 236.479 76.24C236.452 76.04 236.432 75.8 236.419 75.52C236.405 75.24 236.392 74.9467 236.379 74.64C236.379 74.3333 236.379 74.0267 236.379 73.72C236.379 73.4 236.379 73.1067 236.379 72.84V69.92ZM247.845 67.96C248.285 67.7467 248.745 67.5933 249.225 67.5C249.705 67.4067 250.178 67.3867 250.645 67.44C251.125 67.4933 251.585 67.62 252.025 67.82C252.478 68.02 252.892 68.3 253.265 68.66C253.572 68.9667 253.838 69.34 254.065 69.78C254.292 70.2067 254.458 70.6267 254.565 71.04C254.792 71.7733 254.825 72.5133 254.665 73.26C254.505 74.0067 254.232 74.7 253.845 75.34C253.658 75.6333 253.425 75.9 253.145 76.14C252.878 76.3667 252.592 76.5533 252.285 76.7C251.885 76.8867 251.452 77.0133 250.985 77.08C250.518 77.16 250.065 77.18 249.625 77.14C248.825 77.1 248.118 76.9 247.505 76.54C246.905 76.18 246.418 75.72 246.045 75.16C245.685 74.6 245.445 73.9667 245.325 73.26C245.218 72.54 245.265 71.8067 245.465 71.06C245.678 70.26 245.985 69.6133 246.385 69.12C246.798 68.6133 247.285 68.2267 247.845 67.96ZM248.445 70.64C248.245 70.8267 248.092 71.06 247.985 71.34C247.878 71.62 247.812 71.9133 247.785 72.22C247.758 72.5133 247.778 72.8133 247.845 73.12C247.925 73.4133 248.045 73.68 248.205 73.92C248.338 74.12 248.578 74.2867 248.925 74.42C249.272 74.5533 249.632 74.6333 250.005 74.66C250.432 74.6867 250.805 74.5733 251.125 74.32C251.445 74.0533 251.685 73.7267 251.845 73.34C252.018 72.9533 252.098 72.5333 252.085 72.08C252.072 71.6267 251.952 71.2133 251.725 70.84C251.565 70.5733 251.338 70.38 251.045 70.26C250.765 70.1267 250.465 70.06 250.145 70.06C249.838 70.0467 249.532 70.0933 249.225 70.2C248.918 70.2933 248.658 70.44 248.445 70.64Z" fill="#1A1A1A"/>
<rect opacity="0.01" x="15" y="59" width="24" height="24" fill="white"/>
<path d="M34 72.5C34.5523 72.5 35 72.0523 35 71.5C35 70.9477 34.5523 70.5 34 70.5V72.5ZM20 70.5C19.4477 70.5 19 70.9477 19 71.5C19 72.0523 19.4477 72.5 20 72.5V70.5ZM20.7071 70.7929C20.3166 70.4024 19.6834 70.4024 19.2929 70.7929C18.9024 71.1834 18.9024 71.8166 19.2929 72.2071L20.7071 70.7929ZM24.7929 77.7071C25.1834 78.0976 25.8166 78.0976 26.2071 77.7071C26.5976 77.3166 26.5976 76.6834 26.2071 76.2929L24.7929 77.7071ZM19.2929 70.7929C18.9024 71.1834 18.9024 71.8166 19.2929 72.2071C19.6834 72.5976 20.3166 72.5976 20.7071 72.2071L19.2929 70.7929ZM26.2071 66.7071C26.5976 66.3166 26.5976 65.6834 26.2071 65.2929C25.8166 64.9024 25.1834 64.9024 24.7929 65.2929L26.2071 66.7071ZM34 70.5H20V72.5H34V70.5ZM19.2929 72.2071L24.7929 77.7071L26.2071 76.2929L20.7071 70.7929L19.2929 72.2071ZM20.7071 72.2071L26.2071 66.7071L24.7929 65.2929L19.2929 70.7929L20.7071 72.2071Z" fill="black"/>
<rect opacity="0.01" width="375" height="40" fill="white"/>
<path fill-rule="evenodd" clip-rule="evenodd" d="M329.844 14H346.51C347.217 14 347.896 14.281 348.396 14.7811C348.896 15.2813 349.177 15.9597 349.177 16.667V22.667V22.667C349.177 23.3743 348.896 24.0527 348.396 24.5529C347.896 25.053 347.217 25.334 346.51 25.334H329.844C328.371 25.334 327.177 24.1399 327.177 22.667V16.667V16.667C327.177 15.1941 328.371 14 329.844 14Z" stroke="black" stroke-opacity="0.35"/>
<path d="M350.177 18V22C350.982 21.6612 351.505 20.8731 351.505 20C351.505 19.1269 350.982 18.3388 350.177 18" fill="black" fill-opacity="0.4"/>
<path d="M330.51 16H345.843C346.197 15.9997 346.536 16.1402 346.787 16.3904C347.037 16.6407 347.177 16.9801 347.177 17.334V22.001C347.177 22.7372 346.58 23.334 345.844 23.334H330.51C330.156 23.334 329.817 23.1934 329.567 22.9432C329.317 22.693 329.177 22.3537 329.177 22V17.333C329.177 16.5968 329.774 16 330.51 16Z" fill="black"/>
<path fill-rule="evenodd" clip-rule="evenodd" d="M314.507 16.277C316.723 16.277 318.854 17.1283 320.46 18.655C320.58 18.7736 320.773 18.7736 320.893 18.655L322.049 17.488C322.109 17.4271 322.143 17.3447 322.142 17.259C322.14 17.173 322.104 17.0913 322.042 17.032C317.826 12.9938 311.178 12.9938 306.962 17.032C306.9 17.0913 306.864 17.173 306.862 17.259C306.861 17.3447 306.895 17.4271 306.955 17.488L308.111 18.655C308.231 18.7736 308.424 18.7736 308.544 18.655C310.15 17.1281 312.282 16.2768 314.498 16.277H314.507ZM314.507 20.077C315.725 20.077 316.899 20.5297 317.801 21.347C317.923 21.4628 318.115 21.4602 318.234 21.341L319.389 20.174C319.45 20.113 319.484 20.0301 319.483 19.944C319.482 19.8573 319.446 19.7748 319.383 19.715C316.635 17.1587 312.379 17.1587 309.631 19.715C309.568 19.7748 309.532 19.8573 309.531 19.944C309.53 20.0301 309.564 20.113 309.625 20.174L310.779 21.341C310.898 21.4602 311.09 21.4628 311.212 21.347C312.114 20.5301 313.287 20.0775 314.504 20.077H314.507ZM316.82 22.63C316.822 22.7167 316.788 22.8003 316.726 22.861L314.739 24.877C314.68 24.9364 314.6 24.9699 314.517 24.97C314.433 24.97 314.353 24.9365 314.295 24.877L312.295 22.861C312.233 22.8003 312.199 22.7167 312.201 22.63C312.202 22.5442 312.238 22.4625 312.301 22.404C313.577 21.3254 315.444 21.3254 316.72 22.404C316.783 22.4625 316.819 22.5442 316.82 22.63Z" fill="black"/>
<path fill-rule="evenodd" clip-rule="evenodd" d="M300.844 14H299.844C299.292 14 298.844 14.4477 298.844 15V23.667C298.844 24.2193 299.292 24.667 299.844 24.667H300.844C301.396 24.667 301.844 24.2193 301.844 23.667V15C301.844 14.4477 301.396 14 300.844 14ZM295.177 16.333H296.177C296.729 16.333 297.177 16.7807 297.177 17.333V23.666C297.177 24.2183 296.729 24.666 296.177 24.666H295.177C294.625 24.666 294.177 24.2183 294.177 23.666V17.333C294.177 16.7807 294.625 16.333 295.177 16.333ZM291.511 18.666H290.511H290.51C289.958 18.6666 289.511 19.1141 289.511 19.666V23.666C289.511 24.2183 289.959 24.666 290.511 24.666H291.511C292.063 24.666 292.511 24.2183 292.511 23.666V19.666C292.511 19.1137 292.063 18.666 291.511 18.666ZM286.844 20.666H285.844C285.292 20.666 284.844 21.1137 284.844 21.666V23.666C284.844 24.2183 285.292 24.666 285.844 24.666H286.844C287.396 24.666 287.844 24.2183 287.844 23.666V21.666C287.844 21.1137 287.396 20.666 286.844 20.666Z" fill="black"/>
<path fill-rule="evenodd" clip-rule="evenodd" d="M27.61 25.349C30.119 25.349 31.61 23.387 31.61 20.065C31.6467 18.9833 31.4057 17.9102 30.91 16.948C30.3028 15.7191 29.0341 14.9577 27.664 15C26.7082 14.9346 25.7686 15.2719 25.0726 15.9302C24.3766 16.5886 23.9877 17.5081 24 18.466C23.9659 19.3403 24.2958 20.1895 24.9112 20.8114C25.5267 21.4333 26.3724 21.7721 27.247 21.747C28.3152 21.7987 29.315 21.2212 29.804 20.27H29.92C29.92 22.526 29.066 23.87 27.62 23.87C26.8345 23.9106 26.1219 23.412 25.891 22.66H24.137C24.4532 24.3025 25.9407 25.4542 27.61 25.349ZM27.672 20.349C27.1511 20.371 26.6447 20.1739 26.2757 19.8055C25.9068 19.437 25.7088 18.931 25.73 18.41C25.7375 17.3331 26.6165 16.4661 27.6935 16.4735C28.7705 16.481 29.6375 17.3601 29.63 18.437C29.6399 18.955 29.435 19.454 29.0639 19.8154C28.6927 20.1769 28.1885 20.3686 27.671 20.345L27.672 20.349ZM35.776 22.9788C35.7811 23.5734 35.3046 24.0603 34.71 24.068L34.709 24.064C34.4184 24.0766 34.1357 23.9679 33.9284 23.7638C33.7211 23.5598 33.608 23.2788 33.616 22.988C33.616 22.3934 34.0968 21.9107 34.6914 21.9081C35.286 21.9056 35.7708 22.3842 35.776 22.9788ZM34.71 18.941C35.0006 18.9554 35.2841 18.8477 35.4918 18.6439C35.6995 18.4402 35.8127 18.1589 35.804 17.868C35.7861 17.277 35.3018 16.8071 34.7105 16.8071C34.1192 16.8071 33.6349 17.277 33.617 17.868C33.6106 18.1575 33.7244 18.4366 33.9313 18.6392C34.1382 18.8417 34.4197 18.9495 34.709 18.937L34.71 18.941ZM44.31 25.11H42.622V23.271H37.803V21.699C38.692 20.065 40.08 17.871 41.823 15.246H44.311V21.781H45.643V23.271H44.31V25.11ZM39.437 21.719C40.585 19.696 41.611 18.075 42.554 16.681H42.654V21.822H39.437V21.719ZM51.452 25.11H49.688L49.687 17.027H49.571L47.117 18.75V17.05L49.695 15.246H51.452V25.11Z" fill="black"/>
</svg>
