<svg width="375" height="102" viewBox="0 0 375 102" fill="none" xmlns="http://www.w3.org/2000/svg">
<rect width="375" height="102" fill="white"/>
<rect opacity="0.1" y="101" width="375" height="1" fill="black"/>
<path d="M131.87 65.24L131.83 68.38H132.63C133.177 68.3667 133.663 68.36 134.09 68.36C134.517 68.36 134.99 68.3667 135.51 68.38H135.61C135.77 68.38 135.923 68.3867 136.07 68.4C136.23 68.4 136.383 68.4 136.53 68.4C136.69 68.4133 136.843 68.44 136.99 68.48C137.137 68.5067 137.283 68.54 137.43 68.58C137.657 68.66 137.843 68.78 137.99 68.94C138.123 69.1133 138.19 69.3067 138.19 69.52C138.19 69.5867 138.19 69.6667 138.19 69.76C138.19 69.84 138.177 69.9133 138.15 69.98C138.123 70.1267 138.037 70.26 137.89 70.38C137.823 70.4733 137.697 70.54 137.51 70.58C137.337 70.6333 137.163 70.6667 136.99 70.68C136.803 70.72 136.617 70.74 136.43 70.74H135.49L131.79 70.76L131.75 74.68L135.73 74.72H136.67C136.777 74.72 136.877 74.72 136.97 74.72C137.063 74.72 137.15 74.7267 137.23 74.74C137.337 74.7667 137.43 74.7867 137.51 74.8C137.603 74.8 137.69 74.8133 137.77 74.84C137.93 74.8933 138.063 74.9667 138.17 75.06C138.303 75.1933 138.39 75.3333 138.43 75.48C138.443 75.5467 138.45 75.62 138.45 75.7C138.463 75.7667 138.463 75.84 138.45 75.92C138.45 76.1333 138.383 76.3267 138.25 76.5C138.09 76.6867 137.903 76.8067 137.69 76.86C137.41 76.98 137.103 77.04 136.77 77.04C136.623 77.0533 136.47 77.06 136.31 77.06C136.15 77.06 135.997 77.0667 135.85 77.08H135.73C134.69 77.1067 133.61 77.1067 132.49 77.08C132.223 77.08 132.01 77.0733 131.85 77.06C131.69 77.06 131.543 77.06 131.41 77.06C131.29 77.06 131.163 77.06 131.03 77.06C130.897 77.06 130.723 77.06 130.51 77.06C130.203 77.0867 129.95 77.0333 129.75 76.9C129.603 76.8067 129.49 76.68 129.41 76.52C129.37 76.48 129.35 76.44 129.35 76.4C129.337 76.3733 129.323 76.3533 129.31 76.34C129.297 76.3267 129.283 76.3067 129.27 76.28C129.243 76.2133 129.223 76.1467 129.21 76.08C129.197 76 129.19 75.9267 129.19 75.86C129.177 75.7933 129.163 75.7267 129.15 75.66C129.15 75.5933 129.143 75.5267 129.13 75.46V75.14C129.13 75.0867 129.13 75.0333 129.13 74.98C129.143 74.9267 129.15 74.8733 129.15 74.82V73.26L129.19 70.38V67.72C129.19 67.24 129.19 66.8133 129.19 66.44C129.203 66.0667 129.217 65.66 129.23 65.22V65.12C129.243 64.9733 129.25 64.84 129.25 64.72C129.263 64.5867 129.27 64.4533 129.27 64.32C129.283 64.0533 129.357 63.7933 129.49 63.54C129.543 63.4333 129.597 63.34 129.65 63.26C129.717 63.18 129.803 63.1133 129.91 63.06C130.11 62.94 130.317 62.88 130.53 62.88C130.637 62.88 130.717 62.8867 130.77 62.9V62.88C131.01 62.88 131.203 62.88 131.35 62.88C131.497 62.88 131.637 62.88 131.77 62.88C131.917 62.88 132.07 62.88 132.23 62.88C132.39 62.8667 132.61 62.86 132.89 62.86C133.423 62.8467 133.93 62.84 134.41 62.84C134.89 62.84 135.383 62.8467 135.89 62.86H135.97C136.117 62.8733 136.27 62.88 136.43 62.88C136.59 62.88 136.743 62.8867 136.89 62.9C137.037 62.9 137.183 62.92 137.33 62.96C137.477 62.9867 137.623 63.0267 137.77 63.08C137.997 63.1467 138.183 63.26 138.33 63.42C138.45 63.6067 138.51 63.7933 138.51 63.98C138.51 64.06 138.51 64.14 138.51 64.22C138.51 64.2867 138.497 64.3533 138.47 64.42C138.457 64.5533 138.377 64.6933 138.23 64.84C138.177 64.8667 138.117 64.9 138.05 64.94C137.997 64.98 137.93 65.0133 137.85 65.04C137.77 65.0667 137.683 65.0867 137.59 65.1C137.51 65.1 137.43 65.1067 137.35 65.12C137.243 65.1467 137.143 65.16 137.05 65.16C136.97 65.16 136.877 65.16 136.77 65.16H135.87L131.87 65.18V65.24ZM140.127 69.86C140.127 69.5533 140.12 69.2267 140.107 68.88C140.107 68.5333 140.167 68.22 140.287 67.94C140.393 67.6867 140.567 67.5067 140.807 67.4C141.06 67.28 141.307 67.2533 141.547 67.32C141.787 67.36 141.973 67.4333 142.107 67.54C142.24 67.6467 142.333 67.7733 142.387 67.92C142.453 68.0533 142.493 68.2133 142.507 68.4C142.52 68.5733 142.533 68.7467 142.547 68.92C142.68 68.68 142.847 68.4867 143.047 68.34C143.247 68.1933 143.453 68.0733 143.667 67.98C143.88 67.8867 144.08 67.82 144.267 67.78C144.467 67.74 144.62 67.72 144.727 67.72C145.233 67.72 145.733 67.8333 146.227 68.06C146.733 68.2733 147.153 68.58 147.487 68.98C147.673 69.22 147.813 69.4733 147.907 69.74C148.013 69.9933 148.087 70.26 148.127 70.54C148.18 70.82 148.213 71.1067 148.227 71.4C148.24 71.68 148.253 71.9667 148.267 72.26C148.333 73.1133 148.333 73.96 148.267 74.8C148.253 74.9733 148.247 75.1733 148.247 75.4C148.247 75.6267 148.227 75.8533 148.187 76.08C148.16 76.2933 148.1 76.4867 148.007 76.66C147.927 76.82 147.787 76.92 147.587 76.96C147.307 77.0267 147.073 77.04 146.887 77C146.713 76.9733 146.573 76.9133 146.467 76.82C146.36 76.7267 146.28 76.6067 146.227 76.46C146.173 76.3133 146.127 76.1467 146.087 75.96C146.06 75.8133 146.033 75.6467 146.007 75.46C145.993 75.26 145.98 75.06 145.967 74.86C145.967 74.66 145.96 74.4667 145.947 74.28C145.947 74.08 145.947 73.9 145.947 73.74C145.947 73.4867 145.94 73.2067 145.927 72.9C145.913 72.5933 145.913 72.3067 145.927 72.04C145.927 71.4133 145.76 70.94 145.427 70.62C145.107 70.2867 144.667 70.1467 144.107 70.2C143.68 70.2533 143.307 70.4267 142.987 70.72C142.667 71 142.513 71.3667 142.527 71.82C142.527 71.9933 142.527 72.1533 142.527 72.3C142.527 72.4467 142.52 72.5933 142.507 72.74C142.507 72.8867 142.507 73.0467 142.507 73.22C142.507 73.3933 142.507 73.5867 142.507 73.8C142.507 74.24 142.507 74.7067 142.507 75.2C142.507 75.68 142.447 76.0733 142.327 76.38C142.22 76.7 142.04 76.92 141.787 77.04C141.533 77.16 141.233 77.1267 140.887 76.94C140.74 76.86 140.62 76.7533 140.527 76.62C140.447 76.4733 140.38 76.32 140.327 76.16C140.287 76 140.26 75.84 140.247 75.68C140.233 75.5067 140.22 75.3467 140.207 75.2C140.167 74.76 140.14 74.3533 140.127 73.98C140.127 73.5933 140.127 73.18 140.127 72.74V69.86ZM158.44 68.24C158.494 68.4 158.507 68.58 158.48 68.78C158.454 68.98 158.407 69.1867 158.34 69.4C158.274 69.6 158.194 69.8 158.1 70C158.02 70.1867 157.947 70.3533 157.88 70.5C157.534 71.2067 157.207 71.9 156.9 72.58C156.594 73.26 156.234 74 155.82 74.8C155.74 74.96 155.647 75.1533 155.54 75.38C155.447 75.5933 155.34 75.8067 155.22 76.02C155.1 76.22 154.967 76.4067 154.82 76.58C154.687 76.7533 154.54 76.88 154.38 76.96C154.247 77.04 154.114 77.0733 153.98 77.06C153.874 77.0867 153.754 77.0533 153.62 76.96C153.46 76.88 153.307 76.7533 153.16 76.58C153.027 76.4067 152.9 76.22 152.78 76.02C152.66 75.8067 152.547 75.5933 152.44 75.38C152.347 75.1533 152.26 74.96 152.18 74.8C152.02 74.4933 151.867 74.2067 151.72 73.94C151.587 73.6733 151.44 73.3867 151.28 73.08C151.134 72.76 150.967 72.4 150.78 72C150.594 71.5867 150.374 71.0867 150.12 70.5C150.054 70.34 149.98 70.1733 149.9 70C149.82 69.8267 149.747 69.64 149.68 69.44C149.627 69.24 149.587 69.04 149.56 68.84C149.547 68.6267 149.56 68.4133 149.6 68.2C149.64 68 149.74 67.84 149.9 67.72C150.06 67.6 150.24 67.52 150.44 67.48C150.64 67.44 150.84 67.4467 151.04 67.5C151.24 67.54 151.4 67.6267 151.52 67.76C151.64 67.88 151.754 68.04 151.86 68.24C151.967 68.44 152.067 68.6533 152.16 68.88C152.267 69.0933 152.36 69.3133 152.44 69.54C152.534 69.7533 152.62 69.94 152.7 70.1C152.887 70.4867 153.094 70.9067 153.32 71.36C153.56 71.8133 153.774 72.2333 153.96 72.62C154.094 72.3133 154.214 72.06 154.32 71.86C154.427 71.6467 154.527 71.44 154.62 71.24C154.727 71.04 154.834 70.82 154.94 70.58C155.06 70.34 155.207 70.0333 155.38 69.66C155.54 69.3133 155.7 68.9733 155.86 68.64C156.034 68.3067 156.24 68.0133 156.48 67.76C156.6 67.6267 156.754 67.54 156.94 67.5C157.127 67.4467 157.32 67.44 157.52 67.48C157.72 67.52 157.9 67.6067 158.06 67.74C158.234 67.86 158.36 68.0267 158.44 68.24ZM162.627 69.42C162.627 69.7933 162.627 70.2133 162.627 70.68C162.64 71.1467 162.647 71.6333 162.647 72.14C162.647 72.6333 162.647 73.1267 162.647 73.62C162.647 74.1 162.64 74.5467 162.627 74.96C162.613 75.16 162.593 75.38 162.567 75.62C162.54 75.8467 162.487 76.06 162.407 76.26C162.327 76.46 162.2 76.6267 162.027 76.76C161.867 76.88 161.647 76.9333 161.367 76.92C160.953 76.8933 160.653 76.7133 160.467 76.38C160.293 76.0467 160.193 75.58 160.167 74.98C160.167 74.6733 160.16 74.32 160.147 73.92C160.147 73.52 160.14 73.1133 160.127 72.7C160.127 72.2867 160.127 71.8867 160.127 71.5C160.127 71.1 160.127 70.74 160.127 70.42C160.127 70.2333 160.12 70.0067 160.107 69.74C160.107 69.4733 160.113 69.2 160.127 68.92C160.14 68.64 160.173 68.3733 160.227 68.12C160.28 67.8533 160.367 67.6333 160.487 67.46C160.58 67.3533 160.713 67.2733 160.887 67.22C161.06 67.1533 161.24 67.12 161.427 67.12C161.627 67.12 161.813 67.1533 161.987 67.22C162.173 67.2867 162.307 67.38 162.387 67.5C162.44 67.58 162.48 67.6933 162.507 67.84C162.533 67.9867 162.553 68.1533 162.567 68.34C162.593 68.5133 162.607 68.7 162.607 68.9C162.62 69.0867 162.627 69.26 162.627 69.42ZM161.867 65.38C161.453 65.4867 161.107 65.4467 160.827 65.26C160.56 65.06 160.393 64.7667 160.327 64.38C160.273 64.1 160.293 63.8533 160.387 63.64C160.48 63.4267 160.62 63.2667 160.807 63.16C160.993 63.04 161.207 62.9867 161.447 63C161.687 63.0133 161.927 63.1067 162.167 63.28C162.393 63.44 162.553 63.6267 162.647 63.84C162.753 64.0533 162.787 64.26 162.747 64.46C162.72 64.66 162.633 64.8467 162.487 65.02C162.34 65.18 162.133 65.3 161.867 65.38ZM166.724 68.58C167.124 68.38 167.544 68.24 167.984 68.16C168.424 68.0667 168.857 68.0467 169.284 68.1C169.724 68.14 170.144 68.2533 170.544 68.44C170.944 68.6133 171.317 68.8667 171.664 69.2C172.011 69.5467 172.277 69.9267 172.464 70.34C172.651 70.7533 172.784 71.2133 172.864 71.72C172.917 72.0667 173.004 72.3867 173.124 72.68C173.244 72.9733 173.371 73.2667 173.504 73.56C173.651 73.8533 173.784 74.1467 173.904 74.44C174.037 74.7333 174.144 75.04 174.224 75.36C174.291 75.6667 174.264 75.9667 174.144 76.26C174.037 76.54 173.811 76.7133 173.464 76.78C173.264 76.82 173.071 76.8067 172.884 76.74C172.711 76.66 172.551 76.5533 172.404 76.42C172.257 76.2733 172.124 76.12 172.004 75.96C171.897 75.7867 171.797 75.6267 171.704 75.48C171.397 75.88 171.064 76.1933 170.704 76.42C170.344 76.6333 169.911 76.7733 169.404 76.84C168.977 76.8933 168.571 76.9067 168.184 76.88C167.797 76.8533 167.384 76.78 166.944 76.66C166.371 76.5133 165.897 76.26 165.524 75.9C165.164 75.5267 164.884 75.1 164.684 74.62C164.497 74.1267 164.397 73.6 164.384 73.04C164.371 72.48 164.437 71.9267 164.584 71.38C164.771 70.66 165.051 70.0733 165.424 69.62C165.797 69.1667 166.231 68.82 166.724 68.58ZM167.224 70.92C167.037 71.1067 166.891 71.3267 166.784 71.58C166.677 71.8333 166.611 72.1 166.584 72.38C166.571 72.66 166.597 72.94 166.664 73.22C166.731 73.5 166.837 73.7467 166.984 73.96C167.117 74.1467 167.344 74.3067 167.664 74.44C167.984 74.56 168.317 74.6333 168.664 74.66C169.064 74.6867 169.411 74.58 169.704 74.34C170.011 74.1 170.237 73.8 170.384 73.44C170.544 73.0667 170.617 72.6733 170.604 72.26C170.591 71.8333 170.477 71.4467 170.264 71.1C170.104 70.8467 169.891 70.66 169.624 70.54C169.371 70.42 169.097 70.36 168.804 70.36C168.511 70.3467 168.217 70.3933 167.924 70.5C167.644 70.5933 167.411 70.7333 167.224 70.92ZM175.908 69.92C175.908 69.76 175.908 69.58 175.908 69.38C175.908 69.1667 175.915 68.9533 175.928 68.74C175.941 68.5133 175.961 68.3 175.988 68.1C176.028 67.8867 176.081 67.7 176.148 67.54C176.255 67.3 176.421 67.14 176.648 67.06C176.875 66.9667 177.121 66.9267 177.388 66.94C177.668 66.94 177.888 66.9867 178.048 67.08C178.208 67.1733 178.328 67.3 178.408 67.46C178.488 67.6067 178.535 67.78 178.548 67.98C178.575 68.1667 178.588 68.3667 178.588 68.58C178.708 68.3667 178.868 68.1933 179.068 68.06C179.281 67.9267 179.495 67.82 179.708 67.74C179.921 67.66 180.115 67.6067 180.288 67.58C180.461 67.54 180.561 67.52 180.588 67.52C180.921 67.4933 181.221 67.4867 181.488 67.5C181.768 67.5133 182.075 67.5733 182.408 67.68C182.621 67.76 182.841 67.8733 183.068 68.02C183.295 68.1533 183.495 68.3133 183.668 68.5C183.841 68.6867 183.955 68.8933 184.008 69.12C184.075 69.3333 184.048 69.56 183.928 69.8C183.741 70.1333 183.535 70.3 183.308 70.3C183.081 70.2867 182.835 70.2467 182.568 70.18C182.421 70.1533 182.248 70.0933 182.048 70C181.848 69.9067 181.675 69.8467 181.528 69.82C181.075 69.7533 180.675 69.7867 180.328 69.92C179.981 70.0533 179.681 70.2133 179.428 70.4C179.135 70.6267 178.881 70.8867 178.668 71.18V74.06C178.668 74.42 178.661 74.7933 178.648 75.18C178.648 75.5667 178.595 75.92 178.488 76.24C178.395 76.5467 178.228 76.8 177.988 77C177.761 77.1867 177.428 77.2667 176.988 77.24C176.748 77.2267 176.535 77.1133 176.348 76.9C176.161 76.6733 176.048 76.4533 176.008 76.24C175.981 76.04 175.961 75.8 175.948 75.52C175.935 75.24 175.921 74.9467 175.908 74.64C175.908 74.3333 175.908 74.0267 175.908 73.72C175.908 73.4 175.908 73.1067 175.908 72.84V69.92ZM201.369 68.96C201.395 69.4 201.389 69.8533 201.349 70.32C201.322 70.7867 201.275 71.24 201.209 71.68C201.075 72.44 200.829 73.18 200.469 73.9C200.109 74.62 199.582 75.2333 198.889 75.74C198.169 76.2733 197.349 76.64 196.429 76.84C195.509 77.0267 194.595 77.14 193.689 77.18C193.382 77.2067 193.069 77.2133 192.749 77.2C192.442 77.2 192.142 77.1667 191.849 77.1C191.609 77.06 191.429 76.9867 191.309 76.88C191.242 76.84 191.189 76.7867 191.149 76.72C191.109 76.6533 191.075 76.5867 191.049 76.52C191.009 76.4533 190.975 76.3867 190.949 76.32C190.935 76.24 190.915 76.16 190.889 76.08C190.875 76.0133 190.862 75.9533 190.849 75.9C190.849 75.8333 190.849 75.7733 190.849 75.72V64.3C190.849 64.2067 190.849 64.12 190.849 64.04C190.849 63.96 190.862 63.88 190.889 63.8C190.915 63.6133 190.955 63.46 191.009 63.34C191.062 63.18 191.135 63.0667 191.229 63C191.309 62.9333 191.389 62.8867 191.469 62.86C191.549 62.82 191.622 62.7867 191.689 62.76C191.769 62.7333 191.849 62.7333 191.929 62.76C192.022 62.7733 192.122 62.7533 192.229 62.7L195.569 62.78C196.449 62.8067 197.235 63.0133 197.929 63.4C198.622 63.7733 199.215 64.2533 199.709 64.84C200.202 65.4267 200.589 66.0867 200.869 66.82C201.149 67.54 201.315 68.2533 201.369 68.96ZM197.649 72.76C197.902 72.36 198.089 71.9 198.209 71.38C198.329 70.86 198.382 70.3333 198.369 69.8C198.355 69.2533 198.282 68.7267 198.149 68.22C198.015 67.7 197.829 67.24 197.589 66.84C197.402 66.5467 197.162 66.3067 196.869 66.12C196.575 65.9333 196.249 65.7933 195.889 65.7C195.529 65.5933 195.142 65.52 194.729 65.48C194.329 65.44 193.935 65.42 193.549 65.42C193.562 65.8067 193.569 66.18 193.569 66.54C193.569 66.9 193.569 67.28 193.569 67.68C193.555 68.16 193.549 68.6267 193.549 69.08C193.549 69.5333 193.549 69.9733 193.549 70.4V74.48C193.962 74.4667 194.355 74.4467 194.729 74.42C195.115 74.38 195.482 74.3 195.829 74.18C196.189 74.06 196.515 73.8933 196.809 73.68C197.115 73.4533 197.395 73.1467 197.649 72.76ZM205.537 69.42C205.537 69.7933 205.537 70.2133 205.537 70.68C205.55 71.1467 205.557 71.6333 205.557 72.14C205.557 72.6333 205.557 73.1267 205.557 73.62C205.557 74.1 205.55 74.5467 205.537 74.96C205.523 75.16 205.503 75.38 205.477 75.62C205.45 75.8467 205.397 76.06 205.317 76.26C205.237 76.46 205.11 76.6267 204.937 76.76C204.777 76.88 204.557 76.9333 204.277 76.92C203.863 76.8933 203.563 76.7133 203.377 76.38C203.203 76.0467 203.103 75.58 203.077 74.98C203.077 74.6733 203.07 74.32 203.057 73.92C203.057 73.52 203.05 73.1133 203.037 72.7C203.037 72.2867 203.037 71.8867 203.037 71.5C203.037 71.1 203.037 70.74 203.037 70.42C203.037 70.2333 203.03 70.0067 203.017 69.74C203.017 69.4733 203.023 69.2 203.037 68.92C203.05 68.64 203.083 68.3733 203.137 68.12C203.19 67.8533 203.277 67.6333 203.397 67.46C203.49 67.3533 203.623 67.2733 203.797 67.22C203.97 67.1533 204.15 67.12 204.337 67.12C204.537 67.12 204.723 67.1533 204.897 67.22C205.083 67.2867 205.217 67.38 205.297 67.5C205.35 67.58 205.39 67.6933 205.417 67.84C205.443 67.9867 205.463 68.1533 205.477 68.34C205.503 68.5133 205.517 68.7 205.517 68.9C205.53 69.0867 205.537 69.26 205.537 69.42ZM204.777 65.38C204.363 65.4867 204.017 65.4467 203.737 65.26C203.47 65.06 203.303 64.7667 203.237 64.38C203.183 64.1 203.203 63.8533 203.297 63.64C203.39 63.4267 203.53 63.2667 203.717 63.16C203.903 63.04 204.117 62.9867 204.357 63C204.597 63.0133 204.837 63.1067 205.077 63.28C205.303 63.44 205.463 63.6267 205.557 63.84C205.663 64.0533 205.697 64.26 205.657 64.46C205.63 64.66 205.543 64.8467 205.397 65.02C205.25 65.18 205.043 65.3 204.777 65.38ZM207.529 69.86C207.529 69.5533 207.522 69.2267 207.509 68.88C207.509 68.5333 207.569 68.22 207.689 67.94C207.796 67.6867 207.969 67.5067 208.209 67.4C208.462 67.28 208.709 67.2533 208.949 67.32C209.189 67.36 209.376 67.4333 209.509 67.54C209.642 67.6467 209.736 67.7733 209.789 67.92C209.856 68.0533 209.896 68.2133 209.909 68.4C209.922 68.5733 209.936 68.7467 209.949 68.92C210.082 68.68 210.249 68.4867 210.449 68.34C210.649 68.1933 210.856 68.0733 211.069 67.98C211.282 67.8867 211.482 67.82 211.669 67.78C211.869 67.74 212.022 67.72 212.129 67.72C212.636 67.72 213.136 67.8333 213.629 68.06C214.136 68.2733 214.556 68.58 214.889 68.98C215.076 69.22 215.216 69.4733 215.309 69.74C215.416 69.9933 215.489 70.26 215.529 70.54C215.582 70.82 215.616 71.1067 215.629 71.4C215.642 71.68 215.656 71.9667 215.669 72.26C215.736 73.1133 215.736 73.96 215.669 74.8C215.656 74.9733 215.649 75.1733 215.649 75.4C215.649 75.6267 215.629 75.8533 215.589 76.08C215.562 76.2933 215.502 76.4867 215.409 76.66C215.329 76.82 215.189 76.92 214.989 76.96C214.709 77.0267 214.476 77.04 214.289 77C214.116 76.9733 213.976 76.9133 213.869 76.82C213.762 76.7267 213.682 76.6067 213.629 76.46C213.576 76.3133 213.529 76.1467 213.489 75.96C213.462 75.8133 213.436 75.6467 213.409 75.46C213.396 75.26 213.382 75.06 213.369 74.86C213.369 74.66 213.362 74.4667 213.349 74.28C213.349 74.08 213.349 73.9 213.349 73.74C213.349 73.4867 213.342 73.2067 213.329 72.9C213.316 72.5933 213.316 72.3067 213.329 72.04C213.329 71.4133 213.162 70.94 212.829 70.62C212.509 70.2867 212.069 70.1467 211.509 70.2C211.082 70.2533 210.709 70.4267 210.389 70.72C210.069 71 209.916 71.3667 209.929 71.82C209.929 71.9933 209.929 72.1533 209.929 72.3C209.929 72.4467 209.922 72.5933 209.909 72.74C209.909 72.8867 209.909 73.0467 209.909 73.22C209.909 73.3933 209.909 73.5867 209.909 73.8C209.909 74.24 209.909 74.7067 209.909 75.2C209.909 75.68 209.849 76.0733 209.729 76.38C209.622 76.7 209.442 76.92 209.189 77.04C208.936 77.16 208.636 77.1267 208.289 76.94C208.142 76.86 208.022 76.7533 207.929 76.62C207.849 76.4733 207.782 76.32 207.729 76.16C207.689 76 207.662 75.84 207.649 75.68C207.636 75.5067 207.622 75.3467 207.609 75.2C207.569 74.76 207.542 74.3533 207.529 73.98C207.529 73.5933 207.529 73.18 207.529 72.74V69.86ZM224.253 74.26C224.413 74.22 224.573 74.1933 224.733 74.18C224.907 74.1667 225.06 74.1867 225.193 74.24C225.34 74.2933 225.46 74.3867 225.553 74.52C225.647 74.64 225.693 74.8133 225.693 75.04C225.693 75.2 225.653 75.3533 225.573 75.5C225.493 75.6467 225.393 75.78 225.273 75.9C225.153 76.02 225.02 76.1267 224.873 76.22C224.727 76.3 224.587 76.3667 224.453 76.42C224.067 76.5933 223.62 76.7267 223.113 76.82C222.62 76.9133 222.107 76.9467 221.573 76.92C220.853 76.8933 220.16 76.7533 219.493 76.5C218.84 76.2333 218.327 75.8 217.953 75.2C217.607 74.6133 217.4 73.96 217.333 73.24C217.267 72.52 217.3 71.84 217.433 71.2C217.58 70.4267 217.827 69.8 218.173 69.32C218.533 68.8267 218.96 68.4333 219.453 68.14C220.053 67.7933 220.727 67.6133 221.473 67.6C222.22 67.5867 222.933 67.7333 223.613 68.04C224.067 68.24 224.473 68.5133 224.833 68.86C225.193 69.1933 225.467 69.6 225.653 70.08C225.707 70.2 225.747 70.3467 225.773 70.52C225.813 70.6933 225.84 70.88 225.853 71.08C225.867 71.2667 225.867 71.4533 225.853 71.64C225.84 71.8267 225.807 71.9933 225.753 72.14C225.673 72.38 225.573 72.5667 225.453 72.7C225.333 72.8333 225.18 72.9333 224.993 73C224.807 73.0667 224.58 73.1133 224.313 73.14C224.06 73.1533 223.753 73.1667 223.393 73.18C223.073 73.1933 222.773 73.2 222.493 73.2C222.213 73.2 221.927 73.2 221.633 73.2C221.34 73.1867 221.033 73.18 220.713 73.18C220.407 73.1667 220.06 73.1533 219.673 73.14C219.633 73.4067 219.667 73.64 219.773 73.84C219.893 74.0267 220.053 74.1867 220.253 74.32C220.453 74.44 220.68 74.5333 220.933 74.6C221.187 74.6667 221.433 74.7067 221.673 74.72C222.127 74.7467 222.56 74.7133 222.973 74.62C223.387 74.5133 223.813 74.3933 224.253 74.26ZM223.393 70.38C223.14 70.0867 222.873 69.8733 222.593 69.74C222.38 69.6467 222.153 69.6067 221.913 69.62C221.687 69.62 221.467 69.6533 221.253 69.72C220.867 69.8133 220.54 70.0133 220.273 70.32C220.247 70.3467 220.2 70.4133 220.133 70.52C220.067 70.6133 220 70.7133 219.933 70.82C219.88 70.9267 219.84 71.0267 219.813 71.12C219.787 71.2133 219.8 71.26 219.853 71.26H223.773C223.76 71.0733 223.727 70.92 223.673 70.8C223.62 70.6667 223.527 70.5267 223.393 70.38ZM227.49 69.92C227.49 69.76 227.49 69.58 227.49 69.38C227.49 69.1667 227.497 68.9533 227.51 68.74C227.523 68.5133 227.543 68.3 227.57 68.1C227.61 67.8867 227.663 67.7 227.73 67.54C227.837 67.3 228.003 67.14 228.23 67.06C228.457 66.9667 228.703 66.9267 228.97 66.94C229.25 66.94 229.47 66.9867 229.63 67.08C229.79 67.1733 229.91 67.3 229.99 67.46C230.07 67.6067 230.117 67.78 230.13 67.98C230.157 68.1667 230.17 68.3667 230.17 68.58C230.29 68.3667 230.45 68.1933 230.65 68.06C230.863 67.9267 231.077 67.82 231.29 67.74C231.503 67.66 231.697 67.6067 231.87 67.58C232.043 67.54 232.143 67.52 232.17 67.52C232.503 67.4933 232.803 67.4867 233.07 67.5C233.35 67.5133 233.657 67.5733 233.99 67.68C234.203 67.76 234.423 67.8733 234.65 68.02C234.877 68.1533 235.077 68.3133 235.25 68.5C235.423 68.6867 235.537 68.8933 235.59 69.12C235.657 69.3333 235.63 69.56 235.51 69.8C235.323 70.1333 235.117 70.3 234.89 70.3C234.663 70.2867 234.417 70.2467 234.15 70.18C234.003 70.1533 233.83 70.0933 233.63 70C233.43 69.9067 233.257 69.8467 233.11 69.82C232.657 69.7533 232.257 69.7867 231.91 69.92C231.563 70.0533 231.263 70.2133 231.01 70.4C230.717 70.6267 230.463 70.8867 230.25 71.18V74.06C230.25 74.42 230.243 74.7933 230.23 75.18C230.23 75.5667 230.177 75.92 230.07 76.24C229.977 76.5467 229.81 76.8 229.57 77C229.343 77.1867 229.01 77.2667 228.57 77.24C228.33 77.2267 228.117 77.1133 227.93 76.9C227.743 76.6733 227.63 76.4533 227.59 76.24C227.563 76.04 227.543 75.8 227.53 75.52C227.517 75.24 227.503 74.9467 227.49 74.64C227.49 74.3333 227.49 74.0267 227.49 73.72C227.49 73.4 227.49 73.1067 227.49 72.84V69.92ZM238.956 67.96C239.396 67.7467 239.856 67.5933 240.336 67.5C240.816 67.4067 241.29 67.3867 241.756 67.44C242.236 67.4933 242.696 67.62 243.136 67.82C243.59 68.02 244.003 68.3 244.376 68.66C244.683 68.9667 244.95 69.34 245.176 69.78C245.403 70.2067 245.57 70.6267 245.676 71.04C245.903 71.7733 245.936 72.5133 245.776 73.26C245.616 74.0067 245.343 74.7 244.956 75.34C244.77 75.6333 244.536 75.9 244.256 76.14C243.99 76.3667 243.703 76.5533 243.396 76.7C242.996 76.8867 242.563 77.0133 242.096 77.08C241.63 77.16 241.176 77.18 240.736 77.14C239.936 77.1 239.23 76.9 238.616 76.54C238.016 76.18 237.53 75.72 237.156 75.16C236.796 74.6 236.556 73.9667 236.436 73.26C236.33 72.54 236.376 71.8067 236.576 71.06C236.79 70.26 237.096 69.6133 237.496 69.12C237.91 68.6133 238.396 68.2267 238.956 67.96ZM239.556 70.64C239.356 70.8267 239.203 71.06 239.096 71.34C238.99 71.62 238.923 71.9133 238.896 72.22C238.87 72.5133 238.89 72.8133 238.956 73.12C239.036 73.4133 239.156 73.68 239.316 73.92C239.45 74.12 239.69 74.2867 240.036 74.42C240.383 74.5533 240.743 74.6333 241.116 74.66C241.543 74.6867 241.916 74.5733 242.236 74.32C242.556 74.0533 242.796 73.7267 242.956 73.34C243.13 72.9533 243.21 72.5333 243.196 72.08C243.183 71.6267 243.063 71.2133 242.836 70.84C242.676 70.5733 242.45 70.38 242.156 70.26C241.876 70.1267 241.576 70.06 241.256 70.06C240.95 70.0467 240.643 70.0933 240.336 70.2C240.03 70.2933 239.77 70.44 239.556 70.64Z" fill="#1A1A1A"/>
<rect opacity="0.01" x="15" y="59" width="24" height="24" fill="white"/>
<path d="M34 72.5C34.5523 72.5 35 72.0523 35 71.5C35 70.9477 34.5523 70.5 34 70.5V72.5ZM20 70.5C19.4477 70.5 19 70.9477 19 71.5C19 72.0523 19.4477 72.5 20 72.5V70.5ZM20.7071 70.7929C20.3166 70.4024 19.6834 70.4024 19.2929 70.7929C18.9024 71.1834 18.9024 71.8166 19.2929 72.2071L20.7071 70.7929ZM24.7929 77.7071C25.1834 78.0976 25.8166 78.0976 26.2071 77.7071C26.5976 77.3166 26.5976 76.6834 26.2071 76.2929L24.7929 77.7071ZM19.2929 70.7929C18.9024 71.1834 18.9024 71.8166 19.2929 72.2071C19.6834 72.5976 20.3166 72.5976 20.7071 72.2071L19.2929 70.7929ZM26.2071 66.7071C26.5976 66.3166 26.5976 65.6834 26.2071 65.2929C25.8166 64.9024 25.1834 64.9024 24.7929 65.2929L26.2071 66.7071ZM34 70.5H20V72.5H34V70.5ZM19.2929 72.2071L24.7929 77.7071L26.2071 76.2929L20.7071 70.7929L19.2929 72.2071ZM20.7071 72.2071L26.2071 66.7071L24.7929 65.2929L19.2929 70.7929L20.7071 72.2071Z" fill="black"/>
<rect opacity="0.01" width="375" height="40" fill="white"/>
<path fill-rule="evenodd" clip-rule="evenodd" d="M329.844 14H346.51C347.217 14 347.896 14.281 348.396 14.7811C348.896 15.2813 349.177 15.9597 349.177 16.667V22.667V22.667C349.177 23.3743 348.896 24.0527 348.396 24.5529C347.896 25.053 347.217 25.334 346.51 25.334H329.844C328.371 25.334 327.177 24.1399 327.177 22.667V16.667V16.667C327.177 15.1941 328.371 14 329.844 14Z" stroke="black" stroke-opacity="0.35"/>
<path d="M350.177 18V22C350.982 21.6612 351.505 20.8731 351.505 20C351.505 19.1269 350.982 18.3388 350.177 18" fill="black" fill-opacity="0.4"/>
<path d="M330.51 16H345.843C346.197 15.9997 346.536 16.1402 346.787 16.3904C347.037 16.6407 347.177 16.9801 347.177 17.334V22.001C347.177 22.7372 346.58 23.334 345.844 23.334H330.51C330.156 23.334 329.817 23.1934 329.567 22.9432C329.317 22.693 329.177 22.3537 329.177 22V17.333C329.177 16.5968 329.774 16 330.51 16Z" fill="black"/>
<path fill-rule="evenodd" clip-rule="evenodd" d="M314.507 16.277C316.723 16.277 318.854 17.1283 320.46 18.655C320.58 18.7736 320.773 18.7736 320.893 18.655L322.049 17.488C322.109 17.4271 322.143 17.3447 322.142 17.259C322.14 17.173 322.104 17.0913 322.042 17.032C317.826 12.9938 311.178 12.9938 306.962 17.032C306.9 17.0913 306.864 17.173 306.862 17.259C306.861 17.3447 306.895 17.4271 306.955 17.488L308.111 18.655C308.231 18.7736 308.424 18.7736 308.544 18.655C310.15 17.1281 312.282 16.2768 314.498 16.277H314.507ZM314.507 20.077C315.725 20.077 316.899 20.5297 317.801 21.347C317.923 21.4628 318.115 21.4602 318.234 21.341L319.389 20.174C319.45 20.113 319.484 20.0301 319.483 19.944C319.482 19.8573 319.446 19.7748 319.383 19.715C316.635 17.1587 312.379 17.1587 309.631 19.715C309.568 19.7748 309.532 19.8573 309.531 19.944C309.53 20.0301 309.564 20.113 309.625 20.174L310.779 21.341C310.898 21.4602 311.09 21.4628 311.212 21.347C312.114 20.5301 313.287 20.0775 314.504 20.077H314.507ZM316.82 22.63C316.822 22.7167 316.788 22.8003 316.726 22.861L314.739 24.877C314.68 24.9364 314.6 24.9699 314.517 24.97C314.433 24.97 314.353 24.9365 314.295 24.877L312.295 22.861C312.233 22.8003 312.199 22.7167 312.201 22.63C312.202 22.5442 312.238 22.4625 312.301 22.404C313.577 21.3254 315.444 21.3254 316.72 22.404C316.783 22.4625 316.819 22.5442 316.82 22.63Z" fill="black"/>
<path fill-rule="evenodd" clip-rule="evenodd" d="M300.844 14H299.844C299.292 14 298.844 14.4477 298.844 15V23.667C298.844 24.2193 299.292 24.667 299.844 24.667H300.844C301.396 24.667 301.844 24.2193 301.844 23.667V15C301.844 14.4477 301.396 14 300.844 14ZM295.177 16.333H296.177C296.729 16.333 297.177 16.7807 297.177 17.333V23.666C297.177 24.2183 296.729 24.666 296.177 24.666H295.177C294.625 24.666 294.177 24.2183 294.177 23.666V17.333C294.177 16.7807 294.625 16.333 295.177 16.333ZM291.511 18.666H290.511H290.51C289.958 18.6666 289.511 19.1141 289.511 19.666V23.666C289.511 24.2183 289.959 24.666 290.511 24.666H291.511C292.063 24.666 292.511 24.2183 292.511 23.666V19.666C292.511 19.1137 292.063 18.666 291.511 18.666ZM286.844 20.666H285.844C285.292 20.666 284.844 21.1137 284.844 21.666V23.666C284.844 24.2183 285.292 24.666 285.844 24.666H286.844C287.396 24.666 287.844 24.2183 287.844 23.666V21.666C287.844 21.1137 287.396 20.666 286.844 20.666Z" fill="black"/>
<path fill-rule="evenodd" clip-rule="evenodd" d="M27.61 25.349C30.119 25.349 31.61 23.387 31.61 20.065C31.6467 18.9833 31.4057 17.9102 30.91 16.948C30.3028 15.7191 29.0341 14.9577 27.664 15C26.7082 14.9346 25.7686 15.2719 25.0726 15.9302C24.3766 16.5886 23.9877 17.5081 24 18.466C23.9659 19.3403 24.2958 20.1895 24.9112 20.8114C25.5267 21.4333 26.3724 21.7721 27.247 21.747C28.3152 21.7987 29.315 21.2212 29.804 20.27H29.92C29.92 22.526 29.066 23.87 27.62 23.87C26.8345 23.9106 26.1219 23.412 25.891 22.66H24.137C24.4532 24.3025 25.9407 25.4542 27.61 25.349ZM27.672 20.349C27.1511 20.371 26.6447 20.1739 26.2757 19.8055C25.9068 19.437 25.7088 18.931 25.73 18.41C25.7375 17.3331 26.6165 16.4661 27.6935 16.4735C28.7705 16.481 29.6375 17.3601 29.63 18.437C29.6399 18.955 29.435 19.454 29.0639 19.8154C28.6927 20.1769 28.1885 20.3686 27.671 20.345L27.672 20.349ZM35.776 22.9788C35.7811 23.5734 35.3046 24.0603 34.71 24.068L34.709 24.064C34.4184 24.0766 34.1357 23.9679 33.9284 23.7638C33.7211 23.5598 33.608 23.2788 33.616 22.988C33.616 22.3934 34.0968 21.9107 34.6914 21.9081C35.286 21.9056 35.7708 22.3842 35.776 22.9788ZM34.71 18.941C35.0006 18.9554 35.2841 18.8477 35.4918 18.6439C35.6995 18.4402 35.8127 18.1589 35.804 17.868C35.7861 17.277 35.3018 16.8071 34.7105 16.8071C34.1192 16.8071 33.6349 17.277 33.617 17.868C33.6106 18.1575 33.7244 18.4366 33.9313 18.6392C34.1382 18.8417 34.4197 18.9495 34.709 18.937L34.71 18.941ZM44.31 25.11H42.622V23.271H37.803V21.699C38.692 20.065 40.08 17.871 41.823 15.246H44.311V21.781H45.643V23.271H44.31V25.11ZM39.437 21.719C40.585 19.696 41.611 18.075 42.554 16.681H42.654V21.822H39.437V21.719ZM51.452 25.11H49.688L49.687 17.027H49.571L47.117 18.75V17.05L49.695 15.246H51.452V25.11Z" fill="black"/>
</svg>
