<svg width="345" height="64" viewBox="0 0 345 64" fill="none" xmlns="http://www.w3.org/2000/svg">
<rect width="345" height="64" rx="15" fill="#F3F4F5"/>
<g opacity="0.01">
<rect x="305" y="20" width="24" height="24" fill="#F7F9FC"/>
</g>
<path d="M314.22 36.2197C313.927 36.5126 313.927 36.9874 314.22 37.2803C314.513 37.5732 314.987 37.5732 315.28 37.2803L320.28 32.2803C320.573 31.9874 320.573 31.5126 320.28 31.2197L315.28 26.2197C314.987 25.9268 314.513 25.9268 314.22 26.2197C313.927 26.5126 313.927 26.9874 314.22 27.2803L318.689 31.75L314.22 36.2197Z" fill="black"/>
<path d="M63.994 34.648C64.1153 34.9187 64.12 35.1847 64.008 35.446C63.896 35.698 63.7187 35.9313 63.476 36.146C63.2333 36.3607 62.9533 36.5473 62.636 36.706C62.328 36.8647 62.034 36.9767 61.754 37.042C61.446 37.1073 61.1193 37.1353 60.774 37.126C60.438 37.126 60.0973 37.084 59.752 37C59.416 36.9253 59.0847 36.8133 58.758 36.664C58.4407 36.5053 58.1467 36.314 57.876 36.09C57.5493 35.8193 57.2927 35.4973 57.106 35.124C56.9287 34.7413 56.798 34.3353 56.714 33.906C56.63 33.4767 56.5833 33.0473 56.574 32.618C56.574 32.1793 56.588 31.7687 56.616 31.386C56.644 31.0407 56.714 30.6813 56.826 30.308C56.938 29.9347 57.092 29.5707 57.288 29.216C57.4933 28.852 57.736 28.516 58.016 28.208C58.3053 27.9 58.6413 27.6387 59.024 27.424C59.3133 27.256 59.6353 27.144 59.99 27.088C60.354 27.0227 60.718 27.0087 61.082 27.046C61.4553 27.074 61.8053 27.1533 62.132 27.284C62.468 27.4053 62.7527 27.5733 62.986 27.788C63.1353 27.9187 63.2893 28.1007 63.448 28.334C63.616 28.5673 63.7373 28.8053 63.812 29.048C63.8867 29.2907 63.8867 29.5193 63.812 29.734C63.7467 29.9393 63.56 30.0793 63.252 30.154C63.1213 30.1913 63.0047 30.2007 62.902 30.182C62.7993 30.154 62.706 30.112 62.622 30.056C62.538 29.9907 62.4587 29.916 62.384 29.832C62.3093 29.748 62.2393 29.664 62.174 29.58C61.95 29.3093 61.6887 29.1273 61.39 29.034C61.0913 28.9313 60.7927 28.908 60.494 28.964C60.2047 29.0107 59.9293 29.132 59.668 29.328C59.416 29.5147 59.22 29.7573 59.08 30.056C58.9307 30.3733 58.8093 30.7233 58.716 31.106C58.632 31.4793 58.5853 31.862 58.576 32.254C58.5667 32.6367 58.5993 33.01 58.674 33.374C58.758 33.738 58.898 34.06 59.094 34.34C59.2433 34.564 59.4253 34.746 59.64 34.886C59.864 35.026 60.102 35.124 60.354 35.18C60.606 35.236 60.858 35.2453 61.11 35.208C61.3713 35.1707 61.6233 35.0867 61.866 34.956C61.9407 34.9187 62.02 34.8673 62.104 34.802C62.1973 34.7273 62.2907 34.6527 62.384 34.578C62.4773 34.5033 62.5707 34.4333 62.664 34.368C62.7667 34.3027 62.874 34.256 62.986 34.228C63.154 34.172 63.336 34.1767 63.532 34.242C63.7373 34.3073 63.8913 34.4427 63.994 34.648ZM65.2283 32.044C65.2283 31.932 65.2283 31.806 65.2283 31.666C65.2283 31.5167 65.233 31.3673 65.2423 31.218C65.2516 31.0593 65.2656 30.91 65.2843 30.77C65.3123 30.6207 65.3496 30.49 65.3963 30.378C65.471 30.21 65.5876 30.098 65.7463 30.042C65.905 29.9767 66.0776 29.9487 66.2643 29.958C66.4603 29.958 66.6143 29.9907 66.7263 30.056C66.8383 30.1213 66.9223 30.21 66.9783 30.322C67.0343 30.4247 67.067 30.546 67.0763 30.686C67.095 30.8167 67.1043 30.9567 67.1043 31.106C67.1883 30.9567 67.3003 30.8353 67.4403 30.742C67.5896 30.6487 67.739 30.574 67.8883 30.518C68.0376 30.462 68.173 30.4247 68.2943 30.406C68.4156 30.378 68.4856 30.364 68.5043 30.364C68.7376 30.3453 68.9476 30.3407 69.1343 30.35C69.3303 30.3593 69.545 30.4013 69.7783 30.476C69.9276 30.532 70.0816 30.6113 70.2403 30.714C70.399 30.8073 70.539 30.9193 70.6603 31.05C70.7816 31.1807 70.861 31.3253 70.8983 31.484C70.945 31.6333 70.9263 31.792 70.8423 31.96C70.7116 32.1933 70.567 32.31 70.4083 32.31C70.2496 32.3007 70.077 32.2727 69.8903 32.226C69.7876 32.2073 69.6663 32.1653 69.5263 32.1C69.3863 32.0347 69.265 31.9927 69.1623 31.974C68.845 31.9273 68.565 31.9507 68.3223 32.044C68.0796 32.1373 67.8696 32.2493 67.6923 32.38C67.487 32.5387 67.3096 32.7207 67.1603 32.926V34.942C67.1603 35.194 67.1556 35.4553 67.1463 35.726C67.1463 35.9967 67.109 36.244 67.0343 36.468C66.969 36.6827 66.8523 36.86 66.6843 37C66.5256 37.1307 66.2923 37.1867 65.9843 37.168C65.8163 37.1587 65.667 37.0793 65.5363 36.93C65.4056 36.7713 65.3263 36.6173 65.2983 36.468C65.2796 36.328 65.2656 36.16 65.2563 35.964C65.247 35.768 65.2376 35.5627 65.2283 35.348C65.2283 35.1333 65.2283 34.9187 65.2283 34.704C65.2283 34.48 65.2283 34.2747 65.2283 34.088V32.044ZM76.0603 35.082C76.1723 35.054 76.2843 35.0353 76.3963 35.026C76.5176 35.0167 76.6249 35.0307 76.7183 35.068C76.8209 35.1053 76.9049 35.1707 76.9703 35.264C77.0356 35.348 77.0683 35.4693 77.0683 35.628C77.0683 35.74 77.0403 35.8473 76.9843 35.95C76.9283 36.0527 76.8583 36.146 76.7743 36.23C76.6903 36.314 76.5969 36.3887 76.4943 36.454C76.3916 36.51 76.2936 36.5567 76.2003 36.594C75.9296 36.7153 75.6169 36.8087 75.2623 36.874C74.9169 36.9393 74.5576 36.9627 74.1843 36.944C73.6803 36.9253 73.1949 36.8273 72.7283 36.65C72.2709 36.4633 71.9116 36.16 71.6503 35.74C71.4076 35.3293 71.2629 34.872 71.2163 34.368C71.1696 33.864 71.1929 33.388 71.2863 32.94C71.3889 32.3987 71.5616 31.96 71.8043 31.624C72.0563 31.2787 72.3549 31.0033 72.7003 30.798C73.1203 30.5553 73.5916 30.4293 74.1143 30.42C74.6369 30.4107 75.1363 30.5133 75.6123 30.728C75.9296 30.868 76.2143 31.0593 76.4663 31.302C76.7183 31.5353 76.9096 31.82 77.0403 32.156C77.0776 32.24 77.1056 32.3427 77.1243 32.464C77.1523 32.5853 77.1709 32.716 77.1803 32.856C77.1896 32.9867 77.1896 33.1173 77.1803 33.248C77.1709 33.3787 77.1476 33.4953 77.1103 33.598C77.0543 33.766 76.9843 33.8967 76.9003 33.99C76.8163 34.0833 76.7089 34.1533 76.5783 34.2C76.4476 34.2467 76.2889 34.2793 76.1023 34.298C75.9249 34.3073 75.7103 34.3167 75.4583 34.326C75.2343 34.3353 75.0243 34.34 74.8283 34.34C74.6323 34.34 74.4316 34.34 74.2263 34.34C74.0209 34.3307 73.8063 34.326 73.5823 34.326C73.3676 34.3167 73.1249 34.3073 72.8543 34.298C72.8263 34.4847 72.8496 34.648 72.9243 34.788C73.0083 34.9187 73.1203 35.0307 73.2603 35.124C73.4003 35.208 73.5589 35.2733 73.7363 35.32C73.9136 35.3667 74.0863 35.3947 74.2542 35.404C74.5716 35.4227 74.8749 35.3993 75.1643 35.334C75.4536 35.2593 75.7523 35.1753 76.0603 35.082ZM75.4583 32.366C75.2809 32.1607 75.0943 32.0113 74.8983 31.918C74.7489 31.8527 74.5903 31.8247 74.4223 31.834C74.2636 31.834 74.1096 31.8573 73.9603 31.904C73.6896 31.9693 73.4609 32.1093 73.2743 32.324C73.2556 32.3427 73.2229 32.3893 73.1763 32.464C73.1296 32.5293 73.0829 32.5993 73.0363 32.674C72.9989 32.7487 72.9709 32.8187 72.9523 32.884C72.9336 32.9493 72.9429 32.982 72.9803 32.982H75.7243C75.7149 32.8513 75.6916 32.744 75.6543 32.66C75.6169 32.5667 75.5516 32.4687 75.4583 32.366ZM78.326 32.002C78.326 31.7873 78.3213 31.5587 78.312 31.316C78.312 31.0733 78.354 30.854 78.438 30.658C78.5126 30.4807 78.634 30.3547 78.802 30.28C78.9793 30.196 79.152 30.1773 79.32 30.224C79.488 30.252 79.6186 30.3033 79.712 30.378C79.8053 30.4527 79.8706 30.5413 79.908 30.644C79.9546 30.7373 79.9826 30.8493 79.992 30.98C80.0013 31.1013 80.0106 31.2227 80.02 31.344C80.1133 31.176 80.23 31.0407 80.37 30.938C80.51 30.8353 80.6546 30.7513 80.804 30.686C80.9533 30.6207 81.0933 30.574 81.224 30.546C81.364 30.518 81.4713 30.504 81.546 30.504C81.9006 30.504 82.2506 30.5833 82.596 30.742C82.9506 30.8913 83.2446 31.106 83.478 31.386C83.6086 31.554 83.7066 31.7313 83.772 31.918C83.8466 32.0953 83.898 32.282 83.926 32.478C83.9633 32.674 83.9866 32.8747 83.996 33.08C84.0053 33.276 84.0146 33.4767 84.024 33.682C84.0706 34.2793 84.0706 34.872 84.024 35.46C84.0146 35.5813 84.01 35.7213 84.01 35.88C84.01 36.0387 83.996 36.1973 83.968 36.356C83.9493 36.5053 83.9073 36.6407 83.842 36.762C83.786 36.874 83.688 36.944 83.548 36.972C83.352 37.0187 83.1886 37.028 83.058 37C82.9366 36.9813 82.8386 36.9393 82.764 36.874C82.6893 36.8087 82.6333 36.7247 82.596 36.622C82.5586 36.5193 82.526 36.4027 82.498 36.272C82.4793 36.1693 82.4606 36.0527 82.442 35.922C82.4326 35.782 82.4233 35.642 82.414 35.502C82.414 35.362 82.4093 35.2267 82.4 35.096C82.4 34.956 82.4 34.83 82.4 34.718C82.4 34.5407 82.3953 34.3447 82.386 34.13C82.3766 33.9153 82.3766 33.7147 82.386 33.528C82.386 33.0893 82.2693 32.758 82.036 32.534C81.812 32.3007 81.504 32.2027 81.112 32.24C80.8133 32.2773 80.552 32.3987 80.328 32.604C80.104 32.8 79.9966 33.0567 80.006 33.374C80.006 33.4953 80.006 33.6073 80.006 33.71C80.006 33.8127 80.0013 33.9153 79.992 34.018C79.992 34.1207 79.992 34.2327 79.992 34.354C79.992 34.4753 79.992 34.6107 79.992 34.76C79.992 35.068 79.992 35.3947 79.992 35.74C79.992 36.076 79.95 36.3513 79.866 36.566C79.7913 36.79 79.6653 36.944 79.488 37.028C79.3106 37.112 79.1006 37.0887 78.858 36.958C78.7553 36.902 78.6713 36.8273 78.606 36.734C78.55 36.6313 78.5033 36.524 78.466 36.412C78.438 36.3 78.4193 36.188 78.41 36.076C78.4006 35.9547 78.3913 35.8427 78.382 35.74C78.354 35.432 78.3353 35.1473 78.326 34.886C78.326 34.6153 78.326 34.326 78.326 34.018V32.002ZM90.6064 30.826C90.681 31.0033 90.6857 31.1993 90.6204 31.414C90.5644 31.6287 90.457 31.7687 90.2984 31.834C90.2144 31.8713 90.1024 31.904 89.9624 31.932C89.8224 31.9507 89.6684 31.9693 89.5004 31.988C89.3417 32.0067 89.183 32.0207 89.0244 32.03C88.8657 32.0393 88.7304 32.044 88.6184 32.044C88.6277 32.324 88.637 32.6133 88.6464 32.912C88.6557 33.2013 88.665 33.486 88.6744 33.766C88.6837 34.046 88.6884 34.3167 88.6884 34.578C88.6884 34.83 88.6837 35.0587 88.6744 35.264C88.6744 35.404 88.6744 35.5673 88.6744 35.754C88.6744 35.9313 88.6604 36.104 88.6324 36.272C88.6137 36.44 88.581 36.5893 88.5344 36.72C88.4877 36.8413 88.4177 36.9207 88.3244 36.958C88.035 37.0793 87.769 37.112 87.5264 37.056C87.293 37.0093 87.125 36.9113 87.0224 36.762C86.9477 36.6407 86.8917 36.5007 86.8544 36.342C86.817 36.174 86.789 36.006 86.7704 35.838C86.761 35.6607 86.7564 35.4927 86.7564 35.334C86.7657 35.166 86.7704 35.0213 86.7704 34.9C86.7797 34.508 86.7844 34.0647 86.7844 33.57C86.7937 33.066 86.7984 32.562 86.7984 32.058H86.5884C86.4764 32.058 86.3317 32.058 86.1544 32.058C85.9864 32.0487 85.8137 32.0347 85.6364 32.016C85.4684 31.988 85.3097 31.9553 85.1604 31.918C85.011 31.8713 84.9037 31.806 84.8384 31.722C84.7357 31.6007 84.6704 31.47 84.6424 31.33C84.6237 31.19 84.633 31.0593 84.6704 30.938C84.717 30.8073 84.787 30.6953 84.8804 30.602C84.9737 30.4993 85.081 30.434 85.2024 30.406C85.3704 30.3593 85.6084 30.336 85.9164 30.336C86.2244 30.3267 86.5137 30.3267 86.7844 30.336C86.775 30.2427 86.7704 30.154 86.7704 30.07C86.7704 29.9767 86.7657 29.888 86.7564 29.804C86.747 29.692 86.7424 29.552 86.7424 29.384C86.7424 29.2067 86.7517 29.034 86.7704 28.866C86.7984 28.6887 86.8404 28.5253 86.8964 28.376C86.9524 28.2173 87.0317 28.096 87.1344 28.012C87.2744 27.9 87.4144 27.8393 87.5544 27.83C87.7037 27.8113 87.839 27.83 87.9604 27.886C88.091 27.942 88.1984 28.026 88.2824 28.138C88.3757 28.2407 88.441 28.3573 88.4784 28.488C88.5064 28.6 88.5297 28.7353 88.5484 28.894C88.567 29.0433 88.5764 29.202 88.5764 29.37C88.5857 29.538 88.5904 29.706 88.5904 29.874C88.5904 30.042 88.5904 30.196 88.5904 30.336H88.7304C88.8704 30.336 89.0337 30.3313 89.2204 30.322C89.407 30.3127 89.589 30.3173 89.7664 30.336C89.953 30.3547 90.121 30.4013 90.2704 30.476C90.4197 30.5413 90.5317 30.658 90.6064 30.826ZM91.8064 32.044C91.8064 31.932 91.8064 31.806 91.8064 31.666C91.8064 31.5167 91.8111 31.3673 91.8204 31.218C91.8298 31.0593 91.8438 30.91 91.8624 30.77C91.8904 30.6207 91.9278 30.49 91.9744 30.378C92.0491 30.21 92.1658 30.098 92.3244 30.042C92.4831 29.9767 92.6558 29.9487 92.8424 29.958C93.0384 29.958 93.1924 29.9907 93.3044 30.056C93.4164 30.1213 93.5004 30.21 93.5564 30.322C93.6124 30.4247 93.6451 30.546 93.6544 30.686C93.6731 30.8167 93.6824 30.9567 93.6824 31.106C93.7664 30.9567 93.8784 30.8353 94.0184 30.742C94.1678 30.6487 94.3171 30.574 94.4664 30.518C94.6158 30.462 94.7511 30.4247 94.8724 30.406C94.9938 30.378 95.0638 30.364 95.0824 30.364C95.3158 30.3453 95.5258 30.3407 95.7124 30.35C95.9084 30.3593 96.1231 30.4013 96.3564 30.476C96.5058 30.532 96.6598 30.6113 96.8184 30.714C96.9771 30.8073 97.1171 30.9193 97.2384 31.05C97.3598 31.1807 97.4391 31.3253 97.4764 31.484C97.5231 31.6333 97.5044 31.792 97.4204 31.96C97.2898 32.1933 97.1451 32.31 96.9864 32.31C96.8278 32.3007 96.6551 32.2727 96.4684 32.226C96.3658 32.2073 96.2444 32.1653 96.1044 32.1C95.9644 32.0347 95.8431 31.9927 95.7404 31.974C95.4231 31.9273 95.1431 31.9507 94.9004 32.044C94.6578 32.1373 94.4478 32.2493 94.2704 32.38C94.0651 32.5387 93.8878 32.7207 93.7384 32.926V34.942C93.7384 35.194 93.7338 35.4553 93.7244 35.726C93.7244 35.9967 93.6871 36.244 93.6124 36.468C93.5471 36.6827 93.4304 36.86 93.2624 37C93.1038 37.1307 92.8704 37.1867 92.5624 37.168C92.3944 37.1587 92.2451 37.0793 92.1144 36.93C91.9838 36.7713 91.9044 36.6173 91.8764 36.468C91.8578 36.328 91.8438 36.16 91.8344 35.964C91.8251 35.768 91.8158 35.5627 91.8064 35.348C91.8064 35.1333 91.8064 34.9187 91.8064 34.704C91.8064 34.48 91.8064 34.2747 91.8064 34.088V32.044ZM99.8328 30.672C100.141 30.5227 100.463 30.4153 100.799 30.35C101.135 30.2847 101.466 30.2707 101.793 30.308C102.129 30.3453 102.451 30.434 102.759 30.574C103.076 30.714 103.365 30.91 103.627 31.162C103.841 31.3767 104.028 31.638 104.187 31.946C104.345 32.2447 104.462 32.5387 104.537 32.828C104.695 33.3413 104.719 33.8593 104.607 34.382C104.495 34.9047 104.303 35.39 104.033 35.838C103.902 36.0433 103.739 36.23 103.543 36.398C103.356 36.5567 103.155 36.6873 102.941 36.79C102.661 36.9207 102.357 37.0093 102.031 37.056C101.704 37.112 101.387 37.126 101.079 37.098C100.519 37.07 100.024 36.93 99.5948 36.678C99.1748 36.426 98.8341 36.104 98.5728 35.712C98.3208 35.32 98.1528 34.8767 98.0688 34.382C97.9941 33.878 98.0268 33.3647 98.1668 32.842C98.3161 32.282 98.5308 31.8293 98.8108 31.484C99.1001 31.1293 99.4408 30.8587 99.8328 30.672ZM100.253 32.548C100.113 32.6787 100.005 32.842 99.9308 33.038C99.8561 33.234 99.8095 33.4393 99.7908 33.654C99.7721 33.8593 99.7861 34.0693 99.8328 34.284C99.8888 34.4893 99.9728 34.676 100.085 34.844C100.178 34.984 100.346 35.1007 100.589 35.194C100.831 35.2873 101.083 35.3433 101.345 35.362C101.643 35.3807 101.905 35.3013 102.129 35.124C102.353 34.9373 102.521 34.7087 102.633 34.438C102.754 34.1673 102.81 33.8733 102.801 33.556C102.791 33.2387 102.707 32.9493 102.549 32.688C102.437 32.5013 102.278 32.366 102.073 32.282C101.877 32.1887 101.667 32.142 101.443 32.142C101.228 32.1327 101.013 32.1653 100.799 32.24C100.584 32.3053 100.402 32.408 100.253 32.548ZM113.797 27.214C113.974 27.1673 114.128 27.1627 114.259 27.2C114.399 27.228 114.516 27.2887 114.609 27.382C114.712 27.4753 114.786 27.592 114.833 27.732C114.889 27.872 114.917 28.026 114.917 28.194C114.926 28.6607 114.926 29.0247 114.917 29.286C114.917 29.5473 114.917 29.776 114.917 29.972V34.27C114.917 34.774 114.917 35.194 114.917 35.53C114.917 35.866 114.898 36.1413 114.861 36.356C114.833 36.5613 114.777 36.7153 114.693 36.818C114.618 36.9207 114.502 36.9907 114.343 37.028C114.184 37.0747 113.974 37.098 113.713 37.098C113.461 37.098 113.144 37.098 112.761 37.098C111.753 37.098 110.955 36.86 110.367 36.384C109.788 35.908 109.48 35.152 109.443 34.116C109.424 33.668 109.48 33.2573 109.611 32.884C109.742 32.5107 109.933 32.1933 110.185 31.932C110.446 31.6613 110.764 31.456 111.137 31.316C111.52 31.1667 111.954 31.0967 112.439 31.106H113.209V28.6C113.209 28.4507 113.209 28.306 113.209 28.166C113.209 28.0167 113.223 27.8813 113.251 27.76C113.279 27.6293 113.335 27.5173 113.419 27.424C113.503 27.3307 113.629 27.2607 113.797 27.214ZM111.361 34.984C111.557 35.2547 111.912 35.404 112.425 35.432C112.528 35.4413 112.626 35.446 112.719 35.446C112.812 35.4367 112.896 35.4227 112.971 35.404C113.055 35.3947 113.134 35.3807 113.209 35.362V32.772C112.882 32.716 112.584 32.6833 112.313 32.674C112.052 32.6553 111.79 32.7487 111.529 32.954C111.389 33.066 111.282 33.2107 111.207 33.388C111.132 33.556 111.09 33.738 111.081 33.934C111.072 34.1207 111.09 34.3073 111.137 34.494C111.184 34.6807 111.258 34.844 111.361 34.984ZM120.89 35.082C121.002 35.054 121.114 35.0353 121.226 35.026C121.348 35.0167 121.455 35.0307 121.548 35.068C121.651 35.1053 121.735 35.1707 121.8 35.264C121.866 35.348 121.898 35.4693 121.898 35.628C121.898 35.74 121.87 35.8473 121.814 35.95C121.758 36.0527 121.688 36.146 121.604 36.23C121.52 36.314 121.427 36.3887 121.324 36.454C121.222 36.51 121.124 36.5567 121.03 36.594C120.76 36.7153 120.447 36.8087 120.092 36.874C119.747 36.9393 119.388 36.9627 119.014 36.944C118.51 36.9253 118.025 36.8273 117.558 36.65C117.101 36.4633 116.742 36.16 116.48 35.74C116.238 35.3293 116.093 34.872 116.046 34.368C116 33.864 116.023 33.388 116.116 32.94C116.219 32.3987 116.392 31.96 116.634 31.624C116.886 31.2787 117.185 31.0033 117.53 30.798C117.95 30.5553 118.422 30.4293 118.944 30.42C119.467 30.4107 119.966 30.5133 120.442 30.728C120.76 30.868 121.044 31.0593 121.296 31.302C121.548 31.5353 121.74 31.82 121.87 32.156C121.908 32.24 121.936 32.3427 121.954 32.464C121.982 32.5853 122.001 32.716 122.01 32.856C122.02 32.9867 122.02 33.1173 122.01 33.248C122.001 33.3787 121.978 33.4953 121.94 33.598C121.884 33.766 121.814 33.8967 121.73 33.99C121.646 34.0833 121.539 34.1533 121.408 34.2C121.278 34.2467 121.119 34.2793 120.932 34.298C120.755 34.3073 120.54 34.3167 120.288 34.326C120.064 34.3353 119.854 34.34 119.658 34.34C119.462 34.34 119.262 34.34 119.056 34.34C118.851 34.3307 118.636 34.326 118.412 34.326C118.198 34.3167 117.955 34.3073 117.684 34.298C117.656 34.4847 117.68 34.648 117.754 34.788C117.838 34.9187 117.95 35.0307 118.09 35.124C118.23 35.208 118.389 35.2733 118.566 35.32C118.744 35.3667 118.916 35.3947 119.084 35.404C119.402 35.4227 119.705 35.3993 119.994 35.334C120.284 35.2593 120.582 35.1753 120.89 35.082ZM120.288 32.366C120.111 32.1607 119.924 32.0113 119.728 31.918C119.579 31.8527 119.42 31.8247 119.252 31.834C119.094 31.834 118.94 31.8573 118.79 31.904C118.52 31.9693 118.291 32.1093 118.104 32.324C118.086 32.3427 118.053 32.3893 118.006 32.464C117.96 32.5293 117.913 32.5993 117.866 32.674C117.829 32.7487 117.801 32.8187 117.782 32.884C117.764 32.9493 117.773 32.982 117.81 32.982H120.554C120.545 32.8513 120.522 32.744 120.484 32.66C120.447 32.5667 120.382 32.4687 120.288 32.366ZM128.417 31.106C128.697 30.966 128.991 30.868 129.299 30.812C129.607 30.7467 129.91 30.7327 130.209 30.77C130.517 30.798 130.811 30.8773 131.091 31.008C131.371 31.1293 131.632 31.3067 131.875 31.54C132.117 31.7827 132.304 32.0487 132.435 32.338C132.565 32.6273 132.659 32.9493 132.715 33.304C132.752 33.5467 132.813 33.7707 132.897 33.976C132.981 34.1813 133.069 34.3867 133.163 34.592C133.265 34.7973 133.359 35.0027 133.443 35.208C133.536 35.4133 133.611 35.628 133.667 35.852C133.713 36.0667 133.695 36.2767 133.611 36.482C133.536 36.678 133.377 36.7993 133.135 36.846C132.995 36.874 132.859 36.8647 132.729 36.818C132.607 36.762 132.495 36.6873 132.393 36.594C132.29 36.4913 132.197 36.384 132.113 36.272C132.038 36.1507 131.968 36.0387 131.903 35.936C131.688 36.216 131.455 36.4353 131.203 36.594C130.951 36.7433 130.647 36.8413 130.293 36.888C129.994 36.9253 129.709 36.9347 129.439 36.916C129.168 36.8973 128.879 36.846 128.571 36.762C128.169 36.6593 127.838 36.482 127.577 36.23C127.325 35.9687 127.129 35.67 126.989 35.334C126.858 34.9887 126.788 34.62 126.779 34.228C126.769 33.836 126.816 33.4487 126.919 33.066C127.049 32.562 127.245 32.1513 127.507 31.834C127.768 31.5167 128.071 31.274 128.417 31.106ZM128.767 32.744C128.636 32.8747 128.533 33.0287 128.459 33.206C128.384 33.3833 128.337 33.57 128.319 33.766C128.309 33.962 128.328 34.158 128.375 34.354C128.421 34.55 128.496 34.7227 128.599 34.872C128.692 35.0027 128.851 35.1147 129.075 35.208C129.299 35.292 129.532 35.3433 129.775 35.362C130.055 35.3807 130.297 35.306 130.503 35.138C130.717 34.97 130.876 34.76 130.979 34.508C131.091 34.2467 131.142 33.9713 131.133 33.682C131.123 33.3833 131.044 33.1127 130.895 32.87C130.783 32.6927 130.633 32.562 130.447 32.478C130.269 32.394 130.078 32.352 129.873 32.352C129.667 32.3427 129.462 32.3753 129.257 32.45C129.061 32.5153 128.897 32.6133 128.767 32.744ZM140.697 30.756C140.781 30.8867 140.818 31.0267 140.809 31.176C140.809 31.3907 140.772 31.5773 140.697 31.736C140.678 31.7827 140.65 31.8433 140.613 31.918C140.585 31.9927 140.552 32.072 140.515 32.156C140.487 32.24 140.454 32.3193 140.417 32.394C140.38 32.4687 140.352 32.5247 140.333 32.562L140.305 32.632C140.174 32.9213 140.048 33.2013 139.927 33.472C139.806 33.7427 139.67 34.032 139.521 34.34C139.372 34.6387 139.227 34.9327 139.087 35.222C138.956 35.502 138.826 35.7773 138.695 36.048C138.658 36.1227 138.625 36.1973 138.597 36.272C138.569 36.3373 138.532 36.4073 138.485 36.482L137.813 37.924C137.692 38.1667 137.575 38.4047 137.463 38.638C137.36 38.8713 137.244 39.1047 137.113 39.338C137.085 39.3847 137.057 39.4267 137.029 39.464C137.01 39.5107 136.992 39.5573 136.973 39.604C136.908 39.716 136.81 39.8233 136.679 39.926C136.558 40.038 136.427 40.0987 136.287 40.108C136.035 40.1267 135.816 40.052 135.629 39.884C135.517 39.8187 135.428 39.7253 135.363 39.604C135.326 39.52 135.307 39.4127 135.307 39.282C135.316 39.226 135.321 39.17 135.321 39.114C135.33 39.0673 135.34 39.0207 135.349 38.974C135.368 38.9273 135.382 38.8807 135.391 38.834C135.4 38.7873 135.414 38.75 135.433 38.722C135.461 38.6473 135.484 38.61 135.503 38.61L136.525 36.398C136.478 36.2953 136.432 36.1927 136.385 36.09C136.338 35.978 136.296 35.88 136.259 35.796C136.138 35.5067 136.007 35.2033 135.867 34.886C135.736 34.5593 135.601 34.2373 135.461 33.92C135.321 33.5933 135.176 33.276 135.027 32.968C134.878 32.66 134.728 32.366 134.579 32.086C134.523 31.9927 134.472 31.8947 134.425 31.792C134.378 31.68 134.341 31.5727 134.313 31.47C134.285 31.358 134.276 31.246 134.285 31.134C134.294 31.022 134.336 30.91 134.411 30.798C134.486 30.658 134.584 30.56 134.705 30.504C134.826 30.4387 134.952 30.4107 135.083 30.42C135.223 30.42 135.354 30.448 135.475 30.504C135.596 30.56 135.694 30.6347 135.769 30.728C135.928 30.896 136.054 31.0827 136.147 31.288C136.24 31.4933 136.329 31.7033 136.413 31.918C136.59 32.2913 136.772 32.6833 136.959 33.094C137.146 33.5047 137.332 33.906 137.519 34.298L138.247 32.758C138.322 32.6087 138.387 32.464 138.443 32.324C138.508 32.184 138.574 32.0487 138.639 31.918C138.714 31.7593 138.784 31.596 138.849 31.428C138.924 31.26 139.008 31.106 139.101 30.966C139.12 30.9287 139.138 30.896 139.157 30.868C139.176 30.84 139.194 30.8073 139.213 30.77C139.297 30.658 139.372 30.5693 139.437 30.504C139.484 30.4667 139.521 30.4387 139.549 30.42C139.586 30.392 139.628 30.3733 139.675 30.364C139.74 30.3453 139.801 30.336 139.857 30.336C139.922 30.3267 139.983 30.3267 140.039 30.336C140.132 30.364 140.244 30.406 140.375 30.462C140.515 30.518 140.622 30.616 140.697 30.756ZM147.695 33.668C147.676 33.976 147.658 34.2887 147.639 34.606C147.62 34.914 147.569 35.2127 147.485 35.502C147.41 35.7913 147.289 36.0527 147.121 36.286C146.962 36.5193 146.734 36.706 146.435 36.846C146.174 36.9767 145.894 37.0653 145.595 37.112C145.296 37.168 144.998 37.1913 144.699 37.182C144.4 37.1727 144.111 37.126 143.831 37.042C143.551 36.9673 143.299 36.86 143.075 36.72C142.851 36.58 142.669 36.398 142.529 36.174C142.389 35.95 142.277 35.7073 142.193 35.446C142.118 35.1847 142.067 34.914 142.039 34.634C142.011 34.354 141.992 34.0927 141.983 33.85C141.946 33.206 141.946 32.5713 141.983 31.946C141.983 31.8247 141.983 31.6893 141.983 31.54C141.983 31.3813 141.992 31.2273 142.011 31.078C142.039 30.9287 142.081 30.7933 142.137 30.672C142.193 30.5413 142.286 30.4433 142.417 30.378C142.697 30.2287 142.954 30.2193 143.187 30.35C143.43 30.4807 143.574 30.7513 143.621 31.162C143.649 31.3767 143.658 31.6147 143.649 31.876C143.649 32.1373 143.658 32.3753 143.677 32.59C143.686 32.9073 143.696 33.2527 143.705 33.626C143.714 33.99 143.766 34.3167 143.859 34.606C143.962 34.8953 144.125 35.1147 144.349 35.264C144.582 35.404 144.928 35.4087 145.385 35.278C145.6 35.2127 145.74 35.0493 145.805 34.788C145.88 34.5267 145.917 34.1393 145.917 33.626C145.917 33.402 145.912 33.1547 145.903 32.884C145.894 32.6133 145.889 32.3473 145.889 32.086C145.889 31.8153 145.894 31.568 145.903 31.344C145.922 31.1107 145.95 30.9333 145.987 30.812C146.034 30.644 146.132 30.518 146.281 30.434C146.43 30.35 146.589 30.308 146.757 30.308C146.925 30.2987 147.084 30.3313 147.233 30.406C147.382 30.4807 147.485 30.602 147.541 30.77C147.597 30.9193 147.634 31.1107 147.653 31.344C147.681 31.568 147.7 31.8153 147.709 32.086C147.718 32.3473 147.718 32.618 147.709 32.898C147.709 33.1687 147.704 33.4253 147.695 33.668ZM153.213 27.214C153.39 27.1673 153.544 27.1627 153.675 27.2C153.815 27.228 153.932 27.2887 154.025 27.382C154.128 27.4753 154.202 27.592 154.249 27.732C154.305 27.872 154.333 28.026 154.333 28.194C154.342 28.6607 154.342 29.0247 154.333 29.286C154.333 29.5473 154.333 29.776 154.333 29.972V34.27C154.333 34.774 154.333 35.194 154.333 35.53C154.333 35.866 154.314 36.1413 154.277 36.356C154.249 36.5613 154.193 36.7153 154.109 36.818C154.034 36.9207 153.918 36.9907 153.759 37.028C153.6 37.0747 153.39 37.098 153.129 37.098C152.877 37.098 152.56 37.098 152.177 37.098C151.169 37.098 150.371 36.86 149.783 36.384C149.204 35.908 148.896 35.152 148.859 34.116C148.84 33.668 148.896 33.2573 149.027 32.884C149.158 32.5107 149.349 32.1933 149.601 31.932C149.862 31.6613 150.18 31.456 150.553 31.316C150.936 31.1667 151.37 31.0967 151.855 31.106H152.625V28.6C152.625 28.4507 152.625 28.306 152.625 28.166C152.625 28.0167 152.639 27.8813 152.667 27.76C152.695 27.6293 152.751 27.5173 152.835 27.424C152.919 27.3307 153.045 27.2607 153.213 27.214ZM150.777 34.984C150.973 35.2547 151.328 35.404 151.841 35.432C151.944 35.4413 152.042 35.446 152.135 35.446C152.228 35.4367 152.312 35.4227 152.387 35.404C152.471 35.3947 152.55 35.3807 152.625 35.362V32.772C152.298 32.716 152 32.6833 151.729 32.674C151.468 32.6553 151.206 32.7487 150.945 32.954C150.805 33.066 150.698 33.2107 150.623 33.388C150.548 33.556 150.506 33.738 150.497 33.934C150.488 34.1207 150.506 34.3073 150.553 34.494C150.6 34.6807 150.674 34.844 150.777 34.984ZM157.1 31.106C157.38 30.966 157.674 30.868 157.982 30.812C158.29 30.7467 158.594 30.7327 158.892 30.77C159.2 30.798 159.494 30.8773 159.774 31.008C160.054 31.1293 160.316 31.3067 160.558 31.54C160.801 31.7827 160.988 32.0487 161.118 32.338C161.249 32.6273 161.342 32.9493 161.398 33.304C161.436 33.5467 161.496 33.7707 161.58 33.976C161.664 34.1813 161.753 34.3867 161.846 34.592C161.949 34.7973 162.042 35.0027 162.126 35.208C162.22 35.4133 162.294 35.628 162.35 35.852C162.397 36.0667 162.378 36.2767 162.294 36.482C162.22 36.678 162.061 36.7993 161.818 36.846C161.678 36.874 161.543 36.8647 161.412 36.818C161.291 36.762 161.179 36.6873 161.076 36.594C160.974 36.4913 160.88 36.384 160.796 36.272C160.722 36.1507 160.652 36.0387 160.586 35.936C160.372 36.216 160.138 36.4353 159.886 36.594C159.634 36.7433 159.331 36.8413 158.976 36.888C158.678 36.9253 158.393 36.9347 158.122 36.916C157.852 36.8973 157.562 36.846 157.254 36.762C156.853 36.6593 156.522 36.482 156.26 36.23C156.008 35.9687 155.812 35.67 155.672 35.334C155.542 34.9887 155.472 34.62 155.462 34.228C155.453 33.836 155.5 33.4487 155.602 33.066C155.733 32.562 155.929 32.1513 156.19 31.834C156.452 31.5167 156.755 31.274 157.1 31.106ZM157.45 32.744C157.32 32.8747 157.217 33.0287 157.142 33.206C157.068 33.3833 157.021 33.57 157.002 33.766C156.993 33.962 157.012 34.158 157.058 34.354C157.105 34.55 157.18 34.7227 157.282 34.872C157.376 35.0027 157.534 35.1147 157.758 35.208C157.982 35.292 158.216 35.3433 158.458 35.362C158.738 35.3807 158.981 35.306 159.186 35.138C159.401 34.97 159.56 34.76 159.662 34.508C159.774 34.2467 159.826 33.9713 159.816 33.682C159.807 33.3833 159.728 33.1127 159.578 32.87C159.466 32.6927 159.317 32.562 159.13 32.478C158.953 32.394 158.762 32.352 158.556 32.352C158.351 32.3427 158.146 32.3753 157.94 32.45C157.744 32.5153 157.581 32.6133 157.45 32.744Z" fill="#1A1A1A"/>
<g opacity="0.01">
<rect x="16" y="20" width="24" height="24" fill="#F7F9FC"/>
</g>
<path fill-rule="evenodd" clip-rule="evenodd" d="M28.0418 24.6288C23.9935 24.6288 20.7124 27.9099 20.7124 31.9582C20.7124 33.3638 21.1074 34.675 21.7923 35.7898L22.013 36.149L20.6342 39.3658L23.851 37.987L24.211 38.2077C25.325 38.8926 26.6362 39.2876 28.0418 39.2876C32.0901 39.2876 35.3712 36.0065 35.3712 31.9582C35.3712 27.9099 32.0901 24.6288 28.0418 24.6288ZM19.0836 31.9582C19.0836 27.0108 23.0945 23 28.0418 23C32.9892 23 37 27.0108 37 31.9582C37 36.9055 32.9892 40.9164 28.0418 40.9164C26.4798 40.9164 25.0091 40.5157 23.7289 39.8121L21.2759 40.8634C19.9241 41.4425 18.5575 40.0759 19.1366 38.7241L20.1879 36.2711C19.4843 34.9909 19.0836 33.5202 19.0836 31.9582ZM23.9699 30.3294C23.9699 29.8799 24.3348 29.515 24.7843 29.515H27.2274C27.677 29.515 28.0418 29.8799 28.0418 30.3294C28.0418 30.779 27.677 31.1438 27.2274 31.1438H24.7843C24.3348 31.1438 23.9699 30.779 23.9699 30.3294ZM23.9699 33.5869C23.9699 33.1374 24.3348 32.7726 24.7843 32.7726H31.2993C31.7489 32.7726 32.1137 33.1374 32.1137 33.5869C32.1137 34.0365 31.7489 34.4013 31.2993 34.4013H24.7843C24.3348 34.4013 23.9699 34.0365 23.9699 33.5869Z" fill="black"/>
</svg>
