<svg width="345" height="64" viewBox="0 0 345 64" fill="none" xmlns="http://www.w3.org/2000/svg">
<rect width="345" height="64" rx="15" fill="#F3F4F5"/>
<g opacity="0.01">
<rect x="305" y="20" width="24" height="24" fill="#F7F9FC"/>
</g>
<path d="M314.22 36.2197C313.927 36.5126 313.927 36.9874 314.22 37.2803C314.513 37.5732 314.987 37.5732 315.28 37.2803L320.28 32.2803C320.573 31.9874 320.573 31.5126 320.28 31.2197L315.28 26.2197C314.987 25.9268 314.513 25.9268 314.22 26.2197C313.927 26.5126 313.927 26.9874 314.22 27.2803L318.689 31.75L314.22 36.2197Z" fill="black"/>
<path d="M65.086 35.992C65.0767 36.104 65.0627 36.2207 65.044 36.342C65.0253 36.4633 64.9927 36.5753 64.946 36.678C64.8993 36.79 64.8387 36.874 64.764 36.93C64.6613 37.0233 64.54 37.0747 64.4 37.084C64.2693 37.1307 64.1433 37.1447 64.022 37.126C63.9007 37.1073 63.7887 37.0747 63.686 37.028C63.5553 36.944 63.4573 36.846 63.392 36.734C63.336 36.6127 63.294 36.4867 63.266 36.356C63.238 36.2253 63.224 36.09 63.224 35.95C63.224 35.81 63.224 35.6793 63.224 35.558V34.466L63.21 32.324C63.21 32.1747 63.21 32.058 63.21 31.974C63.21 31.89 63.21 31.8153 63.21 31.75C63.21 31.6753 63.2053 31.596 63.196 31.512C63.196 31.4187 63.196 31.288 63.196 31.12C63.196 31.092 63.196 31.0453 63.196 30.98C63.2053 30.9053 63.2007 30.714 63.182 30.406C62.818 31.0127 62.5147 31.5027 62.272 31.876C62.0387 32.24 61.838 32.5247 61.67 32.73C61.5113 32.926 61.3713 33.0613 61.25 33.136C61.1287 33.2013 61.0027 33.2387 60.872 33.248C60.7973 33.2573 60.7227 33.2433 60.648 33.206C60.5733 33.1687 60.4987 33.122 60.424 33.066C60.3587 33.01 60.2933 32.954 60.228 32.898C60.172 32.8327 60.1253 32.772 60.088 32.716C59.864 32.436 59.612 32.1 59.332 31.708C59.052 31.316 58.7627 30.84 58.464 30.28C58.464 30.2893 58.4593 30.4433 58.45 30.742C58.45 31.0407 58.45 31.414 58.45 31.862C58.45 32.3007 58.4453 32.7767 58.436 33.29C58.436 33.794 58.4313 34.2653 58.422 34.704C58.422 35.1427 58.4173 35.5113 58.408 35.81C58.3987 36.0993 58.3893 36.244 58.38 36.244C58.38 36.4027 58.3427 36.552 58.268 36.692C58.1933 36.8227 58.0907 36.93 57.96 37.014C57.8387 37.098 57.694 37.1447 57.526 37.154C57.358 37.1633 57.176 37.1167 56.98 37.014C56.8587 36.9393 56.7653 36.832 56.7 36.692C56.644 36.552 56.6067 36.4213 56.588 36.3C56.5787 36.1693 56.5693 36.0433 56.56 35.922C56.56 35.8007 56.56 35.6747 56.56 35.544L56.574 34.452L56.588 32.296V30.42C56.588 29.608 56.616 28.81 56.672 28.026C56.672 27.9233 56.6813 27.83 56.7 27.746C56.728 27.6527 56.7607 27.564 56.798 27.48C56.8727 27.3307 56.9707 27.2187 57.092 27.144C57.232 27.06 57.3813 27.018 57.54 27.018C57.6053 27.018 57.666 27.0227 57.722 27.032C57.7873 27.032 57.848 27.0367 57.904 27.046C58.0907 27.0833 58.2493 27.1953 58.38 27.382C58.52 27.5593 58.6507 27.7133 58.772 27.844C58.8467 27.928 58.926 28.0307 59.01 28.152C59.094 28.2733 59.178 28.3993 59.262 28.53C59.346 28.6607 59.4253 28.7867 59.5 28.908C59.5747 29.0293 59.64 29.1367 59.696 29.23C59.9387 29.622 60.1533 29.9813 60.34 30.308C60.536 30.6347 60.718 30.9147 60.886 31.148C60.914 31.12 60.9467 31.0827 60.984 31.036C61.0213 30.98 61.0587 30.924 61.096 30.868C61.1427 30.8027 61.18 30.742 61.208 30.686C61.2453 30.63 61.2733 30.5833 61.292 30.546C61.3853 30.3967 61.4787 30.252 61.572 30.112C61.6653 29.9627 61.7633 29.8087 61.866 29.65C61.978 29.482 62.09 29.3 62.202 29.104C62.3233 28.908 62.4633 28.684 62.622 28.432C62.6873 28.32 62.7713 28.1847 62.874 28.026C62.9767 27.8673 63.0933 27.7133 63.224 27.564C63.3547 27.4147 63.49 27.2887 63.63 27.186C63.7793 27.074 63.9287 27.018 64.078 27.018C64.1527 27.018 64.218 27.0227 64.274 27.032C64.33 27.032 64.386 27.0367 64.442 27.046C64.554 27.0553 64.6613 27.1067 64.764 27.2C64.8387 27.2747 64.8947 27.354 64.932 27.438C64.9693 27.5593 64.9927 27.662 65.002 27.746C65.0113 27.8113 65.016 27.872 65.016 27.928C65.0253 27.984 65.03 28.04 65.03 28.096C65.03 28.6187 65.0347 29.1367 65.044 29.65C65.0533 30.1633 65.058 30.6813 65.058 31.204C65.058 31.8387 65.058 32.492 65.058 33.164C65.0673 33.836 65.072 34.4893 65.072 35.124C65.072 35.2547 65.0767 35.3947 65.086 35.544C65.0953 35.6933 65.0953 35.8427 65.086 35.992ZM68.4412 31.694C68.4412 31.9553 68.4412 32.2493 68.4412 32.576C68.4505 32.9027 68.4552 33.2433 68.4552 33.598C68.4552 33.9433 68.4552 34.2887 68.4552 34.634C68.4552 34.97 68.4505 35.2827 68.4412 35.572C68.4319 35.712 68.4179 35.866 68.3992 36.034C68.3805 36.1927 68.3432 36.342 68.2872 36.482C68.2312 36.622 68.1425 36.7387 68.0212 36.832C67.9092 36.916 67.7552 36.9533 67.5592 36.944C67.2699 36.9253 67.0599 36.7993 66.9292 36.566C66.8079 36.3327 66.7379 36.006 66.7192 35.586C66.7192 35.3713 66.7145 35.124 66.7052 34.844C66.7052 34.564 66.7005 34.2793 66.6912 33.99C66.6912 33.7007 66.6912 33.4207 66.6912 33.15C66.6912 32.87 66.6912 32.618 66.6912 32.394C66.6912 32.2633 66.6865 32.1047 66.6772 31.918C66.6772 31.7313 66.6819 31.54 66.6912 31.344C66.7005 31.148 66.7239 30.9613 66.7612 30.784C66.7985 30.5973 66.8592 30.4433 66.9432 30.322C67.0085 30.2473 67.1019 30.1913 67.2232 30.154C67.3445 30.1073 67.4705 30.084 67.6012 30.084C67.7412 30.084 67.8719 30.1073 67.9932 30.154C68.1239 30.2007 68.2172 30.266 68.2732 30.35C68.3105 30.406 68.3385 30.4853 68.3572 30.588C68.3759 30.6907 68.3899 30.8073 68.3992 30.938C68.4179 31.0593 68.4272 31.19 68.4272 31.33C68.4365 31.4607 68.4412 31.582 68.4412 31.694ZM67.9092 28.866C67.6199 28.9407 67.3772 28.9127 67.1812 28.782C66.9945 28.642 66.8779 28.4367 66.8312 28.166C66.7939 27.97 66.8079 27.7973 66.8732 27.648C66.9385 27.4987 67.0365 27.3867 67.1672 27.312C67.2979 27.228 67.4472 27.1907 67.6152 27.2C67.7832 27.2093 67.9512 27.2747 68.1192 27.396C68.2779 27.508 68.3899 27.6387 68.4552 27.788C68.5299 27.9373 68.5532 28.082 68.5252 28.222C68.5065 28.362 68.4459 28.4927 68.3432 28.614C68.2405 28.726 68.0959 28.81 67.9092 28.866ZM73.742 35.516L73.756 34.41L73.77 32.352C73.7794 32.0533 73.784 31.7453 73.784 31.428C73.784 31.1107 73.784 30.784 73.784 30.448C73.784 30.112 73.784 29.8133 73.784 29.552C73.784 29.2907 73.7934 28.9967 73.812 28.67V28.614C73.8214 28.5207 73.826 28.4273 73.826 28.334C73.8354 28.2313 73.84 28.1287 73.84 28.026C73.8494 27.858 73.9007 27.676 73.994 27.48C74.0594 27.3493 74.1574 27.2373 74.288 27.144C74.4374 27.0693 74.582 27.032 74.722 27.032C74.7967 27.032 74.862 27.0367 74.918 27.046C74.9834 27.046 75.044 27.0507 75.1 27.06C75.2214 27.0787 75.3287 27.1347 75.422 27.228C75.478 27.2747 75.5294 27.3493 75.576 27.452C75.5947 27.508 75.6087 27.564 75.618 27.62C75.6367 27.6667 75.6507 27.718 75.66 27.774C75.6694 27.8393 75.674 27.9 75.674 27.956C75.6834 28.012 75.688 28.068 75.688 28.124C75.688 28.1893 75.6834 28.25 75.674 28.306C75.674 28.3527 75.674 28.404 75.674 28.46V28.698L75.59 35.964V36.104C75.59 36.132 75.5854 36.1693 75.576 36.216C75.576 36.2533 75.5714 36.3 75.562 36.356C75.5434 36.4027 75.5247 36.454 75.506 36.51C75.4967 36.5567 75.4827 36.608 75.464 36.664C75.436 36.7107 75.4034 36.7573 75.366 36.804C75.338 36.8413 75.3007 36.8787 75.254 36.916C75.1794 36.9907 75.058 37.042 74.89 37.07C74.638 37.126 74.4 37.1027 74.176 37C74.064 36.9253 73.9847 36.832 73.938 36.72C73.91 36.692 73.896 36.664 73.896 36.636C73.8867 36.6173 73.8774 36.6033 73.868 36.594C73.8587 36.5847 73.8494 36.5707 73.84 36.552C73.8214 36.5053 73.8074 36.4587 73.798 36.412C73.7887 36.356 73.784 36.3 73.784 36.244C73.7747 36.1973 73.7654 36.1507 73.756 36.104C73.756 36.0573 73.7514 36.0107 73.742 35.964C73.7327 35.8893 73.7327 35.81 73.742 35.726V35.516ZM77.2459 32.002C77.2459 31.7873 77.2412 31.5587 77.2319 31.316C77.2319 31.0733 77.2739 30.854 77.3579 30.658C77.4325 30.4807 77.5539 30.3547 77.7219 30.28C77.8992 30.196 78.0719 30.1773 78.2399 30.224C78.4079 30.252 78.5385 30.3033 78.6319 30.378C78.7252 30.4527 78.7905 30.5413 78.8279 30.644C78.8745 30.7373 78.9025 30.8493 78.9119 30.98C78.9212 31.1013 78.9305 31.2227 78.9399 31.344C79.0332 31.176 79.1499 31.0407 79.2899 30.938C79.4299 30.8353 79.5745 30.7513 79.7239 30.686C79.8732 30.6207 80.0132 30.574 80.1439 30.546C80.2839 30.518 80.3912 30.504 80.4659 30.504C80.8205 30.504 81.1705 30.5833 81.5159 30.742C81.8705 30.8913 82.1645 31.106 82.3979 31.386C82.5285 31.554 82.6265 31.7313 82.6919 31.918C82.7665 32.0953 82.8179 32.282 82.8459 32.478C82.8832 32.674 82.9065 32.8747 82.9159 33.08C82.9252 33.276 82.9345 33.4767 82.9439 33.682C82.9905 34.2793 82.9905 34.872 82.9439 35.46C82.9345 35.5813 82.9299 35.7213 82.9299 35.88C82.9299 36.0387 82.9159 36.1973 82.8879 36.356C82.8692 36.5053 82.8272 36.6407 82.7619 36.762C82.7059 36.874 82.6079 36.944 82.4679 36.972C82.2719 37.0187 82.1085 37.028 81.9779 37C81.8565 36.9813 81.7585 36.9393 81.6839 36.874C81.6092 36.8087 81.5532 36.7247 81.5159 36.622C81.4785 36.5193 81.4459 36.4027 81.4179 36.272C81.3992 36.1693 81.3805 36.0527 81.3619 35.922C81.3525 35.782 81.3432 35.642 81.3339 35.502C81.3339 35.362 81.3292 35.2267 81.3199 35.096C81.3199 34.956 81.3199 34.83 81.3199 34.718C81.3199 34.5407 81.3152 34.3447 81.3059 34.13C81.2965 33.9153 81.2965 33.7147 81.3059 33.528C81.3059 33.0893 81.1892 32.758 80.9559 32.534C80.7319 32.3007 80.4239 32.2027 80.0319 32.24C79.7332 32.2773 79.4719 32.3987 79.2479 32.604C79.0239 32.8 78.9165 33.0567 78.9259 33.374C78.9259 33.4953 78.9259 33.6073 78.9259 33.71C78.9259 33.8127 78.9212 33.9153 78.9119 34.018C78.9119 34.1207 78.9119 34.2327 78.9119 34.354C78.9119 34.4753 78.9119 34.6107 78.9119 34.76C78.9119 35.068 78.9119 35.3947 78.9119 35.74C78.9119 36.076 78.8699 36.3513 78.7859 36.566C78.7112 36.79 78.5852 36.944 78.4079 37.028C78.2305 37.112 78.0205 37.0887 77.7779 36.958C77.6752 36.902 77.5912 36.8273 77.5259 36.734C77.4699 36.6313 77.4232 36.524 77.3859 36.412C77.3579 36.3 77.3392 36.188 77.3299 36.076C77.3205 35.9547 77.3112 35.8427 77.3019 35.74C77.2739 35.432 77.2552 35.1473 77.2459 34.886C77.2459 34.6153 77.2459 34.326 77.2459 34.018V32.002ZM88.1268 31.078C88.2855 31.1247 88.3882 31.2133 88.4348 31.344C88.4815 31.4653 88.4955 31.596 88.4768 31.736C88.4208 32.0253 88.2622 32.2027 88.0008 32.268C87.8515 32.3053 87.6975 32.324 87.5388 32.324C87.3895 32.324 87.2355 32.3287 87.0768 32.338V35.572C87.0768 35.796 87.0628 36.0247 87.0348 36.258C87.0348 36.342 87.0115 36.4307 86.9648 36.524C86.9462 36.5707 86.9322 36.5987 86.9228 36.608C86.9228 36.6267 86.9135 36.6547 86.8948 36.692C86.8388 36.7947 86.7642 36.8787 86.6708 36.944C86.4655 37.056 86.2462 37.084 86.0128 37.028C85.8728 37 85.7655 36.9533 85.6908 36.888C85.6068 36.8227 85.5462 36.7433 85.5088 36.65C85.4902 36.6033 85.4762 36.5567 85.4668 36.51C85.4575 36.4633 85.4435 36.4167 85.4248 36.37C85.4155 36.3233 85.4062 36.2813 85.3968 36.244C85.3968 36.1973 85.3968 36.16 85.3968 36.132V35.32C85.3968 34.8347 85.3968 34.3307 85.3968 33.808C85.4062 33.2853 85.4108 32.7813 85.4108 32.296C85.1962 32.2867 84.9722 32.282 84.7388 32.282C84.5148 32.2727 84.3515 32.2167 84.2488 32.114C84.1928 32.058 84.1555 31.988 84.1368 31.904C84.1182 31.8107 84.1088 31.7173 84.1088 31.624C84.1182 31.5307 84.1368 31.4467 84.1648 31.372C84.1928 31.288 84.2302 31.2273 84.2768 31.19C84.3982 31.078 84.5055 31.0173 84.5988 31.008C84.7015 30.9893 84.8275 30.9753 84.9768 30.966C84.9955 30.966 85.0562 30.966 85.1588 30.966C85.2708 30.9567 85.3408 30.952 85.3688 30.952C85.3782 30.6347 85.3875 30.3173 85.3968 30C85.4062 29.6827 85.4342 29.3933 85.4808 29.132C85.5368 28.8613 85.6162 28.628 85.7188 28.432C85.8308 28.2267 85.9988 28.0727 86.2228 27.97C86.4935 27.8487 86.8015 27.774 87.1468 27.746C87.4922 27.718 87.8048 27.76 88.0848 27.872C88.2155 27.9187 88.3415 28.012 88.4628 28.152C88.5935 28.292 88.6542 28.446 88.6448 28.614C88.6355 28.782 88.6028 28.936 88.5468 29.076C88.4908 29.216 88.3695 29.3093 88.1828 29.356C88.0988 29.3747 88.0102 29.384 87.9168 29.384C87.8328 29.3747 87.7442 29.37 87.6508 29.37C87.5575 29.37 87.4688 29.384 87.3848 29.412C87.3102 29.4307 87.2448 29.4727 87.1888 29.538C87.1422 29.594 87.1095 29.6687 87.0908 29.762C87.0815 29.8553 87.0722 29.9533 87.0628 30.056C87.0535 30.1587 87.0488 30.2613 87.0488 30.364C87.0582 30.4573 87.0628 30.5367 87.0628 30.602V30.952C87.2775 30.9707 87.4735 30.9847 87.6508 30.994C87.8375 31.0033 87.9962 31.0313 88.1268 31.078ZM91.0281 30.672C91.3361 30.5227 91.6581 30.4153 91.9941 30.35C92.3301 30.2847 92.6614 30.2707 92.9881 30.308C93.3241 30.3453 93.6461 30.434 93.9541 30.574C94.2714 30.714 94.5608 30.91 94.8221 31.162C95.0368 31.3767 95.2234 31.638 95.3821 31.946C95.5408 32.2447 95.6574 32.5387 95.7321 32.828C95.8908 33.3413 95.9141 33.8593 95.8021 34.382C95.6901 34.9047 95.4988 35.39 95.2281 35.838C95.0974 36.0433 94.9341 36.23 94.7381 36.398C94.5514 36.5567 94.3508 36.6873 94.1361 36.79C93.8561 36.9207 93.5528 37.0093 93.2261 37.056C92.8994 37.112 92.5821 37.126 92.2741 37.098C91.7141 37.07 91.2194 36.93 90.7901 36.678C90.3701 36.426 90.0294 36.104 89.7681 35.712C89.5161 35.32 89.3481 34.8767 89.2641 34.382C89.1894 33.878 89.2221 33.3647 89.3621 32.842C89.5114 32.282 89.7261 31.8293 90.0061 31.484C90.2954 31.1293 90.6361 30.8587 91.0281 30.672ZM91.4481 32.548C91.3081 32.6787 91.2008 32.842 91.1261 33.038C91.0514 33.234 91.0048 33.4393 90.9861 33.654C90.9674 33.8593 90.9814 34.0693 91.0281 34.284C91.0841 34.4893 91.1681 34.676 91.2801 34.844C91.3734 34.984 91.5414 35.1007 91.7841 35.194C92.0268 35.2873 92.2788 35.3433 92.5401 35.362C92.8388 35.3807 93.1001 35.3013 93.3241 35.124C93.5481 34.9373 93.7161 34.7087 93.8281 34.438C93.9494 34.1673 94.0054 33.8733 93.9961 33.556C93.9868 33.2387 93.9028 32.9493 93.7441 32.688C93.6321 32.5013 93.4734 32.366 93.2681 32.282C93.0721 32.1887 92.8621 32.142 92.6381 32.142C92.4234 32.1327 92.2088 32.1653 91.9941 32.24C91.7794 32.3053 91.5974 32.408 91.4481 32.548ZM97.0017 32.044C97.0017 31.932 97.0017 31.806 97.0017 31.666C97.0017 31.5167 97.0064 31.3673 97.0157 31.218C97.0251 31.0593 97.0391 30.91 97.0577 30.77C97.0857 30.6207 97.1231 30.49 97.1697 30.378C97.2444 30.21 97.3611 30.098 97.5197 30.042C97.6784 29.9767 97.8511 29.9487 98.0377 29.958C98.2337 29.958 98.3877 29.9907 98.4997 30.056C98.6117 30.1213 98.6957 30.21 98.7517 30.322C98.8077 30.4247 98.8404 30.546 98.8497 30.686C98.8684 30.8167 98.8777 30.9567 98.8777 31.106C98.9617 30.9567 99.0737 30.8353 99.2137 30.742C99.3631 30.6487 99.5124 30.574 99.6617 30.518C99.8111 30.462 99.9464 30.4247 100.068 30.406C100.189 30.378 100.259 30.364 100.278 30.364C100.511 30.3453 100.721 30.3407 100.908 30.35C101.104 30.3593 101.318 30.4013 101.552 30.476C101.701 30.532 101.855 30.6113 102.014 30.714C102.172 30.8073 102.312 30.9193 102.434 31.05C102.555 31.1807 102.634 31.3253 102.672 31.484C102.718 31.6333 102.7 31.792 102.616 31.96C102.485 32.1933 102.34 32.31 102.182 32.31C102.023 32.3007 101.85 32.2727 101.664 32.226C101.561 32.2073 101.44 32.1653 101.3 32.1C101.16 32.0347 101.038 31.9927 100.936 31.974C100.618 31.9273 100.338 31.9507 100.096 32.044C99.8531 32.1373 99.6431 32.2493 99.4657 32.38C99.2604 32.5387 99.0831 32.7207 98.9337 32.926V34.942C98.9337 35.194 98.9291 35.4553 98.9197 35.726C98.9197 35.9967 98.8824 36.244 98.8077 36.468C98.7424 36.6827 98.6257 36.86 98.4577 37C98.2991 37.1307 98.0657 37.1867 97.7577 37.168C97.5897 37.1587 97.4404 37.0793 97.3097 36.93C97.1791 36.7713 97.0997 36.6173 97.0717 36.468C97.0531 36.328 97.0391 36.16 97.0297 35.964C97.0204 35.768 97.0111 35.5627 97.0017 35.348C97.0017 35.1333 97.0017 34.9187 97.0017 34.704C97.0017 34.48 97.0017 34.2747 97.0017 34.088V32.044ZM111.412 33.738C111.43 34.0367 111.44 34.3213 111.44 34.592C111.44 34.8533 111.43 35.1333 111.412 35.432C111.412 35.544 111.412 35.67 111.412 35.81C111.412 35.95 111.402 36.0853 111.384 36.216C111.365 36.3467 111.332 36.468 111.286 36.58C111.239 36.692 111.169 36.7807 111.076 36.846C110.964 36.9207 110.838 36.972 110.698 37C110.558 37.0187 110.427 37.0093 110.306 36.972C110.184 36.9347 110.077 36.8647 109.984 36.762C109.9 36.6593 109.853 36.5147 109.844 36.328C109.816 35.8987 109.802 35.4693 109.802 35.04C109.802 34.8253 109.797 34.62 109.788 34.424C109.788 34.228 109.792 33.9527 109.802 33.598C109.802 33.4207 109.788 33.22 109.76 32.996C109.732 32.7627 109.662 32.5993 109.55 32.506C109.466 32.4313 109.372 32.3893 109.27 32.38C109.167 32.3613 109.064 32.3707 108.962 32.408C108.868 32.4453 108.784 32.5153 108.71 32.618C108.635 32.7113 108.584 32.8327 108.556 32.982C108.556 33.1033 108.551 33.2293 108.542 33.36C108.542 33.4813 108.546 33.598 108.556 33.71C108.565 34.0087 108.57 34.2933 108.57 34.564C108.57 34.8253 108.565 35.1053 108.556 35.404C108.546 35.5253 108.542 35.656 108.542 35.796C108.551 35.936 108.551 36.076 108.542 36.216C108.532 36.3467 108.504 36.468 108.458 36.58C108.42 36.692 108.35 36.7807 108.248 36.846C108.136 36.9207 108.014 36.9673 107.884 36.986C107.762 36.9953 107.646 36.9767 107.534 36.93C107.431 36.874 107.338 36.79 107.254 36.678C107.179 36.566 107.137 36.4167 107.128 36.23C107.109 36.0153 107.095 35.8193 107.086 35.642C107.086 35.4553 107.086 35.2593 107.086 35.054C107.086 34.8393 107.09 34.62 107.1 34.396C107.109 34.1627 107.104 33.9387 107.086 33.724C107.086 33.6587 107.081 33.584 107.072 33.5C107.072 33.4067 107.067 33.3133 107.058 33.22C107.058 33.1267 107.048 33.038 107.03 32.954C107.02 32.8607 107.002 32.786 106.974 32.73C106.899 32.5993 106.764 32.5153 106.568 32.478C106.381 32.4407 106.222 32.4547 106.092 32.52C105.961 32.5853 105.863 32.6693 105.798 32.772C105.732 32.8747 105.686 32.9867 105.658 33.108C105.63 33.2293 105.616 33.36 105.616 33.5C105.616 33.6307 105.616 33.7567 105.616 33.878C105.616 34.4847 105.616 35.012 105.616 35.46C105.625 35.8987 105.578 36.2533 105.476 36.524C105.429 36.664 105.331 36.7713 105.182 36.846C105.042 36.9207 104.888 36.958 104.72 36.958C104.561 36.958 104.412 36.9207 104.272 36.846C104.132 36.7713 104.038 36.6547 103.992 36.496C103.964 36.3933 103.936 36.2487 103.908 36.062C103.889 35.866 103.875 35.6513 103.866 35.418C103.856 35.1847 103.852 34.9513 103.852 34.718C103.852 34.4753 103.852 34.256 103.852 34.06V32.044C103.842 31.8293 103.838 31.596 103.838 31.344C103.838 31.092 103.875 30.8633 103.95 30.658C104.015 30.4807 104.118 30.3687 104.258 30.322C104.398 30.266 104.542 30.2427 104.692 30.252C104.86 30.252 104.99 30.2987 105.084 30.392C105.186 30.476 105.261 30.5833 105.308 30.714C105.354 30.8353 105.382 30.9753 105.392 31.134C105.401 31.2833 105.41 31.428 105.42 31.568C105.522 31.3347 105.644 31.1433 105.784 30.994C105.933 30.8353 106.143 30.7327 106.414 30.686C107.104 30.5553 107.655 30.7327 108.066 31.218C108.252 31.0313 108.49 30.8773 108.78 30.756C109.004 30.672 109.232 30.6347 109.466 30.644C109.699 30.644 109.918 30.686 110.124 30.77C110.338 30.854 110.53 30.9753 110.698 31.134C110.875 31.2927 111.015 31.484 111.118 31.708C111.258 32.0067 111.337 32.338 111.356 32.702C111.374 33.066 111.393 33.4113 111.412 33.738ZM114.198 31.106C114.478 30.966 114.772 30.868 115.08 30.812C115.388 30.7467 115.691 30.7327 115.99 30.77C116.298 30.798 116.592 30.8773 116.872 31.008C117.152 31.1293 117.413 31.3067 117.656 31.54C117.899 31.7827 118.085 32.0487 118.216 32.338C118.347 32.6273 118.44 32.9493 118.496 33.304C118.533 33.5467 118.594 33.7707 118.678 33.976C118.762 34.1813 118.851 34.3867 118.944 34.592C119.047 34.7973 119.14 35.0027 119.224 35.208C119.317 35.4133 119.392 35.628 119.448 35.852C119.495 36.0667 119.476 36.2767 119.392 36.482C119.317 36.678 119.159 36.7993 118.916 36.846C118.776 36.874 118.641 36.8647 118.51 36.818C118.389 36.762 118.277 36.6873 118.174 36.594C118.071 36.4913 117.978 36.384 117.894 36.272C117.819 36.1507 117.749 36.0387 117.684 35.936C117.469 36.216 117.236 36.4353 116.984 36.594C116.732 36.7433 116.429 36.8413 116.074 36.888C115.775 36.9253 115.491 36.9347 115.22 36.916C114.949 36.8973 114.66 36.846 114.352 36.762C113.951 36.6593 113.619 36.482 113.358 36.23C113.106 35.9687 112.91 35.67 112.77 35.334C112.639 34.9887 112.569 34.62 112.56 34.228C112.551 33.836 112.597 33.4487 112.7 33.066C112.831 32.562 113.027 32.1513 113.288 31.834C113.549 31.5167 113.853 31.274 114.198 31.106ZM114.548 32.744C114.417 32.8747 114.315 33.0287 114.24 33.206C114.165 33.3833 114.119 33.57 114.1 33.766C114.091 33.962 114.109 34.158 114.156 34.354C114.203 34.55 114.277 34.7227 114.38 34.872C114.473 35.0027 114.632 35.1147 114.856 35.208C115.08 35.292 115.313 35.3433 115.556 35.362C115.836 35.3807 116.079 35.306 116.284 35.138C116.499 34.97 116.657 34.76 116.76 34.508C116.872 34.2467 116.923 33.9713 116.914 33.682C116.905 33.3833 116.825 33.1127 116.676 32.87C116.564 32.6927 116.415 32.562 116.228 32.478C116.051 32.394 115.859 32.352 115.654 32.352C115.449 32.3427 115.243 32.3753 115.038 32.45C114.842 32.5153 114.679 32.6133 114.548 32.744ZM125.821 31.61C125.895 31.7407 125.933 31.8807 125.933 32.03C125.942 32.1793 125.909 32.3193 125.835 32.45C125.751 32.618 125.629 32.7347 125.471 32.8C125.321 32.856 125.153 32.8607 124.967 32.814C124.883 32.7953 124.808 32.7627 124.743 32.716C124.677 32.6693 124.607 32.6227 124.533 32.576C124.467 32.52 124.388 32.4687 124.295 32.422C124.211 32.3753 124.099 32.3427 123.959 32.324C123.819 32.3053 123.665 32.3053 123.497 32.324C123.338 32.3427 123.193 32.38 123.063 32.436C122.857 32.5387 122.694 32.6973 122.573 32.912C122.451 33.1173 122.372 33.3413 122.335 33.584C122.297 33.8173 122.302 34.0553 122.349 34.298C122.405 34.5407 122.507 34.746 122.657 34.914C122.769 35.0447 122.913 35.152 123.091 35.236C123.277 35.32 123.455 35.3713 123.623 35.39C123.781 35.4087 123.94 35.4087 124.099 35.39C124.257 35.362 124.411 35.3247 124.561 35.278C124.673 35.2313 124.799 35.1707 124.939 35.096C125.079 35.012 125.214 34.9607 125.345 34.942C125.513 34.942 125.643 34.9887 125.737 35.082C125.83 35.166 125.895 35.2733 125.933 35.404C125.97 35.5253 125.975 35.656 125.947 35.796C125.928 35.936 125.877 36.0573 125.793 36.16C125.681 36.3 125.522 36.4353 125.317 36.566C125.111 36.6873 124.915 36.776 124.729 36.832C124.505 36.9067 124.253 36.9487 123.973 36.958C123.702 36.9673 123.445 36.958 123.203 36.93C123.091 36.9113 122.974 36.888 122.853 36.86C122.731 36.832 122.615 36.7993 122.503 36.762C122.092 36.6127 121.747 36.4027 121.467 36.132C121.196 35.852 120.986 35.5393 120.837 35.194C120.697 34.8487 120.617 34.48 120.599 34.088C120.58 33.696 120.627 33.3087 120.739 32.926C120.841 32.562 120.967 32.254 121.117 32.002C121.275 31.75 121.457 31.5447 121.663 31.386C121.877 31.218 122.115 31.0873 122.377 30.994C122.638 30.8913 122.927 30.8027 123.245 30.728C123.571 30.6627 123.917 30.6627 124.281 30.728C124.645 30.7933 124.971 30.9147 125.261 31.092C125.485 31.2133 125.671 31.386 125.821 31.61ZM128.844 31.694C128.844 31.9553 128.844 32.2493 128.844 32.576C128.853 32.9027 128.858 33.2433 128.858 33.598C128.858 33.9433 128.858 34.2887 128.858 34.634C128.858 34.97 128.853 35.2827 128.844 35.572C128.834 35.712 128.82 35.866 128.802 36.034C128.783 36.1927 128.746 36.342 128.69 36.482C128.634 36.622 128.545 36.7387 128.424 36.832C128.312 36.916 128.158 36.9533 127.962 36.944C127.672 36.9253 127.462 36.7993 127.332 36.566C127.21 36.3327 127.14 36.006 127.122 35.586C127.122 35.3713 127.117 35.124 127.108 34.844C127.108 34.564 127.103 34.2793 127.094 33.99C127.094 33.7007 127.094 33.4207 127.094 33.15C127.094 32.87 127.094 32.618 127.094 32.394C127.094 32.2633 127.089 32.1047 127.08 31.918C127.08 31.7313 127.084 31.54 127.094 31.344C127.103 31.148 127.126 30.9613 127.164 30.784C127.201 30.5973 127.262 30.4433 127.346 30.322C127.411 30.2473 127.504 30.1913 127.626 30.154C127.747 30.1073 127.873 30.084 128.004 30.084C128.144 30.084 128.274 30.1073 128.396 30.154C128.526 30.2007 128.62 30.266 128.676 30.35C128.713 30.406 128.741 30.4853 128.76 30.588C128.778 30.6907 128.792 30.8073 128.802 30.938C128.82 31.0593 128.83 31.19 128.83 31.33C128.839 31.4607 128.844 31.582 128.844 31.694ZM128.312 28.866C128.022 28.9407 127.78 28.9127 127.584 28.782C127.397 28.642 127.28 28.4367 127.234 28.166C127.196 27.97 127.21 27.7973 127.276 27.648C127.341 27.4987 127.439 27.3867 127.57 27.312C127.7 27.228 127.85 27.1907 128.018 27.2C128.186 27.2093 128.354 27.2747 128.522 27.396C128.68 27.508 128.792 27.6387 128.858 27.788C128.932 27.9373 128.956 28.082 128.928 28.222C128.909 28.362 128.848 28.4927 128.746 28.614C128.643 28.726 128.498 28.81 128.312 28.866ZM131.88 30.672C132.188 30.5227 132.51 30.4153 132.846 30.35C133.182 30.2847 133.513 30.2707 133.84 30.308C134.176 30.3453 134.498 30.434 134.806 30.574C135.123 30.714 135.412 30.91 135.674 31.162C135.888 31.3767 136.075 31.638 136.234 31.946C136.392 32.2447 136.509 32.5387 136.584 32.828C136.742 33.3413 136.766 33.8593 136.654 34.382C136.542 34.9047 136.35 35.39 136.08 35.838C135.949 36.0433 135.786 36.23 135.59 36.398C135.403 36.5567 135.202 36.6873 134.988 36.79C134.708 36.9207 134.404 37.0093 134.078 37.056C133.751 37.112 133.434 37.126 133.126 37.098C132.566 37.07 132.071 36.93 131.642 36.678C131.222 36.426 130.881 36.104 130.62 35.712C130.368 35.32 130.2 34.8767 130.116 34.382C130.041 33.878 130.074 33.3647 130.214 32.842C130.363 32.282 130.578 31.8293 130.858 31.484C131.147 31.1293 131.488 30.8587 131.88 30.672ZM132.3 32.548C132.16 32.6787 132.052 32.842 131.978 33.038C131.903 33.234 131.856 33.4393 131.838 33.654C131.819 33.8593 131.833 34.0693 131.88 34.284C131.936 34.4893 132.02 34.676 132.132 34.844C132.225 34.984 132.393 35.1007 132.636 35.194C132.878 35.2873 133.13 35.3433 133.392 35.362C133.69 35.3807 133.952 35.3013 134.176 35.124C134.4 34.9373 134.568 34.7087 134.68 34.438C134.801 34.1673 134.857 33.8733 134.848 33.556C134.838 33.2387 134.754 32.9493 134.596 32.688C134.484 32.5013 134.325 32.366 134.12 32.282C133.924 32.1887 133.714 32.142 133.49 32.142C133.275 32.1327 133.06 32.1653 132.846 32.24C132.631 32.3053 132.449 32.408 132.3 32.548ZM137.853 32.002C137.853 31.7873 137.849 31.5587 137.839 31.316C137.839 31.0733 137.881 30.854 137.965 30.658C138.04 30.4807 138.161 30.3547 138.329 30.28C138.507 30.196 138.679 30.1773 138.847 30.224C139.015 30.252 139.146 30.3033 139.239 30.378C139.333 30.4527 139.398 30.5413 139.435 30.644C139.482 30.7373 139.51 30.8493 139.519 30.98C139.529 31.1013 139.538 31.2227 139.547 31.344C139.641 31.176 139.757 31.0407 139.897 30.938C140.037 30.8353 140.182 30.7513 140.331 30.686C140.481 30.6207 140.621 30.574 140.751 30.546C140.891 30.518 140.999 30.504 141.073 30.504C141.428 30.504 141.778 30.5833 142.123 30.742C142.478 30.8913 142.772 31.106 143.005 31.386C143.136 31.554 143.234 31.7313 143.299 31.918C143.374 32.0953 143.425 32.282 143.453 32.478C143.491 32.674 143.514 32.8747 143.523 33.08C143.533 33.276 143.542 33.4767 143.551 33.682C143.598 34.2793 143.598 34.872 143.551 35.46C143.542 35.5813 143.537 35.7213 143.537 35.88C143.537 36.0387 143.523 36.1973 143.495 36.356C143.477 36.5053 143.435 36.6407 143.369 36.762C143.313 36.874 143.215 36.944 143.075 36.972C142.879 37.0187 142.716 37.028 142.585 37C142.464 36.9813 142.366 36.9393 142.291 36.874C142.217 36.8087 142.161 36.7247 142.123 36.622C142.086 36.5193 142.053 36.4027 142.025 36.272C142.007 36.1693 141.988 36.0527 141.969 35.922C141.96 35.782 141.951 35.642 141.941 35.502C141.941 35.362 141.937 35.2267 141.927 35.096C141.927 34.956 141.927 34.83 141.927 34.718C141.927 34.5407 141.923 34.3447 141.913 34.13C141.904 33.9153 141.904 33.7147 141.913 33.528C141.913 33.0893 141.797 32.758 141.563 32.534C141.339 32.3007 141.031 32.2027 140.639 32.24C140.341 32.2773 140.079 32.3987 139.855 32.604C139.631 32.8 139.524 33.0567 139.533 33.374C139.533 33.4953 139.533 33.6073 139.533 33.71C139.533 33.8127 139.529 33.9153 139.519 34.018C139.519 34.1207 139.519 34.2327 139.519 34.354C139.519 34.4753 139.519 34.6107 139.519 34.76C139.519 35.068 139.519 35.3947 139.519 35.74C139.519 36.076 139.477 36.3513 139.393 36.566C139.319 36.79 139.193 36.944 139.015 37.028C138.838 37.112 138.628 37.0887 138.385 36.958C138.283 36.902 138.199 36.8273 138.133 36.734C138.077 36.6313 138.031 36.524 137.993 36.412C137.965 36.3 137.947 36.188 137.937 36.076C137.928 35.9547 137.919 35.8427 137.909 35.74C137.881 35.432 137.863 35.1473 137.853 34.886C137.853 34.6153 137.853 34.326 137.853 34.018V32.002Z" fill="#1A1A1A"/>
<rect opacity="0.01" x="18" y="20" width="24" height="24" fill="white"/>
<path d="M22 40C22 30.4 38 30.4 38 40" stroke="black" stroke-width="1.5" stroke-linecap="round"/>
<circle cx="30.0363" cy="27.6" r="3.6" stroke="black" stroke-width="1.5"/>
</svg>
