<svg width="345" height="64" viewBox="0 0 345 64" fill="none" xmlns="http://www.w3.org/2000/svg">
<rect width="345" height="64" rx="15" fill="#F3F4F5"/>
<g opacity="0.01">
<rect x="305" y="20" width="24" height="24" fill="#F7F9FC"/>
</g>
<path d="M314.22 36.2197C313.927 36.5126 313.927 36.9874 314.22 37.2803C314.513 37.5732 314.987 37.5732 315.28 37.2803L320.28 32.2803C320.573 31.9874 320.573 31.5126 320.28 31.2197L315.28 26.2197C314.987 25.9268 314.513 25.9268 314.22 26.2197C313.927 26.5126 313.927 26.9874 314.22 27.2803L318.689 31.75L314.22 36.2197Z" fill="black"/>
<path d="M65.086 35.992C65.0767 36.104 65.0627 36.2207 65.044 36.342C65.0253 36.4633 64.9927 36.5753 64.946 36.678C64.8993 36.79 64.8387 36.874 64.764 36.93C64.6613 37.0233 64.54 37.0747 64.4 37.084C64.2693 37.1307 64.1433 37.1447 64.022 37.126C63.9007 37.1073 63.7887 37.0747 63.686 37.028C63.5553 36.944 63.4573 36.846 63.392 36.734C63.336 36.6127 63.294 36.4867 63.266 36.356C63.238 36.2253 63.224 36.09 63.224 35.95C63.224 35.81 63.224 35.6793 63.224 35.558V34.466L63.21 32.324C63.21 32.1747 63.21 32.058 63.21 31.974C63.21 31.89 63.21 31.8153 63.21 31.75C63.21 31.6753 63.2053 31.596 63.196 31.512C63.196 31.4187 63.196 31.288 63.196 31.12C63.196 31.092 63.196 31.0453 63.196 30.98C63.2053 30.9053 63.2007 30.714 63.182 30.406C62.818 31.0127 62.5147 31.5027 62.272 31.876C62.0387 32.24 61.838 32.5247 61.67 32.73C61.5113 32.926 61.3713 33.0613 61.25 33.136C61.1287 33.2013 61.0027 33.2387 60.872 33.248C60.7973 33.2573 60.7227 33.2433 60.648 33.206C60.5733 33.1687 60.4987 33.122 60.424 33.066C60.3587 33.01 60.2933 32.954 60.228 32.898C60.172 32.8327 60.1253 32.772 60.088 32.716C59.864 32.436 59.612 32.1 59.332 31.708C59.052 31.316 58.7627 30.84 58.464 30.28C58.464 30.2893 58.4593 30.4433 58.45 30.742C58.45 31.0407 58.45 31.414 58.45 31.862C58.45 32.3007 58.4453 32.7767 58.436 33.29C58.436 33.794 58.4313 34.2653 58.422 34.704C58.422 35.1427 58.4173 35.5113 58.408 35.81C58.3987 36.0993 58.3893 36.244 58.38 36.244C58.38 36.4027 58.3427 36.552 58.268 36.692C58.1933 36.8227 58.0907 36.93 57.96 37.014C57.8387 37.098 57.694 37.1447 57.526 37.154C57.358 37.1633 57.176 37.1167 56.98 37.014C56.8587 36.9393 56.7653 36.832 56.7 36.692C56.644 36.552 56.6067 36.4213 56.588 36.3C56.5787 36.1693 56.5693 36.0433 56.56 35.922C56.56 35.8007 56.56 35.6747 56.56 35.544L56.574 34.452L56.588 32.296V30.42C56.588 29.608 56.616 28.81 56.672 28.026C56.672 27.9233 56.6813 27.83 56.7 27.746C56.728 27.6527 56.7607 27.564 56.798 27.48C56.8727 27.3307 56.9707 27.2187 57.092 27.144C57.232 27.06 57.3813 27.018 57.54 27.018C57.6053 27.018 57.666 27.0227 57.722 27.032C57.7873 27.032 57.848 27.0367 57.904 27.046C58.0907 27.0833 58.2493 27.1953 58.38 27.382C58.52 27.5593 58.6507 27.7133 58.772 27.844C58.8467 27.928 58.926 28.0307 59.01 28.152C59.094 28.2733 59.178 28.3993 59.262 28.53C59.346 28.6607 59.4253 28.7867 59.5 28.908C59.5747 29.0293 59.64 29.1367 59.696 29.23C59.9387 29.622 60.1533 29.9813 60.34 30.308C60.536 30.6347 60.718 30.9147 60.886 31.148C60.914 31.12 60.9467 31.0827 60.984 31.036C61.0213 30.98 61.0587 30.924 61.096 30.868C61.1427 30.8027 61.18 30.742 61.208 30.686C61.2453 30.63 61.2733 30.5833 61.292 30.546C61.3853 30.3967 61.4787 30.252 61.572 30.112C61.6653 29.9627 61.7633 29.8087 61.866 29.65C61.978 29.482 62.09 29.3 62.202 29.104C62.3233 28.908 62.4633 28.684 62.622 28.432C62.6873 28.32 62.7713 28.1847 62.874 28.026C62.9767 27.8673 63.0933 27.7133 63.224 27.564C63.3547 27.4147 63.49 27.2887 63.63 27.186C63.7793 27.074 63.9287 27.018 64.078 27.018C64.1527 27.018 64.218 27.0227 64.274 27.032C64.33 27.032 64.386 27.0367 64.442 27.046C64.554 27.0553 64.6613 27.1067 64.764 27.2C64.8387 27.2747 64.8947 27.354 64.932 27.438C64.9693 27.5593 64.9927 27.662 65.002 27.746C65.0113 27.8113 65.016 27.872 65.016 27.928C65.0253 27.984 65.03 28.04 65.03 28.096C65.03 28.6187 65.0347 29.1367 65.044 29.65C65.0533 30.1633 65.058 30.6813 65.058 31.204C65.058 31.8387 65.058 32.492 65.058 33.164C65.0673 33.836 65.072 34.4893 65.072 35.124C65.072 35.2547 65.0767 35.3947 65.086 35.544C65.0953 35.6933 65.0953 35.8427 65.086 35.992ZM68.4412 31.694C68.4412 31.9553 68.4412 32.2493 68.4412 32.576C68.4505 32.9027 68.4552 33.2433 68.4552 33.598C68.4552 33.9433 68.4552 34.2887 68.4552 34.634C68.4552 34.97 68.4505 35.2827 68.4412 35.572C68.4319 35.712 68.4179 35.866 68.3992 36.034C68.3805 36.1927 68.3432 36.342 68.2872 36.482C68.2312 36.622 68.1425 36.7387 68.0212 36.832C67.9092 36.916 67.7552 36.9533 67.5592 36.944C67.2699 36.9253 67.0599 36.7993 66.9292 36.566C66.8079 36.3327 66.7379 36.006 66.7192 35.586C66.7192 35.3713 66.7145 35.124 66.7052 34.844C66.7052 34.564 66.7005 34.2793 66.6912 33.99C66.6912 33.7007 66.6912 33.4207 66.6912 33.15C66.6912 32.87 66.6912 32.618 66.6912 32.394C66.6912 32.2633 66.6865 32.1047 66.6772 31.918C66.6772 31.7313 66.6819 31.54 66.6912 31.344C66.7005 31.148 66.7239 30.9613 66.7612 30.784C66.7985 30.5973 66.8592 30.4433 66.9432 30.322C67.0085 30.2473 67.1019 30.1913 67.2232 30.154C67.3445 30.1073 67.4705 30.084 67.6012 30.084C67.7412 30.084 67.8719 30.1073 67.9932 30.154C68.1239 30.2007 68.2172 30.266 68.2732 30.35C68.3105 30.406 68.3385 30.4853 68.3572 30.588C68.3759 30.6907 68.3899 30.8073 68.3992 30.938C68.4179 31.0593 68.4272 31.19 68.4272 31.33C68.4365 31.4607 68.4412 31.582 68.4412 31.694ZM67.9092 28.866C67.6199 28.9407 67.3772 28.9127 67.1812 28.782C66.9945 28.642 66.8779 28.4367 66.8312 28.166C66.7939 27.97 66.8079 27.7973 66.8732 27.648C66.9385 27.4987 67.0365 27.3867 67.1672 27.312C67.2979 27.228 67.4472 27.1907 67.6152 27.2C67.7832 27.2093 67.9512 27.2747 68.1192 27.396C68.2779 27.508 68.3899 27.6387 68.4552 27.788C68.5299 27.9373 68.5532 28.082 68.5252 28.222C68.5065 28.362 68.4459 28.4927 68.3432 28.614C68.2405 28.726 68.0959 28.81 67.9092 28.866ZM73.0173 34.536C72.84 34.424 72.6393 34.3353 72.4153 34.27C72.2007 34.2047 71.9767 34.144 71.7433 34.088C71.5193 34.032 71.3 33.9713 71.0853 33.906C70.8707 33.8313 70.6747 33.7287 70.4973 33.598C70.1147 33.3087 69.8907 32.954 69.8253 32.534C69.7693 32.1047 69.8627 31.6753 70.1053 31.246C70.236 31.022 70.4087 30.84 70.6233 30.7C70.838 30.5507 71.0713 30.4387 71.3233 30.364C71.5847 30.28 71.8507 30.2333 72.1213 30.224C72.392 30.2147 72.6487 30.2287 72.8913 30.266C73.05 30.294 73.218 30.336 73.3953 30.392C73.5727 30.4387 73.736 30.504 73.8853 30.588C74.044 30.672 74.184 30.7793 74.3053 30.91C74.436 31.0313 74.5293 31.1853 74.5853 31.372C74.6227 31.4933 74.6273 31.61 74.5993 31.722C74.5807 31.834 74.534 31.9273 74.4593 32.002C74.394 32.0767 74.3053 32.1327 74.1933 32.17C74.0907 32.2073 73.9787 32.2167 73.8573 32.198C73.7173 32.17 73.5867 32.128 73.4653 32.072C73.344 32.016 73.2227 31.9553 73.1013 31.89C72.98 31.8247 72.854 31.7687 72.7233 31.722C72.602 31.6753 72.4713 31.652 72.3313 31.652C72.1167 31.6427 71.9393 31.68 71.7993 31.764C71.6593 31.848 71.5613 31.9507 71.5053 32.072C71.4587 32.1933 71.4633 32.324 71.5193 32.464C71.5847 32.604 71.7153 32.7253 71.9113 32.828C72.0887 32.9213 72.2847 32.996 72.4993 33.052C72.714 33.108 72.924 33.164 73.1293 33.22C73.344 33.276 73.5493 33.3413 73.7453 33.416C73.9507 33.4907 74.1327 33.5933 74.2913 33.724C74.5993 33.976 74.786 34.27 74.8513 34.606C74.926 34.942 74.9073 35.2733 74.7953 35.6C74.6833 35.9267 74.4873 36.216 74.2073 36.468C73.9367 36.72 73.6147 36.888 73.2413 36.972C72.9707 37.028 72.6767 37.056 72.3593 37.056C72.0513 37.056 71.7433 37.0233 71.4353 36.958C71.1367 36.8927 70.8473 36.79 70.5673 36.65C70.2967 36.51 70.068 36.3327 69.8813 36.118C69.7507 35.9687 69.6807 35.8007 69.6713 35.614C69.6713 35.418 69.7087 35.25 69.7833 35.11C69.8673 34.9607 69.984 34.858 70.1333 34.802C70.2827 34.746 70.4507 34.7787 70.6373 34.9C70.7867 35.0027 70.964 35.1053 71.1693 35.208C71.3747 35.3013 71.58 35.376 71.7853 35.432C71.9907 35.488 72.1867 35.516 72.3733 35.516C72.5693 35.516 72.7373 35.474 72.8773 35.39C73.0827 35.2593 73.19 35.11 73.1993 34.942C73.2087 34.7647 73.148 34.6293 73.0173 34.536ZM85.6435 30.826C85.7181 31.0033 85.7228 31.1993 85.6575 31.414C85.6015 31.6287 85.4941 31.7687 85.3355 31.834C85.2515 31.8713 85.1395 31.904 84.9995 31.932C84.8595 31.9507 84.7055 31.9693 84.5375 31.988C84.3788 32.0067 84.2201 32.0207 84.0615 32.03C83.9028 32.0393 83.7675 32.044 83.6555 32.044C83.6648 32.324 83.6741 32.6133 83.6835 32.912C83.6928 33.2013 83.7021 33.486 83.7115 33.766C83.7208 34.046 83.7255 34.3167 83.7255 34.578C83.7255 34.83 83.7208 35.0587 83.7115 35.264C83.7115 35.404 83.7115 35.5673 83.7115 35.754C83.7115 35.9313 83.6975 36.104 83.6695 36.272C83.6508 36.44 83.6181 36.5893 83.5715 36.72C83.5248 36.8413 83.4548 36.9207 83.3615 36.958C83.0721 37.0793 82.8061 37.112 82.5635 37.056C82.3301 37.0093 82.1621 36.9113 82.0595 36.762C81.9848 36.6407 81.9288 36.5007 81.8915 36.342C81.8541 36.174 81.8261 36.006 81.8075 35.838C81.7981 35.6607 81.7935 35.4927 81.7935 35.334C81.8028 35.166 81.8075 35.0213 81.8075 34.9C81.8168 34.508 81.8215 34.0647 81.8215 33.57C81.8308 33.066 81.8355 32.562 81.8355 32.058H81.6255C81.5135 32.058 81.3688 32.058 81.1915 32.058C81.0235 32.0487 80.8508 32.0347 80.6735 32.016C80.5055 31.988 80.3468 31.9553 80.1975 31.918C80.0481 31.8713 79.9408 31.806 79.8755 31.722C79.7728 31.6007 79.7075 31.47 79.6795 31.33C79.6608 31.19 79.6701 31.0593 79.7075 30.938C79.7541 30.8073 79.8241 30.6953 79.9175 30.602C80.0108 30.4993 80.1181 30.434 80.2395 30.406C80.4075 30.3593 80.6455 30.336 80.9535 30.336C81.2615 30.3267 81.5508 30.3267 81.8215 30.336C81.8121 30.2427 81.8075 30.154 81.8075 30.07C81.8075 29.9767 81.8028 29.888 81.7935 29.804C81.7841 29.692 81.7795 29.552 81.7795 29.384C81.7795 29.2067 81.7888 29.034 81.8075 28.866C81.8355 28.6887 81.8775 28.5253 81.9335 28.376C81.9895 28.2173 82.0688 28.096 82.1715 28.012C82.3115 27.9 82.4515 27.8393 82.5915 27.83C82.7408 27.8113 82.8761 27.83 82.9975 27.886C83.1281 27.942 83.2355 28.026 83.3195 28.138C83.4128 28.2407 83.4781 28.3573 83.5155 28.488C83.5435 28.6 83.5668 28.7353 83.5855 28.894C83.6041 29.0433 83.6135 29.202 83.6135 29.37C83.6228 29.538 83.6275 29.706 83.6275 29.874C83.6275 30.042 83.6275 30.196 83.6275 30.336H83.7675C83.9075 30.336 84.0708 30.3313 84.2575 30.322C84.4441 30.3127 84.6261 30.3173 84.8035 30.336C84.9901 30.3547 85.1581 30.4013 85.3075 30.476C85.4568 30.5413 85.5688 30.658 85.6435 30.826ZM87.866 31.106C88.146 30.966 88.44 30.868 88.748 30.812C89.056 30.7467 89.3593 30.7327 89.658 30.77C89.966 30.798 90.26 30.8773 90.54 31.008C90.82 31.1293 91.0813 31.3067 91.324 31.54C91.5666 31.7827 91.7533 32.0487 91.884 32.338C92.0146 32.6273 92.108 32.9493 92.164 33.304C92.2013 33.5467 92.262 33.7707 92.346 33.976C92.43 34.1813 92.5186 34.3867 92.612 34.592C92.7146 34.7973 92.808 35.0027 92.892 35.208C92.9853 35.4133 93.06 35.628 93.116 35.852C93.1626 36.0667 93.144 36.2767 93.06 36.482C92.9853 36.678 92.8266 36.7993 92.584 36.846C92.444 36.874 92.3086 36.8647 92.178 36.818C92.0566 36.762 91.9446 36.6873 91.842 36.594C91.7393 36.4913 91.646 36.384 91.562 36.272C91.4873 36.1507 91.4173 36.0387 91.352 35.936C91.1373 36.216 90.904 36.4353 90.652 36.594C90.4 36.7433 90.0966 36.8413 89.742 36.888C89.4433 36.9253 89.1586 36.9347 88.888 36.916C88.6173 36.8973 88.328 36.846 88.02 36.762C87.6186 36.6593 87.2873 36.482 87.026 36.23C86.774 35.9687 86.578 35.67 86.438 35.334C86.3073 34.9887 86.2373 34.62 86.228 34.228C86.2186 33.836 86.2653 33.4487 86.368 33.066C86.4986 32.562 86.6946 32.1513 86.956 31.834C87.2173 31.5167 87.5206 31.274 87.866 31.106ZM88.216 32.744C88.0853 32.8747 87.9826 33.0287 87.908 33.206C87.8333 33.3833 87.7866 33.57 87.768 33.766C87.7586 33.962 87.7773 34.158 87.824 34.354C87.8706 34.55 87.9453 34.7227 88.048 34.872C88.1413 35.0027 88.3 35.1147 88.524 35.208C88.748 35.292 88.9813 35.3433 89.224 35.362C89.504 35.3807 89.7466 35.306 89.952 35.138C90.1666 34.97 90.3253 34.76 90.428 34.508C90.54 34.2467 90.5913 33.9713 90.582 33.682C90.5726 33.3833 90.4933 33.1127 90.344 32.87C90.232 32.6927 90.0826 32.562 89.896 32.478C89.7186 32.394 89.5273 32.352 89.322 32.352C89.1166 32.3427 88.9113 32.3753 88.706 32.45C88.51 32.5153 88.3466 32.6133 88.216 32.744ZM94.2947 32.044C94.2947 31.932 94.2947 31.806 94.2947 31.666C94.2947 31.5167 94.2994 31.3673 94.3087 31.218C94.318 31.0593 94.332 30.91 94.3507 30.77C94.3787 30.6207 94.416 30.49 94.4627 30.378C94.5374 30.21 94.654 30.098 94.8127 30.042C94.9714 29.9767 95.144 29.9487 95.3307 29.958C95.5267 29.958 95.6807 29.9907 95.7927 30.056C95.9047 30.1213 95.9887 30.21 96.0447 30.322C96.1007 30.4247 96.1334 30.546 96.1427 30.686C96.1614 30.8167 96.1707 30.9567 96.1707 31.106C96.2547 30.9567 96.3667 30.8353 96.5067 30.742C96.656 30.6487 96.8054 30.574 96.9547 30.518C97.104 30.462 97.2394 30.4247 97.3607 30.406C97.482 30.378 97.552 30.364 97.5707 30.364C97.804 30.3453 98.014 30.3407 98.2007 30.35C98.3967 30.3593 98.6114 30.4013 98.8447 30.476C98.994 30.532 99.148 30.6113 99.3067 30.714C99.4654 30.8073 99.6054 30.9193 99.7267 31.05C99.848 31.1807 99.9274 31.3253 99.9647 31.484C100.011 31.6333 99.9927 31.792 99.9087 31.96C99.778 32.1933 99.6334 32.31 99.4747 32.31C99.316 32.3007 99.1434 32.2727 98.9567 32.226C98.854 32.2073 98.7327 32.1653 98.5927 32.1C98.4527 32.0347 98.3314 31.9927 98.2287 31.974C97.9114 31.9273 97.6314 31.9507 97.3887 32.044C97.146 32.1373 96.936 32.2493 96.7587 32.38C96.5534 32.5387 96.376 32.7207 96.2267 32.926V34.942C96.2267 35.194 96.222 35.4553 96.2127 35.726C96.2127 35.9967 96.1754 36.244 96.1007 36.468C96.0354 36.6827 95.9187 36.86 95.7507 37C95.592 37.1307 95.3587 37.1867 95.0507 37.168C94.8827 37.1587 94.7334 37.0793 94.6027 36.93C94.472 36.7713 94.3927 36.6173 94.3647 36.468C94.346 36.328 94.332 36.16 94.3227 35.964C94.3134 35.768 94.304 35.5627 94.2947 35.348C94.2947 35.1333 94.2947 34.9187 94.2947 34.704C94.2947 34.48 94.2947 34.2747 94.2947 34.088V32.044ZM102.934 28.894C102.654 28.978 102.416 28.95 102.22 28.81C102.024 28.6607 101.903 28.4507 101.856 28.18C101.828 27.984 101.847 27.8113 101.912 27.662C101.987 27.5127 102.085 27.4007 102.206 27.326C102.337 27.2513 102.486 27.2187 102.654 27.228C102.822 27.2373 102.99 27.3027 103.158 27.424C103.317 27.536 103.429 27.6667 103.494 27.816C103.569 27.956 103.592 28.096 103.564 28.236C103.546 28.376 103.485 28.5067 103.382 28.628C103.28 28.7493 103.13 28.838 102.934 28.894ZM103.494 31.47C103.494 31.582 103.494 31.792 103.494 32.1C103.494 32.408 103.494 32.744 103.494 33.108C103.494 33.4627 103.494 33.808 103.494 34.144C103.494 34.48 103.494 34.7367 103.494 34.914C103.485 35.194 103.466 35.4927 103.438 35.81C103.42 36.1273 103.373 36.44 103.298 36.748C103.233 37.056 103.126 37.3407 102.976 37.602C102.827 37.8727 102.622 38.0967 102.36 38.274C102.062 38.47 101.735 38.596 101.38 38.652C101.026 38.7173 100.68 38.6987 100.344 38.596C100.139 38.5493 99.9385 38.4793 99.7425 38.386C99.5558 38.2927 99.3971 38.1713 99.2665 38.022C99.0985 37.8447 98.9771 37.63 98.9025 37.378C98.8278 37.1353 98.8745 36.9067 99.0425 36.692C99.1545 36.552 99.2898 36.4633 99.4485 36.426C99.6165 36.3793 99.7798 36.398 99.9385 36.482C100.088 36.5567 100.232 36.6313 100.372 36.706C100.512 36.7807 100.652 36.832 100.792 36.86C100.932 36.8787 101.072 36.8647 101.212 36.818C101.352 36.762 101.492 36.65 101.632 36.482C101.698 36.398 101.744 36.2767 101.772 36.118C101.81 35.9593 101.833 35.7867 101.842 35.6C101.861 35.404 101.87 35.2127 101.87 35.026C101.87 34.83 101.87 34.6573 101.87 34.508C101.87 34.3027 101.87 34.13 101.87 33.99C101.87 33.8407 101.87 33.7053 101.87 33.584C101.87 33.4533 101.87 33.3227 101.87 33.192C101.87 33.052 101.87 32.884 101.87 32.688C101.87 32.576 101.866 32.408 101.856 32.184C101.847 31.96 101.842 31.7267 101.842 31.484C101.852 31.232 101.87 30.9987 101.898 30.784C101.936 30.5693 101.992 30.4153 102.066 30.322C102.188 30.1633 102.342 30.084 102.528 30.084C102.724 30.0747 102.902 30.1213 103.06 30.224C103.163 30.2893 103.242 30.3733 103.298 30.476C103.354 30.5693 103.396 30.672 103.424 30.784C103.452 30.896 103.471 31.0127 103.48 31.134C103.49 31.246 103.494 31.358 103.494 31.47ZM109.543 35.082C109.655 35.054 109.767 35.0353 109.879 35.026C110 35.0167 110.107 35.0307 110.201 35.068C110.303 35.1053 110.387 35.1707 110.453 35.264C110.518 35.348 110.551 35.4693 110.551 35.628C110.551 35.74 110.523 35.8473 110.467 35.95C110.411 36.0527 110.341 36.146 110.257 36.23C110.173 36.314 110.079 36.3887 109.977 36.454C109.874 36.51 109.776 36.5567 109.683 36.594C109.412 36.7153 109.099 36.8087 108.745 36.874C108.399 36.9393 108.04 36.9627 107.667 36.944C107.163 36.9253 106.677 36.8273 106.211 36.65C105.753 36.4633 105.394 36.16 105.133 35.74C104.89 35.3293 104.745 34.872 104.699 34.368C104.652 33.864 104.675 33.388 104.769 32.94C104.871 32.3987 105.044 31.96 105.287 31.624C105.539 31.2787 105.837 31.0033 106.183 30.798C106.603 30.5553 107.074 30.4293 107.597 30.42C108.119 30.4107 108.619 30.5133 109.095 30.728C109.412 30.868 109.697 31.0593 109.949 31.302C110.201 31.5353 110.392 31.82 110.523 32.156C110.56 32.24 110.588 32.3427 110.607 32.464C110.635 32.5853 110.653 32.716 110.663 32.856C110.672 32.9867 110.672 33.1173 110.663 33.248C110.653 33.3787 110.63 33.4953 110.593 33.598C110.537 33.766 110.467 33.8967 110.383 33.99C110.299 34.0833 110.191 34.1533 110.061 34.2C109.93 34.2467 109.771 34.2793 109.585 34.298C109.407 34.3073 109.193 34.3167 108.941 34.326C108.717 34.3353 108.507 34.34 108.311 34.34C108.115 34.34 107.914 34.34 107.709 34.34C107.503 34.3307 107.289 34.326 107.065 34.326C106.85 34.3167 106.607 34.3073 106.337 34.298C106.309 34.4847 106.332 34.648 106.407 34.788C106.491 34.9187 106.603 35.0307 106.743 35.124C106.883 35.208 107.041 35.2733 107.219 35.32C107.396 35.3667 107.569 35.3947 107.737 35.404C108.054 35.4227 108.357 35.3993 108.647 35.334C108.936 35.2593 109.235 35.1753 109.543 35.082ZM108.941 32.366C108.763 32.1607 108.577 32.0113 108.381 31.918C108.231 31.8527 108.073 31.8247 107.905 31.834C107.746 31.834 107.592 31.8573 107.443 31.904C107.172 31.9693 106.943 32.1093 106.757 32.324C106.738 32.3427 106.705 32.3893 106.659 32.464C106.612 32.5293 106.565 32.5993 106.519 32.674C106.481 32.7487 106.453 32.8187 106.435 32.884C106.416 32.9493 106.425 32.982 106.463 32.982H109.207C109.197 32.8513 109.174 32.744 109.137 32.66C109.099 32.5667 109.034 32.4687 108.941 32.366ZM117.212 30.826C117.286 31.0033 117.291 31.1993 117.226 31.414C117.17 31.6287 117.062 31.7687 116.904 31.834C116.82 31.8713 116.708 31.904 116.568 31.932C116.428 31.9507 116.274 31.9693 116.106 31.988C115.947 32.0067 115.788 32.0207 115.63 32.03C115.471 32.0393 115.336 32.044 115.224 32.044C115.233 32.324 115.242 32.6133 115.252 32.912C115.261 33.2013 115.27 33.486 115.28 33.766C115.289 34.046 115.294 34.3167 115.294 34.578C115.294 34.83 115.289 35.0587 115.28 35.264C115.28 35.404 115.28 35.5673 115.28 35.754C115.28 35.9313 115.266 36.104 115.238 36.272C115.219 36.44 115.186 36.5893 115.14 36.72C115.093 36.8413 115.023 36.9207 114.93 36.958C114.64 37.0793 114.374 37.112 114.132 37.056C113.898 37.0093 113.73 36.9113 113.628 36.762C113.553 36.6407 113.497 36.5007 113.46 36.342C113.422 36.174 113.394 36.006 113.376 35.838C113.366 35.6607 113.362 35.4927 113.362 35.334C113.371 35.166 113.376 35.0213 113.376 34.9C113.385 34.508 113.39 34.0647 113.39 33.57C113.399 33.066 113.404 32.562 113.404 32.058H113.194C113.082 32.058 112.937 32.058 112.76 32.058C112.592 32.0487 112.419 32.0347 112.242 32.016C112.074 31.988 111.915 31.9553 111.766 31.918C111.616 31.8713 111.509 31.806 111.444 31.722C111.341 31.6007 111.276 31.47 111.248 31.33C111.229 31.19 111.238 31.0593 111.276 30.938C111.322 30.8073 111.392 30.6953 111.486 30.602C111.579 30.4993 111.686 30.434 111.808 30.406C111.976 30.3593 112.214 30.336 112.522 30.336C112.83 30.3267 113.119 30.3267 113.39 30.336C113.38 30.2427 113.376 30.154 113.376 30.07C113.376 29.9767 113.371 29.888 113.362 29.804C113.352 29.692 113.348 29.552 113.348 29.384C113.348 29.2067 113.357 29.034 113.376 28.866C113.404 28.6887 113.446 28.5253 113.502 28.376C113.558 28.2173 113.637 28.096 113.74 28.012C113.88 27.9 114.02 27.8393 114.16 27.83C114.309 27.8113 114.444 27.83 114.566 27.886C114.696 27.942 114.804 28.026 114.888 28.138C114.981 28.2407 115.046 28.3573 115.084 28.488C115.112 28.6 115.135 28.7353 115.154 28.894C115.172 29.0433 115.182 29.202 115.182 29.37C115.191 29.538 115.196 29.706 115.196 29.874C115.196 30.042 115.196 30.196 115.196 30.336H115.336C115.476 30.336 115.639 30.3313 115.826 30.322C116.012 30.3127 116.194 30.3173 116.372 30.336C116.558 30.3547 116.726 30.4013 116.876 30.476C117.025 30.5413 117.137 30.658 117.212 30.826ZM119.434 31.106C119.714 30.966 120.008 30.868 120.316 30.812C120.624 30.7467 120.928 30.7327 121.226 30.77C121.534 30.798 121.828 30.8773 122.108 31.008C122.388 31.1293 122.65 31.3067 122.892 31.54C123.135 31.7827 123.322 32.0487 123.452 32.338C123.583 32.6273 123.676 32.9493 123.732 33.304C123.77 33.5467 123.83 33.7707 123.914 33.976C123.998 34.1813 124.087 34.3867 124.18 34.592C124.283 34.7973 124.376 35.0027 124.46 35.208C124.554 35.4133 124.628 35.628 124.684 35.852C124.731 36.0667 124.712 36.2767 124.628 36.482C124.554 36.678 124.395 36.7993 124.152 36.846C124.012 36.874 123.877 36.8647 123.746 36.818C123.625 36.762 123.513 36.6873 123.41 36.594C123.308 36.4913 123.214 36.384 123.13 36.272C123.056 36.1507 122.986 36.0387 122.92 35.936C122.706 36.216 122.472 36.4353 122.22 36.594C121.968 36.7433 121.665 36.8413 121.31 36.888C121.012 36.9253 120.727 36.9347 120.456 36.916C120.186 36.8973 119.896 36.846 119.588 36.762C119.187 36.6593 118.856 36.482 118.594 36.23C118.342 35.9687 118.146 35.67 118.006 35.334C117.876 34.9887 117.806 34.62 117.796 34.228C117.787 33.836 117.834 33.4487 117.936 33.066C118.067 32.562 118.263 32.1513 118.524 31.834C118.786 31.5167 119.089 31.274 119.434 31.106ZM119.784 32.744C119.654 32.8747 119.551 33.0287 119.476 33.206C119.402 33.3833 119.355 33.57 119.336 33.766C119.327 33.962 119.346 34.158 119.392 34.354C119.439 34.55 119.514 34.7227 119.616 34.872C119.71 35.0027 119.868 35.1147 120.092 35.208C120.316 35.292 120.55 35.3433 120.792 35.362C121.072 35.3807 121.315 35.306 121.52 35.138C121.735 34.97 121.894 34.76 121.996 34.508C122.108 34.2467 122.16 33.9713 122.15 33.682C122.141 33.3833 122.062 33.1127 121.912 32.87C121.8 32.6927 121.651 32.562 121.464 32.478C121.287 32.394 121.096 32.352 120.89 32.352C120.685 32.3427 120.48 32.3753 120.274 32.45C120.078 32.5153 119.915 32.6133 119.784 32.744ZM129.195 34.536C129.018 34.424 128.817 34.3353 128.593 34.27C128.378 34.2047 128.154 34.144 127.921 34.088C127.697 34.032 127.478 33.9713 127.263 33.906C127.048 33.8313 126.852 33.7287 126.675 33.598C126.292 33.3087 126.068 32.954 126.003 32.534C125.947 32.1047 126.04 31.6753 126.283 31.246C126.414 31.022 126.586 30.84 126.801 30.7C127.016 30.5507 127.249 30.4387 127.501 30.364C127.762 30.28 128.028 30.2333 128.299 30.224C128.57 30.2147 128.826 30.2287 129.069 30.266C129.228 30.294 129.396 30.336 129.573 30.392C129.75 30.4387 129.914 30.504 130.063 30.588C130.222 30.672 130.362 30.7793 130.483 30.91C130.614 31.0313 130.707 31.1853 130.763 31.372C130.8 31.4933 130.805 31.61 130.777 31.722C130.758 31.834 130.712 31.9273 130.637 32.002C130.572 32.0767 130.483 32.1327 130.371 32.17C130.268 32.2073 130.156 32.2167 130.035 32.198C129.895 32.17 129.764 32.128 129.643 32.072C129.522 32.016 129.4 31.9553 129.279 31.89C129.158 31.8247 129.032 31.7687 128.901 31.722C128.78 31.6753 128.649 31.652 128.509 31.652C128.294 31.6427 128.117 31.68 127.977 31.764C127.837 31.848 127.739 31.9507 127.683 32.072C127.636 32.1933 127.641 32.324 127.697 32.464C127.762 32.604 127.893 32.7253 128.089 32.828C128.266 32.9213 128.462 32.996 128.677 33.052C128.892 33.108 129.102 33.164 129.307 33.22C129.522 33.276 129.727 33.3413 129.923 33.416C130.128 33.4907 130.31 33.5933 130.469 33.724C130.777 33.976 130.964 34.27 131.029 34.606C131.104 34.942 131.085 35.2733 130.973 35.6C130.861 35.9267 130.665 36.216 130.385 36.468C130.114 36.72 129.792 36.888 129.419 36.972C129.148 37.028 128.854 37.056 128.537 37.056C128.229 37.056 127.921 37.0233 127.613 36.958C127.314 36.8927 127.025 36.79 126.745 36.65C126.474 36.51 126.246 36.3327 126.059 36.118C125.928 35.9687 125.858 35.8007 125.849 35.614C125.849 35.418 125.886 35.25 125.961 35.11C126.045 34.9607 126.162 34.858 126.311 34.802C126.46 34.746 126.628 34.7787 126.815 34.9C126.964 35.0027 127.142 35.1053 127.347 35.208C127.552 35.3013 127.758 35.376 127.963 35.432C128.168 35.488 128.364 35.516 128.551 35.516C128.747 35.516 128.915 35.474 129.055 35.39C129.26 35.2593 129.368 35.11 129.377 34.942C129.386 34.7647 129.326 34.6293 129.195 34.536Z" fill="#1A1A1A"/>
<g opacity="0.01">
<rect x="16" y="20" width="24" height="24" fill="#F7F9FC"/>
</g>
<path fill-rule="evenodd" clip-rule="evenodd" d="M19 27.25C19 26.0072 20.0072 25 21.25 25H34.75C35.9928 25 37 26.0072 37 27.25V36.25C37 37.4928 35.9928 38.5 34.75 38.5H21.25C20.0072 38.5 19 37.4928 19 36.25V27.25ZM21.25 26.5C20.836 26.5 20.5 26.836 20.5 27.25V28H35.5V27.25C35.5 26.836 35.164 26.5 34.75 26.5H21.25ZM35.5 29.5H20.5V36.25C20.5 36.664 20.836 37 21.25 37H34.75C35.164 37 35.5 36.664 35.5 36.25V29.5ZM22 34.75C22 34.336 22.336 34 22.75 34H27.25C27.664 34 28 34.336 28 34.75C28 35.164 27.664 35.5 27.25 35.5H22.75C22.336 35.5 22 35.164 22 34.75Z" fill="black"/>
</svg>
