<svg width="345" height="64" viewBox="0 0 345 64" fill="none" xmlns="http://www.w3.org/2000/svg">
<rect width="345" height="64" rx="15" fill="#F3F4F5"/>
<g opacity="0.01">
<rect x="305" y="20" width="24" height="24" fill="#F7F9FC"/>
</g>
<path d="M314.22 36.2197C313.927 36.5126 313.927 36.9874 314.22 37.2803C314.513 37.5732 314.987 37.5732 315.28 37.2803L320.28 32.2803C320.573 31.9874 320.573 31.5126 320.28 31.2197L315.28 26.2197C314.987 25.9268 314.513 25.9268 314.22 26.2197C313.927 26.5126 313.927 26.9874 314.22 27.2803L318.689 31.75L314.22 36.2197Z" fill="black"/>
<path d="M59.038 27.424C59.6633 27.1907 60.228 27.088 60.732 27.116C61.2453 27.144 61.7027 27.2747 62.104 27.508C62.5053 27.732 62.846 28.0353 63.126 28.418C63.4153 28.8007 63.6487 29.23 63.826 29.706C63.966 30.0607 64.0733 30.434 64.148 30.826C64.2227 31.218 64.2647 31.61 64.274 32.002C64.2927 32.3847 64.2787 32.7627 64.232 33.136C64.1947 33.5093 64.1293 33.8547 64.036 34.172C63.98 34.3867 63.9147 34.5827 63.84 34.76C63.7653 34.9373 63.6767 35.1147 63.574 35.292C63.3407 35.6933 63.0373 36.02 62.664 36.272C62.3 36.524 61.8987 36.7013 61.46 36.804C61.1613 36.8787 60.8533 36.916 60.536 36.916C60.2187 36.9067 59.906 36.8647 59.598 36.79C59.29 36.706 58.9913 36.5893 58.702 36.44C58.422 36.2813 58.1653 36.0853 57.932 35.852C57.6427 35.572 57.4047 35.25 57.218 34.886C57.0313 34.5127 56.8867 34.1253 56.784 33.724C56.6813 33.3133 56.616 32.9027 56.588 32.492C56.56 32.0813 56.56 31.6893 56.588 31.316C56.616 30.9707 56.6813 30.602 56.784 30.21C56.896 29.818 57.0547 29.44 57.26 29.076C57.4653 28.712 57.7127 28.3853 58.002 28.096C58.3007 27.7973 58.646 27.5733 59.038 27.424ZM62.314 33.416C62.426 32.9773 62.4727 32.4827 62.454 31.932C62.4353 31.3813 62.3467 30.8633 62.188 30.378C62.0853 30.0793 61.9547 29.818 61.796 29.594C61.6467 29.3607 61.4647 29.1833 61.25 29.062C61.0447 28.9407 60.802 28.88 60.522 28.88C60.242 28.88 59.9293 28.964 59.584 29.132C59.3787 29.2347 59.2013 29.3747 59.052 29.552C58.912 29.7293 58.7953 29.93 58.702 30.154C58.618 30.378 58.548 30.6113 58.492 30.854C58.4453 31.0967 58.4173 31.33 58.408 31.554C58.3893 31.7967 58.3847 32.0533 58.394 32.324C58.4033 32.5853 58.4313 32.8513 58.478 33.122C58.534 33.3833 58.6087 33.6353 58.702 33.878C58.7953 34.1113 58.9213 34.3213 59.08 34.508C59.3227 34.788 59.6027 34.984 59.92 35.096C60.2467 35.1987 60.5687 35.2127 60.886 35.138C61.3993 35.026 61.7913 34.6853 62.062 34.116C62.174 33.9107 62.258 33.6773 62.314 33.416ZM69.3394 30.7C69.61 30.812 69.8574 30.9753 70.0814 31.19C70.3054 31.3953 70.4967 31.6333 70.6554 31.904C70.8234 32.1747 70.9494 32.4687 71.0334 32.786C71.1267 33.094 71.1734 33.4067 71.1734 33.724C71.1827 34.2 71.0707 34.648 70.8374 35.068C70.6134 35.488 70.2447 35.81 69.7314 36.034C69.3394 36.1927 68.9334 36.314 68.5134 36.398C68.1027 36.4727 67.6734 36.524 67.2254 36.552V39.114C67.2254 39.17 67.216 39.2213 67.1974 39.268C67.188 39.3147 67.1834 39.3613 67.1834 39.408C67.1647 39.5013 67.1414 39.5853 67.1134 39.66C67.0947 39.7347 67.0667 39.814 67.0294 39.898C66.992 39.954 66.9547 40.0053 66.9174 40.052C66.88 40.0987 66.838 40.1453 66.7914 40.192C66.5674 40.304 66.334 40.3273 66.0914 40.262C65.942 40.2527 65.8207 40.206 65.7274 40.122C65.6434 40.038 65.5827 39.9493 65.5454 39.856C65.508 39.7627 65.4754 39.6553 65.4474 39.534C65.438 39.4873 65.4287 39.4407 65.4194 39.394C65.4194 39.3567 65.4194 39.3147 65.4194 39.268V31.47C65.4194 31.414 65.4194 31.358 65.4194 31.302C65.4287 31.2367 65.438 31.1713 65.4474 31.106C65.4567 30.994 65.4847 30.882 65.5314 30.77C65.6154 30.5367 65.788 30.378 66.0494 30.294C66.3107 30.21 66.6047 30.1727 66.9314 30.182C67.1554 30.1913 67.384 30.2147 67.6174 30.252C67.86 30.2893 68.0887 30.336 68.3034 30.392C68.5274 30.4387 68.728 30.49 68.9054 30.546C69.0827 30.602 69.2274 30.6533 69.3394 30.7ZM69.3674 33.724C69.4047 33.4627 69.372 33.2433 69.2694 33.066C69.176 32.8793 69.0407 32.73 68.8634 32.618C68.686 32.4967 68.4807 32.4033 68.2474 32.338C68.0234 32.2727 67.7994 32.226 67.5754 32.198C67.5474 32.1887 67.5007 32.184 67.4354 32.184C67.3794 32.184 67.314 32.184 67.2394 32.184C67.2394 32.4827 67.2394 32.772 67.2394 33.052C67.2487 33.3227 67.2487 33.6167 67.2394 33.934V34.872C67.454 34.8627 67.678 34.8393 67.9114 34.802C68.154 34.7647 68.378 34.704 68.5834 34.62C68.7887 34.536 68.9614 34.424 69.1014 34.284C69.2507 34.144 69.3394 33.9573 69.3674 33.724ZM77.518 31.61C77.5927 31.7407 77.63 31.8807 77.63 32.03C77.6393 32.1793 77.6067 32.3193 77.532 32.45C77.448 32.618 77.3267 32.7347 77.168 32.8C77.0187 32.856 76.8507 32.8607 76.664 32.814C76.58 32.7953 76.5053 32.7627 76.44 32.716C76.3747 32.6693 76.3047 32.6227 76.23 32.576C76.1647 32.52 76.0853 32.4687 75.992 32.422C75.908 32.3753 75.796 32.3427 75.656 32.324C75.516 32.3053 75.362 32.3053 75.194 32.324C75.0353 32.3427 74.8907 32.38 74.76 32.436C74.5547 32.5387 74.3913 32.6973 74.27 32.912C74.1487 33.1173 74.0693 33.3413 74.032 33.584C73.9947 33.8173 73.9993 34.0553 74.046 34.298C74.102 34.5407 74.2047 34.746 74.354 34.914C74.466 35.0447 74.6107 35.152 74.788 35.236C74.9747 35.32 75.152 35.3713 75.32 35.39C75.4787 35.4087 75.6373 35.4087 75.796 35.39C75.9547 35.362 76.1087 35.3247 76.258 35.278C76.37 35.2313 76.496 35.1707 76.636 35.096C76.776 35.012 76.9113 34.9607 77.042 34.942C77.21 34.942 77.3407 34.9887 77.434 35.082C77.5273 35.166 77.5927 35.2733 77.63 35.404C77.6673 35.5253 77.672 35.656 77.644 35.796C77.6253 35.936 77.574 36.0573 77.49 36.16C77.378 36.3 77.2193 36.4353 77.014 36.566C76.8087 36.6873 76.6127 36.776 76.426 36.832C76.202 36.9067 75.95 36.9487 75.67 36.958C75.3993 36.9673 75.1427 36.958 74.9 36.93C74.788 36.9113 74.6713 36.888 74.55 36.86C74.4287 36.832 74.312 36.7993 74.2 36.762C73.7893 36.6127 73.444 36.4027 73.164 36.132C72.8933 35.852 72.6833 35.5393 72.534 35.194C72.394 34.8487 72.3147 34.48 72.296 34.088C72.2773 33.696 72.324 33.3087 72.436 32.926C72.5387 32.562 72.6647 32.254 72.814 32.002C72.9727 31.75 73.1547 31.5447 73.36 31.386C73.5747 31.218 73.8127 31.0873 74.074 30.994C74.3353 30.8913 74.6247 30.8027 74.942 30.728C75.2687 30.6627 75.614 30.6627 75.978 30.728C76.342 30.7933 76.6687 30.9147 76.958 31.092C77.182 31.2133 77.3687 31.386 77.518 31.61ZM80.5408 31.694C80.5408 31.9553 80.5408 32.2493 80.5408 32.576C80.5501 32.9027 80.5548 33.2433 80.5548 33.598C80.5548 33.9433 80.5548 34.2887 80.5548 34.634C80.5548 34.97 80.5501 35.2827 80.5408 35.572C80.5315 35.712 80.5175 35.866 80.4988 36.034C80.4801 36.1927 80.4428 36.342 80.3868 36.482C80.3308 36.622 80.2421 36.7387 80.1208 36.832C80.0088 36.916 79.8548 36.9533 79.6588 36.944C79.3695 36.9253 79.1595 36.7993 79.0288 36.566C78.9075 36.3327 78.8375 36.006 78.8188 35.586C78.8188 35.3713 78.8141 35.124 78.8048 34.844C78.8048 34.564 78.8001 34.2793 78.7908 33.99C78.7908 33.7007 78.7908 33.4207 78.7908 33.15C78.7908 32.87 78.7908 32.618 78.7908 32.394C78.7908 32.2633 78.7861 32.1047 78.7768 31.918C78.7768 31.7313 78.7815 31.54 78.7908 31.344C78.8001 31.148 78.8235 30.9613 78.8608 30.784C78.8981 30.5973 78.9588 30.4433 79.0428 30.322C79.1081 30.2473 79.2015 30.1913 79.3228 30.154C79.4441 30.1073 79.5701 30.084 79.7008 30.084C79.8408 30.084 79.9715 30.1073 80.0928 30.154C80.2235 30.2007 80.3168 30.266 80.3728 30.35C80.4101 30.406 80.4381 30.4853 80.4568 30.588C80.4755 30.6907 80.4895 30.8073 80.4988 30.938C80.5175 31.0593 80.5268 31.19 80.5268 31.33C80.5361 31.4607 80.5408 31.582 80.5408 31.694ZM80.0088 28.866C79.7195 28.9407 79.4768 28.9127 79.2808 28.782C79.0941 28.642 78.9775 28.4367 78.9308 28.166C78.8935 27.97 78.9075 27.7973 78.9728 27.648C79.0381 27.4987 79.1361 27.3867 79.2668 27.312C79.3975 27.228 79.5468 27.1907 79.7148 27.2C79.8828 27.2093 80.0508 27.2747 80.2188 27.396C80.3775 27.508 80.4895 27.6387 80.5548 27.788C80.6295 27.9373 80.6528 28.082 80.6248 28.222C80.6061 28.362 80.5455 28.4927 80.4428 28.614C80.3401 28.726 80.1955 28.81 80.0088 28.866ZM83.5769 30.672C83.8849 30.5227 84.2069 30.4153 84.5429 30.35C84.8789 30.2847 85.2103 30.2707 85.5369 30.308C85.8729 30.3453 86.1949 30.434 86.5029 30.574C86.8203 30.714 87.1096 30.91 87.3709 31.162C87.5856 31.3767 87.7723 31.638 87.9309 31.946C88.0896 32.2447 88.2063 32.5387 88.2809 32.828C88.4396 33.3413 88.4629 33.8593 88.3509 34.382C88.2389 34.9047 88.0476 35.39 87.7769 35.838C87.6463 36.0433 87.4829 36.23 87.2869 36.398C87.1003 36.5567 86.8996 36.6873 86.6849 36.79C86.4049 36.9207 86.1016 37.0093 85.7749 37.056C85.4483 37.112 85.1309 37.126 84.8229 37.098C84.2629 37.07 83.7683 36.93 83.3389 36.678C82.9189 36.426 82.5783 36.104 82.3169 35.712C82.0649 35.32 81.8969 34.8767 81.8129 34.382C81.7383 33.878 81.7709 33.3647 81.9109 32.842C82.0603 32.282 82.2749 31.8293 82.5549 31.484C82.8443 31.1293 83.1849 30.8587 83.5769 30.672ZM83.9969 32.548C83.8569 32.6787 83.7496 32.842 83.6749 33.038C83.6003 33.234 83.5536 33.4393 83.5349 33.654C83.5163 33.8593 83.5303 34.0693 83.5769 34.284C83.6329 34.4893 83.7169 34.676 83.8289 34.844C83.9223 34.984 84.0903 35.1007 84.3329 35.194C84.5756 35.2873 84.8276 35.3433 85.0889 35.362C85.3876 35.3807 85.6489 35.3013 85.8729 35.124C86.0969 34.9373 86.2649 34.7087 86.3769 34.438C86.4983 34.1673 86.5543 33.8733 86.5449 33.556C86.5356 33.2387 86.4516 32.9493 86.2929 32.688C86.1809 32.5013 86.0223 32.366 85.8169 32.282C85.6209 32.1887 85.4109 32.142 85.1869 32.142C84.9723 32.1327 84.7576 32.1653 84.5429 32.24C84.3283 32.3053 84.1463 32.408 83.9969 32.548ZM89.5506 32.002C89.5506 31.7873 89.5459 31.5587 89.5366 31.316C89.5366 31.0733 89.5786 30.854 89.6626 30.658C89.7372 30.4807 89.8586 30.3547 90.0266 30.28C90.2039 30.196 90.3766 30.1773 90.5446 30.224C90.7126 30.252 90.8432 30.3033 90.9366 30.378C91.0299 30.4527 91.0952 30.5413 91.1326 30.644C91.1792 30.7373 91.2072 30.8493 91.2166 30.98C91.2259 31.1013 91.2352 31.2227 91.2446 31.344C91.3379 31.176 91.4546 31.0407 91.5946 30.938C91.7346 30.8353 91.8792 30.7513 92.0286 30.686C92.1779 30.6207 92.3179 30.574 92.4486 30.546C92.5886 30.518 92.6959 30.504 92.7706 30.504C93.1252 30.504 93.4752 30.5833 93.8206 30.742C94.1752 30.8913 94.4692 31.106 94.7026 31.386C94.8332 31.554 94.9312 31.7313 94.9966 31.918C95.0712 32.0953 95.1226 32.282 95.1506 32.478C95.1879 32.674 95.2112 32.8747 95.2206 33.08C95.2299 33.276 95.2392 33.4767 95.2486 33.682C95.2952 34.2793 95.2952 34.872 95.2486 35.46C95.2392 35.5813 95.2346 35.7213 95.2346 35.88C95.2346 36.0387 95.2206 36.1973 95.1926 36.356C95.1739 36.5053 95.1319 36.6407 95.0666 36.762C95.0106 36.874 94.9126 36.944 94.7726 36.972C94.5766 37.0187 94.4132 37.028 94.2826 37C94.1612 36.9813 94.0632 36.9393 93.9886 36.874C93.9139 36.8087 93.8579 36.7247 93.8206 36.622C93.7832 36.5193 93.7506 36.4027 93.7226 36.272C93.7039 36.1693 93.6852 36.0527 93.6666 35.922C93.6572 35.782 93.6479 35.642 93.6386 35.502C93.6386 35.362 93.6339 35.2267 93.6246 35.096C93.6246 34.956 93.6246 34.83 93.6246 34.718C93.6246 34.5407 93.6199 34.3447 93.6106 34.13C93.6012 33.9153 93.6012 33.7147 93.6106 33.528C93.6106 33.0893 93.4939 32.758 93.2606 32.534C93.0366 32.3007 92.7286 32.2027 92.3366 32.24C92.0379 32.2773 91.7766 32.3987 91.5526 32.604C91.3286 32.8 91.2212 33.0567 91.2306 33.374C91.2306 33.4953 91.2306 33.6073 91.2306 33.71C91.2306 33.8127 91.2259 33.9153 91.2166 34.018C91.2166 34.1207 91.2166 34.2327 91.2166 34.354C91.2166 34.4753 91.2166 34.6107 91.2166 34.76C91.2166 35.068 91.2166 35.3947 91.2166 35.74C91.2166 36.076 91.1746 36.3513 91.0906 36.566C91.0159 36.79 90.8899 36.944 90.7126 37.028C90.5352 37.112 90.3252 37.0887 90.0826 36.958C89.9799 36.902 89.8959 36.8273 89.8306 36.734C89.7746 36.6313 89.7279 36.524 89.6906 36.412C89.6626 36.3 89.6439 36.188 89.6346 36.076C89.6252 35.9547 89.6159 35.8427 89.6066 35.74C89.5786 35.432 89.5599 35.1473 89.5506 34.886C89.5506 34.6153 89.5506 34.326 89.5506 34.018V32.002ZM101.258 35.082C101.37 35.054 101.482 35.0353 101.594 35.026C101.715 35.0167 101.822 35.0307 101.916 35.068C102.018 35.1053 102.102 35.1707 102.168 35.264C102.233 35.348 102.266 35.4693 102.266 35.628C102.266 35.74 102.238 35.8473 102.182 35.95C102.126 36.0527 102.056 36.146 101.972 36.23C101.888 36.314 101.794 36.3887 101.692 36.454C101.589 36.51 101.491 36.5567 101.398 36.594C101.127 36.7153 100.814 36.8087 100.46 36.874C100.114 36.9393 99.7548 36.9627 99.3815 36.944C98.8775 36.9253 98.3922 36.8273 97.9255 36.65C97.4682 36.4633 97.1088 36.16 96.8475 35.74C96.6048 35.3293 96.4602 34.872 96.4135 34.368C96.3668 33.864 96.3902 33.388 96.4835 32.94C96.5862 32.3987 96.7588 31.96 97.0015 31.624C97.2535 31.2787 97.5522 31.0033 97.8975 30.798C98.3175 30.5553 98.7888 30.4293 99.3115 30.42C99.8342 30.4107 100.334 30.5133 100.81 30.728C101.127 30.868 101.412 31.0593 101.664 31.302C101.916 31.5353 102.107 31.82 102.238 32.156C102.275 32.24 102.303 32.3427 102.322 32.464C102.35 32.5853 102.368 32.716 102.378 32.856C102.387 32.9867 102.387 33.1173 102.378 33.248C102.368 33.3787 102.345 33.4953 102.308 33.598C102.252 33.766 102.182 33.8967 102.098 33.99C102.014 34.0833 101.906 34.1533 101.776 34.2C101.645 34.2467 101.486 34.2793 101.3 34.298C101.122 34.3073 100.908 34.3167 100.656 34.326C100.432 34.3353 100.222 34.34 100.026 34.34C99.8295 34.34 99.6288 34.34 99.4235 34.34C99.2182 34.3307 99.0035 34.326 98.7795 34.326C98.5648 34.3167 98.3222 34.3073 98.0515 34.298C98.0235 34.4847 98.0468 34.648 98.1215 34.788C98.2055 34.9187 98.3175 35.0307 98.4575 35.124C98.5975 35.208 98.7562 35.2733 98.9335 35.32C99.1108 35.3667 99.2835 35.3947 99.4515 35.404C99.7688 35.4227 100.072 35.3993 100.362 35.334C100.651 35.2593 100.95 35.1753 101.258 35.082ZM100.656 32.366C100.478 32.1607 100.292 32.0113 100.096 31.918C99.9462 31.8527 99.7875 31.8247 99.6195 31.834C99.4608 31.834 99.3068 31.8573 99.1575 31.904C98.8868 31.9693 98.6582 32.1093 98.4715 32.324C98.4528 32.3427 98.4202 32.3893 98.3735 32.464C98.3268 32.5293 98.2802 32.5993 98.2335 32.674C98.1962 32.7487 98.1682 32.8187 98.1495 32.884C98.1308 32.9493 98.1402 32.982 98.1775 32.982H100.922C100.912 32.8513 100.889 32.744 100.852 32.66C100.814 32.5667 100.749 32.4687 100.656 32.366ZM106.855 34.536C106.678 34.424 106.477 34.3353 106.253 34.27C106.039 34.2047 105.815 34.144 105.581 34.088C105.357 34.032 105.138 33.9713 104.923 33.906C104.709 33.8313 104.513 33.7287 104.335 33.598C103.953 33.3087 103.729 32.954 103.663 32.534C103.607 32.1047 103.701 31.6753 103.943 31.246C104.074 31.022 104.247 30.84 104.461 30.7C104.676 30.5507 104.909 30.4387 105.161 30.364C105.423 30.28 105.689 30.2333 105.959 30.224C106.23 30.2147 106.487 30.2287 106.729 30.266C106.888 30.294 107.056 30.336 107.233 30.392C107.411 30.4387 107.574 30.504 107.723 30.588C107.882 30.672 108.022 30.7793 108.143 30.91C108.274 31.0313 108.367 31.1853 108.423 31.372C108.461 31.4933 108.465 31.61 108.437 31.722C108.419 31.834 108.372 31.9273 108.297 32.002C108.232 32.0767 108.143 32.1327 108.031 32.17C107.929 32.2073 107.817 32.2167 107.695 32.198C107.555 32.17 107.425 32.128 107.303 32.072C107.182 32.016 107.061 31.9553 106.939 31.89C106.818 31.8247 106.692 31.7687 106.561 31.722C106.44 31.6753 106.309 31.652 106.169 31.652C105.955 31.6427 105.777 31.68 105.637 31.764C105.497 31.848 105.399 31.9507 105.343 32.072C105.297 32.1933 105.301 32.324 105.357 32.464C105.423 32.604 105.553 32.7253 105.749 32.828C105.927 32.9213 106.123 32.996 106.337 33.052C106.552 33.108 106.762 33.164 106.967 33.22C107.182 33.276 107.387 33.3413 107.583 33.416C107.789 33.4907 107.971 33.5933 108.129 33.724C108.437 33.976 108.624 34.27 108.689 34.606C108.764 34.942 108.745 35.2733 108.633 35.6C108.521 35.9267 108.325 36.216 108.045 36.468C107.775 36.72 107.453 36.888 107.079 36.972C106.809 37.028 106.515 37.056 106.197 37.056C105.889 37.056 105.581 37.0233 105.273 36.958C104.975 36.8927 104.685 36.79 104.405 36.65C104.135 36.51 103.906 36.3327 103.719 36.118C103.589 35.9687 103.519 35.8007 103.509 35.614C103.509 35.418 103.547 35.25 103.621 35.11C103.705 34.9607 103.822 34.858 103.971 34.802C104.121 34.746 104.289 34.7787 104.475 34.9C104.625 35.0027 104.802 35.1053 105.007 35.208C105.213 35.3013 105.418 35.376 105.623 35.432C105.829 35.488 106.025 35.516 106.211 35.516C106.407 35.516 106.575 35.474 106.715 35.39C106.921 35.2593 107.028 35.11 107.037 34.942C107.047 34.7647 106.986 34.6293 106.855 34.536Z" fill="#1A1A1A"/>
<g opacity="0.01">
<rect x="16" y="20" width="24" height="24" fill="#F7F9FC"/>
</g>
<path fill-rule="evenodd" clip-rule="evenodd" d="M28.3072 24.5C28.1197 24.5 27.9329 24.5067 27.7484 24.5202C27.5257 24.5367 27.2894 24.731 27.2407 25.0677L27.1694 25.5575C27.0472 26.4005 26.4689 27.0268 25.8262 27.3717C25.7294 27.4235 25.6349 27.479 25.5419 27.536C24.9209 27.9222 24.0892 28.1097 23.2979 27.794L22.8374 27.6102C22.5209 27.4843 22.2352 27.5908 22.1084 27.776C21.8992 28.0827 21.7117 28.406 21.5489 28.7442C21.4514 28.9453 21.5017 29.2452 21.7687 29.456L22.1609 29.7657C22.8284 30.2922 23.0827 31.1045 23.0594 31.8342L23.0572 32L23.0594 32.1658C23.0827 32.8955 22.8284 33.7078 22.1609 34.2343L21.7687 34.544C21.5017 34.7547 21.4514 35.0547 21.5489 35.2557C21.7117 35.594 21.8992 35.9172 22.1084 36.224C22.2352 36.4093 22.5209 36.5157 22.8374 36.3897L23.2979 36.206C24.0892 35.8903 24.9209 36.0785 25.5419 36.464C25.6349 36.521 25.7294 36.5765 25.8262 36.6283C26.4689 36.9733 27.0472 37.5995 27.1694 38.4425L27.2407 38.9323C27.2894 39.269 27.5257 39.4632 27.7484 39.4797C27.9329 39.4932 28.1197 39.5 28.3072 39.5C28.4947 39.5 28.6814 39.4932 28.8659 39.4797C29.0894 39.4632 29.3249 39.269 29.3737 38.9323L29.4449 38.4425C29.5672 37.5995 30.1454 36.9733 30.7882 36.6283C30.8849 36.5765 30.9794 36.521 31.0732 36.464C31.6934 36.0785 32.5252 35.8903 33.3164 36.206L33.7769 36.3897C34.0934 36.5157 34.3792 36.4093 34.5059 36.224C34.7152 35.9172 34.9027 35.5932 35.0654 35.2557C35.1629 35.0547 35.1127 34.7547 34.8457 34.544L34.4534 34.2343C33.7859 33.7078 33.5317 32.8955 33.5549 32.1658L33.5572 32L33.5549 31.8342C33.5317 31.1045 33.7859 30.2922 34.4534 29.7657L34.8457 29.456C35.1127 29.2452 35.1629 28.9453 35.0654 28.7442C34.9027 28.4067 34.7152 28.0827 34.5059 27.776C34.3792 27.5908 34.0934 27.4843 33.7769 27.6102L33.3164 27.794C32.5252 28.1097 31.6934 27.9222 31.0732 27.536C30.9794 27.479 30.8849 27.4235 30.7882 27.3717C30.1454 27.0268 29.5672 26.4005 29.4449 25.5575L29.3737 25.0677C29.3249 24.731 29.0894 24.5367 28.8659 24.5202C28.6814 24.5067 28.4947 24.5 28.3072 24.5ZM27.6389 23.0247C27.8594 23.0082 28.0822 23 28.3072 23C28.5322 23 28.7549 23.0082 28.9754 23.0247C30.0142 23.1005 30.7252 23.9375 30.8579 24.8525L30.9292 25.3423C30.9667 25.6003 31.1602 25.8688 31.4977 26.0503C31.6222 26.117 31.7444 26.1875 31.8637 26.2625C32.1892 26.4643 32.5184 26.4973 32.7607 26.4005L33.2219 26.2167C34.0792 25.8747 35.1577 26.072 35.7442 26.93C35.9954 27.2983 36.2212 27.6867 36.4169 28.0918C36.8692 29.0293 36.4994 30.0628 35.7742 30.6343L35.3827 30.9433C35.1779 31.1045 35.0422 31.406 35.0542 31.7878C35.0564 31.8583 35.0572 31.9288 35.0572 32C35.0572 32.0712 35.0564 32.1417 35.0542 32.2122C35.0422 32.594 35.1779 32.8955 35.3827 33.0568L35.7742 33.3658C36.4994 33.9373 36.8692 34.9707 36.4169 35.9082C36.2212 36.3132 35.9954 36.7017 35.7442 37.07C35.1577 37.928 34.0792 38.1252 33.2219 37.7832L32.7607 37.5995C32.5184 37.5027 32.1892 37.5358 31.8637 37.7375C31.7444 37.8125 31.6222 37.883 31.4977 37.9497C31.1602 38.1313 30.9667 38.3997 30.9292 38.6578L30.8579 39.1475C30.7252 40.0625 30.0142 40.8995 28.9754 40.9753C28.7549 40.9918 28.5322 41 28.3072 41C28.0822 41 27.8594 40.9918 27.6389 40.9753C26.6009 40.8995 25.8892 40.0625 25.7564 39.1475L25.6852 38.6578C25.6477 38.3997 25.4542 38.1313 25.1167 37.9497C24.9922 37.883 24.8699 37.8125 24.7507 37.7375C24.4252 37.5358 24.0959 37.5027 23.8537 37.5995L23.3924 37.7832C22.5352 38.1252 21.4567 37.928 20.8702 37.07C20.6189 36.7017 20.3932 36.3132 20.1982 35.9082C19.7452 34.9707 20.1149 33.9373 20.8402 33.3658L21.2317 33.0568C21.4364 32.8955 21.5722 32.594 21.5602 32.2122C21.5579 32.1417 21.5572 32.0712 21.5572 32C21.5572 31.9288 21.5579 31.8583 21.5602 31.7878C21.5722 31.406 21.4364 31.1045 21.2317 30.9433L20.8402 30.6343C20.1149 30.0628 19.7452 29.0293 20.1982 28.0918C20.3932 27.6867 20.6189 27.2983 20.8702 26.93C21.4567 26.072 22.5352 25.8747 23.3924 26.2167L23.8537 26.4005C24.0959 26.4973 24.4252 26.4643 24.7507 26.2625C24.8699 26.1875 24.9922 26.117 25.1167 26.0503C25.4542 25.8688 25.6477 25.6003 25.6852 25.3423L25.7564 24.8525C25.8892 23.9375 26.6009 23.1005 27.6389 23.0247ZM28.3072 29.75C27.0644 29.75 26.0572 30.7572 26.0572 32C26.0572 33.2428 27.0644 34.25 28.3072 34.25C29.5499 34.25 30.5572 33.2428 30.5572 32C30.5572 30.7572 29.5499 29.75 28.3072 29.75ZM24.5572 32C24.5572 29.9292 26.2357 28.25 28.3072 28.25C30.3779 28.25 32.0572 29.9292 32.0572 32C32.0572 34.0708 30.3779 35.75 28.3072 35.75C26.2357 35.75 24.5572 34.0708 24.5572 32Z" fill="black"/>
</svg>
