<svg width="375" height="40" viewBox="0 0 375 40" fill="none" xmlns="http://www.w3.org/2000/svg">
<rect opacity="0.01" width="375" height="40" fill="white"/>
<path fill-rule="evenodd" clip-rule="evenodd" d="M329.844 14H346.51C347.217 14 347.896 14.281 348.396 14.7811C348.896 15.2813 349.177 15.9597 349.177 16.667V22.667V22.667C349.177 23.3743 348.896 24.0527 348.396 24.5529C347.896 25.053 347.217 25.334 346.51 25.334H329.844C328.371 25.334 327.177 24.1399 327.177 22.667V16.667V16.667C327.177 15.1941 328.371 14 329.844 14Z" stroke="white" stroke-opacity="0.35"/>
<path d="M350.177 18V22C350.982 21.6612 351.505 20.8731 351.505 20C351.505 19.1269 350.982 18.3388 350.177 18" fill="white" fill-opacity="0.4"/>
<path d="M330.51 16H345.843C346.197 15.9997 346.536 16.1402 346.787 16.3904C347.037 16.6407 347.177 16.9801 347.177 17.334V22.001C347.177 22.7372 346.58 23.334 345.844 23.334H330.51C330.156 23.334 329.817 23.1934 329.567 22.9432C329.317 22.693 329.177 22.3537 329.177 22V17.333C329.177 16.5968 329.774 16 330.51 16Z" fill="white"/>
<path fill-rule="evenodd" clip-rule="evenodd" d="M314.507 16.277C316.723 16.277 318.854 17.1283 320.46 18.655C320.58 18.7736 320.773 18.7736 320.893 18.655L322.049 17.488C322.109 17.4271 322.143 17.3447 322.142 17.259C322.14 17.173 322.104 17.0913 322.042 17.032C317.826 12.9938 311.178 12.9938 306.962 17.032C306.9 17.0913 306.864 17.173 306.862 17.259C306.861 17.3447 306.895 17.4271 306.955 17.488L308.111 18.655C308.231 18.7736 308.424 18.7736 308.544 18.655C310.15 17.1281 312.282 16.2768 314.498 16.277H314.507ZM314.507 20.077C315.724 20.077 316.899 20.5297 317.801 21.347C317.923 21.4628 318.115 21.4602 318.234 21.341L319.389 20.174C319.45 20.113 319.484 20.0301 319.483 19.944C319.482 19.8573 319.446 19.7748 319.383 19.715C316.635 17.1587 312.379 17.1587 309.631 19.715C309.568 19.7748 309.532 19.8573 309.531 19.944C309.53 20.0301 309.564 20.113 309.625 20.174L310.779 21.341C310.898 21.4602 311.09 21.4628 311.212 21.347C312.114 20.5301 313.287 20.0775 314.504 20.077H314.507ZM316.82 22.63C316.822 22.7167 316.788 22.8003 316.726 22.861L314.739 24.877C314.68 24.9364 314.6 24.9699 314.517 24.97C314.433 24.97 314.353 24.9365 314.295 24.877L312.295 22.861C312.233 22.8003 312.199 22.7167 312.201 22.63C312.202 22.5442 312.238 22.4625 312.301 22.404C313.577 21.3254 315.444 21.3254 316.72 22.404C316.783 22.4625 316.819 22.5442 316.82 22.63Z" fill="white"/>
<path fill-rule="evenodd" clip-rule="evenodd" d="M300.844 14H299.844C299.292 14 298.844 14.4477 298.844 15V23.667C298.844 24.2193 299.292 24.667 299.844 24.667H300.844C301.396 24.667 301.844 24.2193 301.844 23.667V15C301.844 14.4477 301.396 14 300.844 14ZM295.177 16.333H296.177C296.729 16.333 297.177 16.7807 297.177 17.333V23.666C297.177 24.2183 296.729 24.666 296.177 24.666H295.177C294.625 24.666 294.177 24.2183 294.177 23.666V17.333C294.177 16.7807 294.625 16.333 295.177 16.333ZM291.511 18.666H290.511H290.51C289.958 18.6666 289.511 19.1141 289.511 19.666V23.666C289.511 24.2183 289.959 24.666 290.511 24.666H291.511C292.063 24.666 292.511 24.2183 292.511 23.666V19.666C292.511 19.1137 292.063 18.666 291.511 18.666ZM286.844 20.666H285.844C285.292 20.666 284.844 21.1137 284.844 21.666V23.666C284.844 24.2183 285.292 24.666 285.844 24.666H286.844C287.396 24.666 287.844 24.2183 287.844 23.666V21.666C287.844 21.1137 287.396 20.666 286.844 20.666Z" fill="white"/>
<path fill-rule="evenodd" clip-rule="evenodd" d="M27.61 25.349C30.119 25.349 31.61 23.387 31.61 20.065C31.6467 18.9833 31.4057 17.9102 30.91 16.948C30.3028 15.7191 29.0341 14.9577 27.664 15C26.7082 14.9346 25.7686 15.2719 25.0726 15.9302C24.3766 16.5886 23.9877 17.5081 24 18.466C23.9658 19.3403 24.2958 20.1895 24.9112 20.8114C25.5266 21.4333 26.3724 21.7721 27.247 21.747C28.3152 21.7987 29.315 21.2212 29.804 20.27H29.92C29.92 22.526 29.066 23.87 27.62 23.87C26.8344 23.9106 26.1219 23.412 25.891 22.66H24.137C24.4532 24.3025 25.9406 25.4542 27.61 25.349ZM27.672 20.349C27.151 20.371 26.6447 20.1739 26.2757 19.8055C25.9067 19.437 25.7088 18.931 25.73 18.41C25.7374 17.3331 26.6165 16.4661 27.6935 16.4735C28.7704 16.481 29.6374 17.3601 29.63 18.437C29.6399 18.955 29.435 19.454 29.0638 19.8154C28.6927 20.1769 28.1885 20.3686 27.671 20.345L27.672 20.349ZM35.7759 22.9788C35.7811 23.5734 35.3046 24.0603 34.71 24.068L34.709 24.064C34.4184 24.0766 34.1356 23.9679 33.9284 23.7638C33.7211 23.5598 33.6079 23.2788 33.616 22.988C33.616 22.3934 34.0967 21.9107 34.6914 21.9081C35.286 21.9056 35.7708 22.3842 35.7759 22.9788ZM34.71 18.941C35.0006 18.9554 35.284 18.8477 35.4918 18.6439C35.6995 18.4402 35.8127 18.1589 35.804 17.868C35.7861 17.277 35.3018 16.8071 34.7105 16.8071C34.1191 16.8071 33.6348 17.277 33.617 17.868C33.6106 18.1575 33.7244 18.4366 33.9313 18.6392C34.1382 18.8417 34.4197 18.9495 34.709 18.937L34.71 18.941ZM44.31 25.11H42.622V23.271H37.803V21.699C38.692 20.065 40.08 17.871 41.823 15.246H44.311V21.781H45.643V23.271H44.31V25.11ZM39.437 21.719C40.585 19.696 41.611 18.075 42.554 16.681H42.654V21.822H39.437V21.719ZM51.452 25.11H49.688L49.687 17.027H49.571L47.117 18.75V17.05L49.695 15.246H51.452V25.11Z" fill="white"/>
</svg>
